<svg id="Layer_1" data-name="Layer 1" xmlns="http://www.w3.org/2000/svg" viewBox="0 0 324.61 360.74"><defs><style>.cls-1{fill:#fff;}.cls-2{fill:#dbd9d6;}.cls-3{fill:#d9d8d6;}.cls-4{fill:#e23d4d;}.cls-5{fill:#00b7af;}.cls-6{fill:#001e2d;}</style></defs><title>cara1</title><path id="_Path_" data-name="&lt;Path&gt;" class="cls-1" d="M43.77,44.32c5.45-10.88,6.52-11.7,17.33-19.48S95.12-2.07,101.77.18,137,7.68,147.68,13.86s16.26,26.45,20.83,16.79,16.91-22,32.65-24.83S248.55,1,260.43,19.1,285,36.19,282.7,51.83s.29,28.85,4.46,33.73,29.68,20.39,27.61,34.91.26,35.65-5.56,44.46-2.71,10.38-.51,17.06,7.44,21.12,3.65,26.66-8.07,19.94-3.73,22.76S331.29,246.08,322,250.7s-11.26,9.23-6.81,11.92,5.86,17.24-3.17,18.48-16.14,2-16,7.37,4.79,13.58-5.41,17.45a21.44,21.44,0,0,1-24.92-6.8c-4.94-6.6-11-18-9.21-31.4s3.2-25.08,1.14-37.13-3.33-18.68-4.1-15.67,7.95,60.78-11.08,77.65-63.81,17.75-75,17.33-29.78,4-47.64-8.51-25-49.68-30.66-52.5-4.1,27.74-1.7,31.32,14.27,9.79,14.94,15.94-3.6,15.3-11,16.26,2,4.7,1.37,9.16,2.12,12.59-6.53,13.91-5.47,1.88-5.6,5.74-6,24.1-20.67,18.57-42-26-44.39-45.69,1-56,5.76-66,4.7-20.67.57-28.27-25.39-31-21.29-67.15,16-43.12,27.83-55.21S39.11,53.63,43.77,44.32Z"/><g id="_Group_" data-name="&lt;Group&gt;"><path class="cls-2" d="M239.13,95.88c-4.42,1.74-6.33,7-6.62,11.72s.5,9.59-.8,14.15c-2.56,9-12.22,14-16.55,22.31a21.29,21.29,0,0,0,1.57,21.84c2.86,3.95,7.05,6.85,9.58,11,4.63,7.6,2.68,17.28,1.25,26.06-2.17,13.31-2.32,28.35,6.39,38.65,2.73,3.22,7.54,5.86,11,3.42,2.54-1.81,2.87-5.39,2.94-8.5q.78-34.77-1.54-69.52c-.37-5.49-.57-11.67,3.17-15.71,1.3-1.4,3-2.4,4.26-3.82,4.23-4.66,3-11.92,1.46-18-.52-2.08-1.1-4.27-2.62-5.78-2.94-2.89-8.06-2.07-11.34-4.58s-3.53-7.47-2.92-11.63,1.69-8.6-.1-12.4"/></g><g id="_Group_2" data-name="&lt;Group&gt;"><path class="cls-3" d="M146.17,58.62c-1.44,7.33,3,14.91,1.34,22.2-1.28,5.77-6.15,10.12-11.41,12.83S125,97.83,119.67,100.3c-5.94,2.73-11.24,6.63-16.5,10.5C96.94,115.38,90,122,92,129.42c1.4,5.14,6.71,8.19,11.82,9.65s10.61,1.94,15.25,4.56c9.62,5.43,12.39,18.38,10.41,29.25-1.27,7-4,13.6-5.19,20.58s-.42,14.83,4.38,20c3.4,3.68,8.31,5.49,12.48,8.27s7.92,7.46,6.82,12.34c-1.22,5.45-7.5,7.87-11.23,12-5.6,6.23-5,15.69-4,24,.35,2.95.71,6,2.11,8.61,2.34,4.4,7.11,6.88,10.49,10.54s4.92,10.33.78,13.13c-2,1.36-4.66,1.24-7,.79-16.73-3.16-27.62-19.34-34.25-35-5.53-13.09-9.46-26.79-13.38-40.46A210.26,210.26,0,0,1,86,205.92a211.51,211.51,0,0,1-2.25-22.62c-1.36-21.66-2.68-43.75,2.76-64.75,3-11.39,7.82-22.18,12.67-32.9C101.1,81.43,103,77.17,106,73.6a35.5,35.5,0,0,1,7.28-6.5,55.23,55.23,0,0,1,33.34-9.72"/></g><g id="_Group_3" data-name="&lt;Group&gt;"><path class="cls-4" d="M141.64,268.17c4-1.8,8.73-.58,12.73,1.24s7.83,4.25,12.17,5c5.88,1,11.8-1.36,17.76-1.45,4.26-.06,9.35.72,12-2.59,2.57-3.16.75-8.32-2.72-10.46s-7.88-2-11.9-1.3-8.05,1.83-12.11,1.45c-4.26-.4-8.16-2.45-12.19-3.9s-8.69-2.24-12.47-.23a9.7,9.7,0,0,0-4,12.25"/></g><g id="_Group_4" data-name="&lt;Group&gt;"><path class="cls-4" d="M141.26,271.83c2.89-2,6.81-1.69,10.12-.52s6.3,3.11,9.59,4.31c7.58,2.76,15.94,1.39,23.94.43a15.45,15.45,0,0,1,5.91.09,5.51,5.51,0,0,1,4.1,3.87,5.42,5.42,0,0,1-2.12,5.06,13.21,13.21,0,0,1-5.25,2.27,51.49,51.49,0,0,1-40.77-7.25c-2.66-1.8-5.43-4.57-4.77-7.72"/></g><path id="_Path_2" data-name="&lt;Path&gt;" class="cls-5" d="M99.92,100.84c-4.84-1.07-2.63-5.62.08-7.57s28.16-20.18,31.43-15.64,4.14,6.56,1.08,9.25S104.81,101.92,99.92,100.84Z"/><path id="_Path_3" data-name="&lt;Path&gt;" class="cls-5" d="M191.51,78.77c-5.62.79-15-3-14.73-5.63s-.92-10.23,18.39-5.34S220.4,71.5,223.66,74c2.21,1.67,2.81,8.36-1.45,6.93s-16.59-4.85-20.52-3.75A68.9,68.9,0,0,1,191.51,78.77Z"/><g id="_Group_5" data-name="&lt;Group&gt;"><path class="cls-4" d="M108.53,160.4a35.27,35.27,0,0,1,14.15,1c4.52,1.4,8.65,4.34,10.43,8.49A12.4,12.4,0,0,1,129,184.35c-4.3,3.18-10.15,3.58-15.56,3.33-5.82-.28-11.88-1.27-16.42-4.65s-7-9.76-4.15-14.6c1.25-2.14,2.24-3.25,5.37-5.24S104.38,160.85,108.53,160.4Z"/></g><g id="_Group_6" data-name="&lt;Group&gt;"><path class="cls-4" d="M205.76,154.87a9.66,9.66,0,0,0,.71,8.27,18.13,18.13,0,0,0,6.54,6.21,12.74,12.74,0,0,0,3.1,1.46,14.07,14.07,0,0,0,4.1.3c4.11-.12,8.41-.46,11.93-2.59,5.11-3.07,7.54-10.26,4.7-15.51-1.74-3.21-5-5.32-8.39-6.71a13.34,13.34,0,0,0-5.46-1.23c-3.25.1-7.64.94-9.55,2.27C210.83,149.15,206.51,152.66,205.76,154.87Z"/></g><path id="_Path_4" data-name="&lt;Path&gt;" class="cls-5" d="M150,24.61c12.91,10.8,10.79,20.48,13.78,22.14s5.88-3.93,7.53-10.75,12.3-20.45,22-23,39.91-11.7,58.24,6.31S279,44.94,277.3,64.89s1.81,23.23,8.61,27.37,24,18.61,23.06,34.34-.87,29.89-7.54,40.39,8.09,24.76,3.88,42.07-4.17,28.74,1.81,29.81,12.16,5,9.34,8.85-8.44,2.68-10.92,9.06,7.57,8.94,5.89,12.54-7.22,8.73-12.88,8.37-11.29,10.89-7.82,15.63-3.53,12.24-7.7,11-26.41-9.31-23.1-37,.52-48.66-3.43-60.19S245,176,250.26,168s19.51-13.67,18.13-24-4.78-23.52-11.08-25.34S241,116,241.05,110.36s-.92-26.12-4.82-33.71S207.4,55,196.66,55.29s-34.65-3.17-52.43,1-30.29,1.58-42.82,22.38S87.57,128.4,84.09,130.74s-7.67-.3-13.7,2.65-15,12.26-11.21,27S73.85,178.27,76,178.16s10.13,50.05,7.29,68.67-2.87,36.2,3.76,41S99.64,297.3,97.23,303s-9.68,4.64-14.54,4.93,8.23,10.25,3.41,18.82c-4.44,7.91-13.31,6.68-20.33,2.81s-1.27,6.25,7.52,8.46-5,21.3-16.29,14S18.22,328,21.88,290.1,36.67,229,29.72,216.81,10.94,190.21,8.1,177.75s-6.56-44.17,9.49-58.2,26.87-22.14,28-31.75S46.43,46.72,62.27,34s28.19-31.06,56.3-22.53C145.84,19.73,150,24.61,150,24.61Z"/><path id="_Path_5" data-name="&lt;Path&gt;" class="cls-6" d="M84.93,170.77c0-.52,0-1,0-1.54A1.77,1.77,0,0,1,84.93,170.77Z"/><path id="_Path_6" data-name="&lt;Path&gt;" class="cls-6" d="M86.57,136.84a1.13,1.13,0,0,1,0,.26,1.1,1.1,0,0,1,0,.16C86.55,137.12,86.56,137,86.57,136.84Z"/><path id="_Compound_Path_" data-name="&lt;Compound Path&gt;" class="cls-6" d="M151.76,131.38a25.88,25.88,0,0,1-9.09-2.1c3.09-2.42,4.69-5.29,4.75-8.54.11-6.47-6.24-12.53-9.61-14.84-2.77-1.89-9.94-.47-25,3.43-4,1-7.67,2-9.91,2.38a12.47,12.47,0,0,0-8.17,5.05,20.26,20.26,0,0,0-3.42,10.84c-.26,4.6,5.29,8.71,9.2,11A14.75,14.75,0,0,1,94,144.57,1.81,1.81,0,0,0,95,148a1.86,1.86,0,0,0,.56-.15,18.18,18.18,0,0,0,8.34-7.69,16.66,16.66,0,0,0,3.56.22,23.18,23.18,0,0,1-3.62,6,1.82,1.82,0,0,0,1.6,3,1.79,1.79,0,0,0,1.19-.64,26.71,26.71,0,0,0,4.83-8.57c1.11-.12,2.29-.29,3.51-.49a17.3,17.3,0,0,1-.54,6.9,1.81,1.81,0,0,0,1.25,2.25,1.67,1.67,0,0,0,.7.06,1.79,1.79,0,0,0,1.54-1.3,21.13,21.13,0,0,0,.63-8.59l2.73-.63a19,19,0,0,0,6.59,8.23,1.82,1.82,0,0,0,1.24.32,1.78,1.78,0,0,0,1.29-.76,1.82,1.82,0,0,0-.44-2.53,15.3,15.3,0,0,1-5.13-6.22c.7-.2,1.4-.41,2.1-.64a25.29,25.29,0,0,0,11,6.46,1.77,1.77,0,0,0,.68.06,1.82,1.82,0,0,0,.3-3.56,21.56,21.56,0,0,1-8.13-4.31c.75-.27,1.49-.56,2.22-.86a1.74,1.74,0,0,0,.32.28,29.87,29.87,0,0,0,13.29,5.14,1.48,1.48,0,0,0,.42,0,1.81,1.81,0,0,0,0-3.6,26.39,26.39,0,0,1-10.22-3.57c.76-.38,1.51-.78,2.24-1.19A29.27,29.27,0,0,0,151.6,135h.28a1.82,1.82,0,0,0-.12-3.62Zm-33.65,3.91c-7.92,1.72-12.85,1.69-13.73,1.3-6.6-3.42-9.5-7-9.39-8.78.56-9.69,5.62-12,8.58-12.52,2.39-.41,6-1.35,10.2-2.44,4.56-1.19,9.73-2.53,14-3.36,6.58-1.27,7.86-.66,8-.59,2.11,1.44,8.11,6.7,8,11.78,0,2.47-1.61,4.71-4.66,6.64C132.06,131.81,122.93,134.24,118.11,135.29Z"/><path id="_Compound_Path_2" data-name="&lt;Compound Path&gt;" class="cls-6" d="M228.3,112c1.5-4.26.31-9.22-3.18-13.27-5.35-6.19-19.36-4.38-30.62-2.92-2.4.3-4.67.6-6.48.75-6.37.54-9.86,3.26-11.66,5.45a12,12,0,0,0-2.71,8.87c.7,6.34,4.56,10.17,10.88,10.78l1,.08a16.93,16.93,0,0,1-1.37,1.87,8.81,8.81,0,0,1-3.39,2.6,1.82,1.82,0,0,0,.87,3.5,2,2,0,0,0,.48-.12,12.39,12.39,0,0,0,4.82-3.64,27.79,27.79,0,0,0,2.76-4.1c1.08,0,2.24,0,3.48,0a14.06,14.06,0,0,1-4.27,5,1.82,1.82,0,0,0,1.26,3.28,1.72,1.72,0,0,0,.85-.33,17.61,17.61,0,0,0,6.18-8l2.84-.13a11.33,11.33,0,0,1-3.28,5.25,1.82,1.82,0,0,0,1.42,3.15,1.77,1.77,0,0,0,1-.46,15,15,0,0,0,4.64-8.17l1.43-.11a24.9,24.9,0,0,0,1.12,7.37,1.8,1.8,0,0,0,1.93,1.27,1.28,1.28,0,0,0,.34-.07,1.81,1.81,0,0,0,1.2-2.27,21.81,21.81,0,0,1-1-6.61l1.73-.18s0,0,0,0c.49.8,1,1.59,1.48,2.38,1.37,2.15,3.06,4.5,5.87,5.25a1.86,1.86,0,0,0,.66,0,1.82,1.82,0,0,0,.27-3.56c-1.54-.41-2.73-2.12-3.73-3.69l-.6-1c1.22-.17,2.38-.35,3.46-.54a14.48,14.48,0,0,0,8.42,6,2.06,2.06,0,0,0,.65,0,1.82,1.82,0,0,0,.25-3.57,10.71,10.71,0,0,1-5.59-3.57A11.26,11.26,0,0,0,228.3,112Zm-3.43-1.2c-1,2.75-3.54,4.64-7.24,5.31-9.89,1.81-27.15,2.47-32.75,1.93-4.62-.44-7.11-2.92-7.62-7.56a8.37,8.37,0,0,1,1.91-6.16c1.86-2.26,4.84-3.67,8.63-4.09l.52,0c1.9-.16,4.2-.46,6.65-.77,9.28-1.2,23.33-3,27.4,1.7C225,104.16,225.93,107.78,224.87,110.8Z"/><path id="_Compound_Path_3" data-name="&lt;Compound Path&gt;" class="cls-6" d="M159.92,198.3c-.38,0-.78.07-1.19.09-3.77.19-6.57-1.71-7.48-5.09a10.93,10.93,0,0,1,5.06-11.87l.84,1.61-.84-1.61c2.41-1.26,6.51-.8,9.13,1a5.48,5.48,0,0,1,2.58,5.28c-.07.55-.11,1.11-.15,1.71C167.64,192.86,167.32,197.49,159.92,198.3Zm-.9-13.92a2.87,2.87,0,0,0-1,.27c-2.67,1.4-3.91,5.22-3.24,7.7q.7,2.57,3.8,2.42c5.34-.27,5.46-2.05,5.7-5.59,0-.62.09-1.25.16-1.9,0-.26.13-1-1-1.85A7,7,0,0,0,159,184.38Z"/><path id="_Compound_Path_4" data-name="&lt;Compound Path&gt;" class="cls-6" d="M187.76,192.28a9.17,9.17,0,0,1-4.33-.54c-1.77-.7-4.8-2.66-5.14-7.94h0c-.19-3,2-6.43,5.15-8.11a7.48,7.48,0,0,1,8.4.57c3.38,2.65,4.18,5.35,4.26,7.14a8.36,8.36,0,0,1-2.94,6.49A9.47,9.47,0,0,1,187.76,192.28Zm-5.84-8.72c.16,2.51,1.12,4.12,2.85,4.81a6,6,0,0,0,5.9-1.13,4.94,4.94,0,0,0,1.8-3.68c-.07-1.48-1.06-3-2.87-4.44a3.9,3.9,0,0,0-4.46-.21c-1.91,1-3.33,3.05-3.22,4.65Z"/><path id="_Path_7" data-name="&lt;Path&gt;" class="cls-6" d="M114.61,96.11a1.83,1.83,0,0,1-1.68-.75,9.41,9.41,0,0,0-6.27-3.75,1.82,1.82,0,1,1,.47-3.6,13.06,13.06,0,0,1,8.75,5.23,1.82,1.82,0,0,1-.41,2.54A2,2,0,0,1,114.61,96.11Z"/><path id="_Path_8" data-name="&lt;Path&gt;" class="cls-6" d="M109.48,98a1.79,1.79,0,0,1-1.35-.41,9.6,9.6,0,0,0-4-1.93,1.82,1.82,0,1,1,.79-3.55,13.18,13.18,0,0,1,5.49,2.68,1.8,1.8,0,0,1,.25,2.55A1.82,1.82,0,0,1,109.48,98Z"/><path id="_Path_9" data-name="&lt;Path&gt;" class="cls-6" d="M105.76,101.2a1.79,1.79,0,0,1-1.45-.48,5.91,5.91,0,0,0-3-1.51,1.82,1.82,0,0,1,.61-3.58,9.45,9.45,0,0,1,4.89,2.45,1.81,1.81,0,0,1-1,3.12Z"/><path id="_Path_10" data-name="&lt;Path&gt;" class="cls-6" d="M101.4,103.88a1.7,1.7,0,0,1-.59,0l-2.34-.52a1.81,1.81,0,1,1,.79-3.54l2.34.52a1.82,1.82,0,0,1-.2,3.58Z"/><path id="_Path_11" data-name="&lt;Path&gt;" class="cls-6" d="M178.87,81h-.27a1.81,1.81,0,0,1-1.74-1.88,16.3,16.3,0,0,1,9.22-13.71,1.82,1.82,0,0,1,1.6,3.27,12.74,12.74,0,0,0-7.19,10.58A1.82,1.82,0,0,1,178.87,81Z"/><path id="_Path_12" data-name="&lt;Path&gt;" class="cls-6" d="M184,81.13a1.79,1.79,0,0,1-.69,0A1.83,1.83,0,0,1,182,78.83a20.32,20.32,0,0,1,8.82-11.64,1.82,1.82,0,0,1,1.9,3.1,16.6,16.6,0,0,0-7.22,9.53A1.8,1.8,0,0,1,184,81.13Z"/><path id="_Path_13" data-name="&lt;Path&gt;" class="cls-6" d="M190.43,79.66a1.84,1.84,0,0,1-1.2-.29,1.81,1.81,0,0,1-.51-2.52,24.85,24.85,0,0,1,7.3-7.18,1.82,1.82,0,0,1,2,3.06,21.2,21.2,0,0,0-6.24,6.13A1.81,1.81,0,0,1,190.43,79.66Z"/><path id="_Path_14" data-name="&lt;Path&gt;" class="cls-6" d="M197.4,79.44A1.84,1.84,0,0,1,196,79a1.82,1.82,0,0,1-.12-2.57,24,24,0,0,1,6.34-5,1.82,1.82,0,0,1,1.73,3.2,20,20,0,0,0-5.38,4.22A1.84,1.84,0,0,1,197.4,79.44Z"/><path id="_Path_15" data-name="&lt;Path&gt;" class="cls-6" d="M204.09,80a1.79,1.79,0,0,1-1.48-.52,1.82,1.82,0,0,1,0-2.57,27.74,27.74,0,0,1,5.93-4.51,1.82,1.82,0,1,1,1.79,3.16,24,24,0,0,0-5.15,3.92A1.83,1.83,0,0,1,204.09,80Z"/><path id="_Path_16" data-name="&lt;Path&gt;" class="cls-6" d="M211.26,81.22a1.82,1.82,0,0,1-1.77-2.71,9.83,9.83,0,0,1,6-4.6,1.82,1.82,0,0,1,.94,3.51,6.28,6.28,0,0,0-3.76,2.89A1.8,1.8,0,0,1,211.26,81.22Z"/><path id="_Path_17" data-name="&lt;Path&gt;" class="cls-6" d="M215.88,82.51a1.82,1.82,0,0,1-1.3-3.25,16.13,16.13,0,0,1,6.32-2.9,1.82,1.82,0,0,1,.76,3.55,12.42,12.42,0,0,0-4.88,2.24A1.72,1.72,0,0,1,215.88,82.51Z"/><path id="_Path_18" data-name="&lt;Path&gt;" class="cls-6" d="M221,84.45a1.82,1.82,0,0,1-.89-3.49L224,79.38a1.82,1.82,0,0,1,1.38,3.37l-3.86,1.57A1.78,1.78,0,0,1,221,84.45Z"/><path id="_Path_19" data-name="&lt;Path&gt;" class="cls-4" d="M173.37,207.52q-4.06.45-8.14.58c-4.18.14-8.57,0-12.37-2.11-3.44-1.89-6.23-5.31-8.31-10.17a22.59,22.59,0,0,1-2.11-10.65,13.27,13.27,0,0,1,5.37-10,21,21,0,0,1,6.1-2.55c2.65-.79,4.94-1.47,6.21-3.26s1.18-4.48,1-7A206.54,206.54,0,0,0,158,139.64a1.82,1.82,0,1,1,3.57-.69A208.66,208.66,0,0,1,164.72,162c.25,3.09.35,6.63-1.64,9.43s-5.11,3.76-8.13,4.65a18.63,18.63,0,0,0-5.09,2.06,9.61,9.61,0,0,0-3.79,7.26,19,19,0,0,0,1.82,8.95c1.75,4.1,4,6.93,6.72,8.42,3,1.67,6.84,1.78,10.5,1.66a104.36,104.36,0,0,0,23-3.36,16.64,16.64,0,0,0,6.59-2.86c2-1.64,3.31-4.33,4-8a28.26,28.26,0,0,0-1.1-14.53c-.72-2.07-2.86-7-7.08-8.12a16,16,0,0,0-3.58-.38c-2.08-.08-4.45-.17-6.52-1.44-3.9-2.39-4.55-7.56-4.9-10.34l-2.13-16.89a1.81,1.81,0,0,1,1.58-2h0a1.82,1.82,0,0,1,2,1.58L179.09,155c.38,3,1,6.34,3.19,7.7,1.27.78,3,.84,4.77.91a19,19,0,0,1,4.38.5c2.44.65,6.92,2.88,9.57,10.43a31.86,31.86,0,0,1,1.24,16.4c-.84,4.5-2.6,7.9-5.23,10.1a20.08,20.08,0,0,1-8,3.58A107.66,107.66,0,0,1,173.37,207.52Z"/><path id="_Path_20" data-name="&lt;Path&gt;" class="cls-6" d="M119.91,93.5a1.81,1.81,0,0,1-1.42-.47l-2.44-2.22c-1.44-1.31-2.75-2.41-4.14-2.5a1.81,1.81,0,1,1,.23-3.62c2.78.18,4.93,2.14,6.35,3.43l2.44,2.23a1.8,1.8,0,0,1,.12,2.56A1.84,1.84,0,0,1,119.91,93.5Z"/><path id="_Path_21" data-name="&lt;Path&gt;" class="cls-6" d="M125.38,91.5a1.81,1.81,0,0,1-2-1.46,3,3,0,0,0-.77-1.13,15.61,15.61,0,0,0-6-4A1.82,1.82,0,1,1,118,81.55a19.43,19.43,0,0,1,7.34,4.88A6,6,0,0,1,127,89.35a1.82,1.82,0,0,1-1.43,2.13Z"/><path id="_Path_22" data-name="&lt;Path&gt;" class="cls-6" d="M130.88,89.44a1.81,1.81,0,0,1-1.79-.92,13.61,13.61,0,0,0-7.29-6.12A1.82,1.82,0,0,1,123,79a17.31,17.31,0,0,1,9.26,7.78,1.81,1.81,0,0,1-.69,2.47A1.8,1.8,0,0,1,130.88,89.44Z"/><path id="_Path_23" data-name="&lt;Path&gt;" class="cls-6" d="M137.34,88.83a1.81,1.81,0,0,1-1.8-.94,21.93,21.93,0,0,0-9.66-9.65A1.81,1.81,0,0,1,127.41,75a25.54,25.54,0,0,1,11.33,11.22,1.83,1.83,0,0,1-.74,2.46A1.8,1.8,0,0,1,137.34,88.83Z"/><path id="_Compound_Path_5" data-name="&lt;Compound Path&gt;" class="cls-6" d="M299.11,159.24c.79-1.43,1.61-2.91,2.34-4.4a46.05,46.05,0,0,0-9.71-52.36c-2.05-1.92-4.32-3.68-6.51-5.37-4.62-3.59-9-7-11.49-11.77-2.86-5.47-2.81-11.8-2.76-18.5,0-2.88,0-5.86-.18-8.77A49.94,49.94,0,0,0,244,18.15c-9.76-4.91-21.37-6.66-33.56-5.07-7.88,1-19.1,4-27.85,12-8,7.37-12,17.82-10.77,27.46-3.29.09-6.55.2-9.76.36A56.27,56.27,0,0,0,55.27,57.73a113.24,113.24,0,0,0-2.68,16c-1,8.32-1.91,16.17-5.52,23.22-3.18,6.2-8.11,11.11-13.32,16.29a114.72,114.72,0,0,0-9.5,10.28c-7.9,10.07-12,23.18-11.6,36.89S18,187,26.44,196.57c.75.84,1.52,1.67,2.27,2.46a46,46,0,0,1,4.77,5.65c7.15,10.65,3.86,24.59.68,38.07-.36,1.54-.72,3.07-1.06,4.58a154.42,154.42,0,0,0-2.89,50.72c1.41,12.9,4.32,22.47,9.16,30.13,6.29,10,16.45,16.43,26.51,16.89h.28a1.82,1.82,0,0,0-.11-3.62c-8.9-.42-17.94-6.24-23.61-15.21-4.54-7.17-7.27-16.25-8.61-28.58a150.23,150.23,0,0,1,2.82-49.53c.33-1.5.69-3,1.05-4.54,3.2-13.58,6.83-29-1.2-40.93a49.38,49.38,0,0,0-5.14-6.12c-.73-.77-1.49-1.58-2.2-2.38a55.25,55.25,0,0,1-2.05-68.38,112.1,112.1,0,0,1,9.2-9.94c5.19-5.16,10.55-10.5,14-17.21,3.91-7.63,4.92-16.18,5.9-24.45a110.07,110.07,0,0,1,2.58-15.51,52.65,52.65,0,0,1,99.43-5.52c-2.81.17-5.59.38-8.32.64-10.68-12.72-27.8-19.6-43.71-17.5C89.43,38.48,74.79,50.44,69.75,66c-2,6.21-2.59,12.91-3.15,19.39-.9,10.3-1.75,20-7.93,27.33a47.36,47.36,0,0,1-8.15,7,65.9,65.9,0,0,0-6.88,5.61A37.79,37.79,0,0,0,33.3,145.2a52.32,52.32,0,0,0,.61,22.65c3.56,14.48,12.13,27.22,20.6,39l.05.07c2.2,3.06,4.47,6.23,5.37,9.72,1.42,5.51-.58,11.45-2.51,17.19l-.18.55C48.68,259.92,46.92,280,51.7,297.65c3,10.92,11,23.91,24,24.59h.29a1.82,1.82,0,0,0-.1-3.62c-11-.59-18-12.18-20.63-21.92-4.59-16.91-2.85-36.34,5.47-61.15l.19-.55c2-6,4.26-12.7,2.58-19.25-1.07-4.16-3.55-7.61-5.94-10.94l0-.06c-8.26-11.51-16.62-23.91-20-37.77-2.92-11.88-2.16-28.37,8.73-39a62.83,62.83,0,0,1,6.52-5.29,51,51,0,0,0,8.75-7.61c6.93-8.18,7.87-19,8.77-29.37.55-6.27,1.12-12.77,3-18.58A39,39,0,0,1,86,48.86a41.56,41.56,0,0,1,20.63-9c13.91-1.83,28.85,3.78,38.81,14.38-2.85.35-5.65.77-8.37,1.28a1.78,1.78,0,0,0-.52-.5c-14.76-9.33-36.54-5-46.6,9.27-5.1,7.23-7.13,16-8.63,23.65-1.24,6.29-2.28,12.7-3.09,19.06l-.08.66c-.6,4.76-1.22,9.69-3.66,13.58-2,3.17-5,5.5-8.25,8-.81.62-1.66,1.27-2.47,1.92-7.76,6.22-12.28,13-13.45,20.14-1.1,6.75.77,14.31,5.57,22.49,1.72,2.92,3.67,5.74,5.54,8.46A105.77,105.77,0,0,1,68,192.53c6,11.11,8.41,24.89,7.74,43.37-.21,5.78-.68,11.67-1.14,17.36-.75,9.23-1.51,18.77-1.2,28.23.14,4,.5,8.13,2.25,11.86,2.06,4.4,5.89,7.39,10,7.82a1.6,1.6,0,0,0,.38,0,1.82,1.82,0,0,0,0-3.61c-2.81-.29-5.6-2.54-7.1-5.74-1.38-3-1.76-6.32-1.89-10.44-.32-9.25.44-18.69,1.18-27.82.46-5.73.94-11.66,1.15-17.52.69-19.15-1.9-33.51-8.17-45.22a112.79,112.79,0,0,0-6.76-10.63c-1.84-2.67-3.74-5.43-5.4-8.24-4.36-7.42-6.08-14.16-5.11-20.05,1-6.23,5.1-12.26,12.13-17.9.79-.63,1.61-1.26,2.41-1.87,3.33-2.56,6.78-5.2,9.12-8.92,2.86-4.57,3.54-9.9,4.18-15.06l.09-.66c.79-6.27,1.82-12.6,3-18.81,1.43-7.28,3.35-15.61,8-22.26,8.42-11.94,26-16.1,39.05-9.76C118,60,106.3,66.35,98.6,78.44c-9.45,14.81-13.64,40.83-15.29,55l-.15,1.37-4.63-.62a11.27,11.27,0,0,0-8.93,2.27c-3.83,3.11-6,9-6.69,18-.43,5.75.82,10.3,3.73,13.54a14.61,14.61,0,0,0,9.4,4.59,19.36,19.36,0,0,0,3.19.48,11.83,11.83,0,0,0,1.9,0l.2,0a174.54,174.54,0,0,0,1.34,19.31c1.89,14.07,6.37,41.24,15.11,65.12,10.72,29.3,24.56,45.06,41.16,46.85a281.52,281.52,0,0,0,57.58.25c15.83-1.73,28.67-5.17,33.94-10.48,2.43-1.35,6.95-6.5,10.32-11.92a62,62,0,0,0,9.41-31.62c.21-12.26-.09-24.81-.32-34.88-.27-11.19-.48-20,.09-23,.69-3.5-.85-17.71-2.54-30.88,1-.3,2.33-.79,4.26-1.56,7.11-2.75,15-8.41,12.28-19.71-.62-2.55-1-4.88-1.29-6.94-1-6.74-1.82-12-11-13.61l-8.94-1.51c-1.11-19.77-2.26-36.12-4.46-40.3-1.62-3.09-7-9.91-17.13-15.88a72.81,72.81,0,0,0-31.62-9.69,16.59,16.59,0,0,1,10-6.11c4.92-1.06,10.15-.43,14.61.33,5.21.88,12.89,2.51,19.39,6.44,6.18,3.74,10.56,9.25,12,15.11,1.3,5.24.45,10.67-.45,16.42-.28,1.76-.56,3.59-.77,5.4-.71,5.91-.79,16.68,6.54,22.48a27.1,27.1,0,0,0,5.6,3.2c1,.48,1.95.92,2.86,1.43,6.69,3.73,11.45,11.19,12.44,19.46.92,7.69-1.23,15.9-6,23.12-.7,1-1.48,2.13-2.24,3.17-3,4.09-6.05,8.33-6.36,13.62-.21,3.68,1,7.15,2.38,10.69.56,1.42,1.13,2.85,1.69,4.28,4.11,10.36,8.36,21.07,8.9,32.12.37,7.62-1,15.54-2.38,23.21-2.07,11.82-4.22,24,0,35.58a26.93,26.93,0,0,0,6.47,10.11,17.33,17.33,0,0,0,10.81,5.05,1.06,1.06,0,0,0,.31,0,1.81,1.81,0,0,0-.08-3.61c-4.46-.29-10.83-3.81-14.1-12.79-3.87-10.62-1.9-21.83.19-33.7,1.39-7.86,2.81-16,2.42-24-.56-11.65-4.92-22.64-9.14-33.28q-.85-2.13-1.68-4.26c-1.28-3.27-2.32-6.21-2.14-9.16.24-4.22,2.88-7.85,5.68-11.7.77-1.07,1.58-2.18,2.31-3.29,5.29-7.93,7.65-17,6.63-25.56-1.13-9.4-6.59-17.91-14.27-22.2-1-.57-2.08-1.07-3.09-1.54a24.87,24.87,0,0,1-4.9-2.77c-5.94-4.7-5.8-14-5.19-19.2.21-1.74.49-3.54.76-5.27.92-5.85,1.87-11.9.39-17.86-1.69-6.79-6.67-13.11-13.66-17.34s-15.16-6-20.66-6.91c-4.81-.82-10.47-1.49-16-.3-6,1.3-11,4.82-13.35,9.45-1.43,0-2.89,0-4.39,0,5.83-11.4,18.74-19,32.45-18.92,13.12,0,26.3,6.74,35.25,17.93,3.76,4.7,6.06,9.36,6.82,13.83.72,4.25.18,8.58-.41,13.16s-1.21,9.48-.37,14.29c.69,4,2.4,7.1,4.92,8.89a16.61,16.61,0,0,0,4.22,2c.5.19,1,.35,1.43.54,6.1,2.45,11.1,8.16,15.3,17.48,4.52,10,5.82,18.82,3.84,26.11-1.07,4-3.2,7.81-5.25,11.51-2.95,5.31-6,10.78-6.3,17.09-.33,6.58,2.39,12.55,5,18.32a64.91,64.91,0,0,1,4,10.27c2,7.7.94,16-.11,24.07-.26,2-.53,4-.75,6.07-1.52,14,.7,24.1,6.77,30.82,4.24,4.69,9.11,5.95,12.73,5.55a10.82,10.82,0,0,0,1.48-.27,1.81,1.81,0,1,0-.91-3.51c-4.07,1.06-8.25-1.61-10.6-4.21-5.34-5.91-7.26-15.06-5.86-28,.22-2,.48-4,.74-6,1.1-8.39,2.23-17.07,0-25.47a68.94,68.94,0,0,0-4.21-10.84c-2.56-5.63-5-10.94-4.69-16.64.27-5.46,3-10.34,5.84-15.51,2.16-3.89,4.4-7.92,5.59-12.32,2.2-8.12.84-17.72-4-28.55-4.6-10.21-10.25-16.55-17.26-19.36-.52-.21-1.05-.4-1.56-.58a14.28,14.28,0,0,1-3.34-1.53c-2.18-1.54-3.08-4.41-3.45-6.54-.74-4.27-.18-8.61.4-13.21s1.21-9.45.39-14.24c-.86-5.08-3.41-10.29-7.57-15.48-9.63-12-23.86-19.24-38.07-19.29-15.42-.06-29.94,8.72-36.15,21.82a1.81,1.81,0,0,0-.18.82l-1.69,0c-1.28-8.59,2.38-18,9.59-24.69,8-7.44,18.5-10.15,25.85-11.12,11.47-1.5,22.35.13,31.46,4.72a46.22,46.22,0,0,1,24.84,37c.21,2.75.19,5.65.17,8.45-.06,6.85-.11,13.94,3.17,20.21,2.88,5.51,7.76,9.29,12.49,13,2.12,1.64,4.32,3.34,6.26,5.15a42.43,42.43,0,0,1,8.91,48.12c-.69,1.41-1.48,2.84-2.25,4.22-2.23,4-4.54,8.18-5,13s1.09,9.27,2.56,13.61c.35,1,.71,2.09,1,3.11a60.63,60.63,0,0,1,2.07,26.53c-.23,1.56-.53,3.16-.81,4.72-.87,4.67-1.77,9.52-1.07,14.43,1,7,6.42,14.12,13.8,13.87h.15a1.82,1.82,0,0,0-.27-3.62c-5.26.17-9.34-5.45-10.08-10.75-.62-4.32.19-8.66,1-13.26.29-1.59.59-3.23.83-4.86A64.18,64.18,0,0,0,298,186.09c-.34-1.08-.7-2.16-1.06-3.2-1.41-4.18-2.74-8.12-2.38-12.13S297,163.09,299.11,159.24Zm-56.19-37.07,8.14,1.38c6.59,1.11,7,3.88,8,10.56.33,2.13.69,4.55,1.35,7.25,1.72,7.12-1.57,12.19-10.08,15.48-1.12.45-2.42.93-3.41,1.26-1.36-10.25-2.69-19.14-3-20.72C243.66,135.44,243.32,129.33,242.92,122.17ZM76.78,169l-.2-.05h-.2a11,11,0,0,1-7.07-3.43c-2.19-2.47-3.13-6.11-2.78-10.81.59-7.83,2.39-13,5.36-15.43a7.69,7.69,0,0,1,6.16-1.49l4.73.63a301.8,301.8,0,0,0-1.49,30.9A10.58,10.58,0,0,1,76.78,169ZM180.4,56h.66c17.76-.42,30.58,4.89,38.22,9.41C228.67,71,233.7,77.28,235,79.83c2.13,4.06,3.44,27.75,4.22,41.89.43,7.86.78,14.06,1.14,16.25.65,3.91,2,12.91,3.2,22.5v0C245.36,174.15,247,189,246.4,192c-.65,3.34-.45,11.91-.17,23.77.24,10,.54,22.54.33,34.73-.4,24-15.39,38.85-17.69,40.36l-.38,0-.46.49c-4.25,4.5-16.59,8.07-33.86,9.79a279.21,279.21,0,0,1-54.84-.46c-15.11-1.63-27.94-16.6-38.14-44.49-8.62-23.56-13-50.43-14.92-64.35a179.24,179.24,0,0,1-1.34-21.06c0-.52,0-1,0-1.54a299.86,299.86,0,0,1,1.61-32h0c0-.14,0-.28,0-.42,2.35-22.23,7.24-44.14,15.09-56.45C111.3,65.26,128.18,59.82,148,57.64,158.24,56.52,169.21,56.27,180.4,56Z"/><path id="_Compound_Path_6" data-name="&lt;Compound Path&gt;" class="cls-6" d="M199.39,273c-.09-.4-2.22-10-10.76-13.13-7-2.54-11.73-.08-14.87,1.55-.66.35-1.29.67-1.82.89-2.45,1-6.31-.68-14.56-4.73a12.23,12.23,0,0,0-13.4,1.27c-3,2.44-4.52,5.95-3.79,8.94.63,2.53,5.22,8.95,13.49,13.07a39.59,39.59,0,0,0,22.24,3.56,57.88,57.88,0,0,0,9.77-2,72.47,72.47,0,0,0,8.55-3.08c2.28-1,4.49-4.36,4.91-5l.39-.63Zm-53.13-11.32a8.74,8.74,0,0,1,4.41-1.85,9.25,9.25,0,0,1,5.11,1c8.75,4.31,13.51,6.49,17.53,4.85.69-.29,1.39-.65,2.12-1,3-1.58,6.46-3.36,12-1.36a12.28,12.28,0,0,1,5.91,4.81,16.53,16.53,0,0,0-2.92.36c-1.77.34-3.54.75-5.25,1.15-2.53.58-5.15,1.19-7.73,1.57-4.89.72-8.92.49-12.31-.71a36.17,36.17,0,0,1-5.81-2.9c-2.85-1.63-5.8-3.32-9.24-3.9a15.29,15.29,0,0,0-5.64.12A7.81,7.81,0,0,1,146.26,261.69Zm46.55,14.36c-10,4.27-24.55,8-37.52,1.56-6.61-3.29-10.22-8-11.26-10a11.8,11.8,0,0,1,5.41-.38c2.79.47,5.34,1.93,8,3.48a40.09,40.09,0,0,0,6.4,3.16,27.5,27.5,0,0,0,12.35,1.1c.56-.06,1.13-.13,1.71-.22,2.71-.4,5.4-1,8-1.62,1.68-.4,3.43-.8,5.13-1.13,1.5-.29,3.14-.5,4.24.06.15.38.25.71.33,1A10.27,10.27,0,0,1,192.81,276.05Z"/></svg>