<?xml version="1.0" encoding="utf-8"?>
<!-- Generator: Adobe Illustrator 22.0.1, SVG Export Plug-In . SVG Version: 6.00 Build 0)  -->
<svg version="1.1" id="Layer_1" xmlns="http://www.w3.org/2000/svg" xmlns:xlink="http://www.w3.org/1999/xlink" x="0px" y="0px"
	 viewBox="0 0 260.9 260.2" style="enable-background:new 0 0 260.9 260.2;" xml:space="preserve">
<style type="text/css">
	.st0{opacity:0.81;}
	.st1{fill:#E86471;}
	.st2{fill:#EE8B94;}
	.st3{fill:#F3B1B8;}
	.st4{fill:#F9D8DB;}
</style>
<g class="st0">
	<g id="XMLID_136_">
		<path class="st4" d="M123.9,147.6c-1.6,0-3.3-0.1-4.9-0.6c-3.5-1-6.2-3.4-7-6.4c-0.9-3.4,0.6-6.3,2-9.2c0.8-1.5,1.5-3,1.9-4.5
			c0.9-3.8-0.6-8.1-1.8-11.5c-0.3-0.7,0.1-1.5,0.9-1.8c0.7-0.3,1.5,0.1,1.8,0.9c1.4,3.8,3,8.5,1.9,13.2c-0.4,1.8-1.3,3.5-2.1,5.1
			c-1.3,2.5-2.4,4.9-1.8,7.3c0.5,2,2.5,3.7,5,4.4c2.5,0.7,5.2,0.5,7.9,0.3l4.9-0.4c3.3-0.2,7.1-0.5,10.2-2.2c2.6-1.4,5-4.4,4.5-7.5
			c-0.4-2.5-2.5-4.3-4.6-6.3c-0.7-0.7-1.5-1.4-2.2-2.1c-6.7-7-7.9-18.4-2.7-26.6c0.4-0.7,1.3-0.9,2-0.4c0.7,0.4,0.9,1.3,0.4,2
			c-4.4,7-3.4,17.2,2.4,23.1c0.6,0.7,1.3,1.3,2.1,2c2.4,2.2,4.9,4.5,5.5,7.9c0.8,4.6-2.5,8.6-5.9,10.4c-3.6,1.9-7.7,2.2-11.3,2.5
			l-4.9,0.4C126.6,147.5,125.3,147.6,123.9,147.6z"/>
	</g>
	<g id="XMLID_135_">
		<path class="st4" d="M98.5,105.8c-0.8,0-1.5,0-2.3-0.1c-4.8-0.3-8.1-1.8-9.8-4.5c-1.7-2.8-1.8-7.4,1.6-11c2.2-2.4,5.5-3.9,9.8-4.5
			c3.6-0.5,7.3-0.4,10.8,0.3c0.4,0.1,0.8,0.4,1,0.8c2.1,0.9,4.5,2,6.3,3.8c1.8,1.9,3.2,5,2,7.9c-1.1,2.7-3.9,4-5.9,4.8
			C107.7,104.9,103.1,105.8,98.5,105.8z M102.3,88.2c-1.4,0-2.7,0.1-4.1,0.3c-3.6,0.5-6.4,1.8-8.2,3.6c-2.3,2.5-2.4,5.7-1.3,7.5
			c1.2,1.9,3.8,3,7.6,3.2c4.9,0.3,10-0.5,14.6-2.2c2.4-0.9,3.7-1.9,4.2-3.2c0.7-1.7-0.3-3.7-1.4-4.9c-1.5-1.5-3.5-2.4-5.5-3.3
			c-0.3-0.1-0.5-0.3-0.7-0.6C105.9,88.4,104.1,88.2,102.3,88.2z"/>
	</g>
	<g id="XMLID_134_">
		<path class="st4" d="M168.9,93.2c-3.2,0-6.5-0.5-9.6-1.4c-1.7-0.5-3.6-1.2-4.8-2.9c-1.5-2.1-1.3-5.3,0.5-7.5
			c1.3-1.5,3.2-2.6,5.4-3c0.2-0.3,0.5-0.5,0.8-0.6c5-1.2,10.5-0.9,15.3,0.8c3.4,1.2,5.4,3.1,5.9,5.5c0.5,2.3-0.6,4.9-2.8,6.5
			c-1.9,1.4-4.3,1.9-6.1,2.2C172.1,93,170.5,93.2,168.9,93.2z M162.8,80.4c-0.2,0.4-0.6,0.6-1,0.7c-1.1,0.1-3.2,0.6-4.5,2.1
			c-1,1.2-1.2,3-0.4,4c0.7,1,2,1.5,3.3,1.8c4.3,1.2,8.8,1.6,13.2,0.9c1.5-0.2,3.4-0.6,4.8-1.6c1.2-0.9,1.9-2.4,1.7-3.6
			c-0.4-1.7-2.4-2.8-4.1-3.4C171.6,79.9,167.1,79.6,162.8,80.4z"/>
	</g>
	<g id="XMLID_133_">
		<path class="st4" d="M82.1,107.7c-0.8,0-1.4-0.6-1.4-1.4c0-0.8,0.6-1.4,1.4-1.5c2.3-0.1,4.5-1.2,5.8-3c0.5-0.6,1.4-0.7,2-0.3
			c0.6,0.5,0.7,1.4,0.3,2C88.3,106,85.3,107.5,82.1,107.7C82.2,107.7,82.1,107.7,82.1,107.7z"/>
	</g>
	<g id="XMLID_132_">
		<path class="st4" d="M87.3,110.8c-0.6,0-1.2-0.4-1.4-1c-0.2-0.7,0.2-1.5,0.9-1.8c1.9-0.6,3.4-2.2,3.8-4.1c0.2-0.8,0.9-1.2,1.7-1.1
			c0.8,0.2,1.2,0.9,1.1,1.7c-0.7,2.9-2.9,5.3-5.8,6.2C87.6,110.8,87.4,110.8,87.3,110.8z"/>
	</g>
	<g id="XMLID_131_">
		<path class="st4" d="M92.6,112.4c-0.4,0-0.8-0.2-1.1-0.5c-0.5-0.6-0.5-1.5,0.1-2c1.6-1.4,2.7-3.3,3.1-5.3c0.2-0.8,0.9-1.2,1.7-1.1
			c0.8,0.2,1.2,0.9,1.1,1.7c-0.6,2.6-2,5-4,6.7C93.3,112.3,92.9,112.4,92.6,112.4z"/>
	</g>
	<g id="XMLID_130_">
		<path class="st4" d="M98.7,111.6c-0.4,0-0.8-0.2-1.1-0.5c-0.5-0.6-0.4-1.5,0.2-2c1.2-1,1.9-2.5,1.9-4c0-0.8,0.7-1.4,1.5-1.4
			c0.8,0,1.4,0.7,1.4,1.5c-0.1,2.3-1.2,4.6-3,6C99.3,111.5,99,111.6,98.7,111.6z"/>
	</g>
	<g id="XMLID_129_">
		<path class="st4" d="M104.6,110.2c-0.2,0-0.3,0-0.5-0.1c-0.7-0.3-1.1-1.1-0.9-1.8c0.4-1.1,0.5-2.3,0.4-3.4
			c-0.1-0.8,0.5-1.5,1.2-1.6c0.8-0.1,1.5,0.5,1.6,1.2c0.2,1.6,0,3.2-0.5,4.6C105.7,109.8,105.2,110.2,104.6,110.2z"/>
	</g>
	<g id="XMLID_128_">
		<path class="st4" d="M188,94.3c0,0-0.1,0-0.1,0c-3.5-0.3-6.7-1.9-9.2-4.3c-0.6-0.6-0.6-1.4,0-2c0.6-0.6,1.4-0.6,2,0
			c2,2,4.7,3.3,7.4,3.5c0.8,0.1,1.3,0.8,1.3,1.5C189.4,93.8,188.8,94.3,188,94.3z"/>
	</g>
	<g id="XMLID_127_">
		<path class="st4" d="M182.1,98c-0.1,0-0.2,0-0.3,0c-3.3-0.7-6.2-3.2-7.4-6.4c-0.3-0.7,0.1-1.5,0.8-1.8c0.7-0.3,1.5,0.1,1.8,0.8
			c0.9,2.3,3,4.1,5.4,4.6c0.8,0.2,1.3,0.9,1.1,1.7C183.4,97.5,182.8,98,182.1,98z"/>
	</g>
	<g id="XMLID_126_">
		<path class="st4" d="M174.4,99.5c-0.3,0-0.5-0.1-0.8-0.2c-2.4-1.6-4.2-4.1-4.9-7c-0.2-0.8,0.3-1.5,1-1.7c0.8-0.2,1.5,0.3,1.7,1
			c0.5,2.1,1.9,4.1,3.7,5.3c0.7,0.4,0.8,1.3,0.4,2C175.3,99.3,174.8,99.5,174.4,99.5z"/>
	</g>
	<g id="XMLID_125_">
		<path class="st4" d="M167.8,99c-0.2,0-0.5-0.1-0.7-0.2c-2.6-1.5-4.4-4.2-4.8-7.1c-0.1-0.8,0.4-1.5,1.2-1.6
			c0.8-0.1,1.5,0.4,1.6,1.2c0.3,2.1,1.6,4,3.4,5.1c0.7,0.4,0.9,1.3,0.5,1.9C168.7,98.8,168.3,99,167.8,99z"/>
	</g>
	<g id="XMLID_124_">
		<path class="st4" d="M155.7,74.1c-0.8,0-1.4-0.6-1.4-1.4c0-4.2,1.8-8.3,5.1-11c0.6-0.5,1.5-0.4,2,0.2c0.5,0.6,0.4,1.5-0.2,2
			c-2.5,2.1-4.1,5.5-4,8.8C157.1,73.4,156.5,74.1,155.7,74.1C155.7,74.1,155.7,74.1,155.7,74.1z"/>
	</g>
	<g id="XMLID_123_">
		<path class="st4" d="M160.2,71c-0.3,0-0.5-0.1-0.8-0.2c-0.6-0.4-0.8-1.3-0.4-2c1.8-2.7,4.4-5,7.3-6.5c0.7-0.4,1.5-0.1,1.9,0.6
			c0.4,0.7,0.1,1.5-0.6,1.9c-2.5,1.3-4.7,3.2-6.2,5.5C161.1,70.8,160.7,71,160.2,71z"/>
	</g>
	<g id="XMLID_122_">
		<path class="st4" d="M167,69.6c-0.4,0-0.7-0.1-1-0.4c-0.5-0.6-0.5-1.5,0-2c2.1-2.1,4.8-3.6,7.7-4.3c0.8-0.2,1.5,0.3,1.7,1
			c0.2,0.8-0.3,1.5-1,1.7c-2.4,0.6-4.7,1.9-6.5,3.6C167.7,69.5,167.4,69.6,167,69.6z"/>
	</g>
	<g id="XMLID_121_">
		<path class="st4" d="M174,69.4c-0.4,0-0.9-0.2-1.1-0.6c-0.5-0.6-0.3-1.5,0.3-2c2.3-1.7,5.4-2.6,8.3-2.4c0.8,0.1,1.4,0.7,1.3,1.5
			c-0.1,0.8-0.7,1.4-1.5,1.3c-2.2-0.2-4.6,0.5-6.4,1.8C174.6,69.3,174.3,69.4,174,69.4z"/>
	</g>
	<g id="XMLID_120_">
		<path class="st4" d="M179.7,71.1c-0.6,0-1.2-0.4-1.4-1c-0.2-0.7,0.2-1.5,0.9-1.8c2.4-0.7,5-0.8,7.4-0.1c0.8,0.2,1.2,1,1,1.8
			s-1,1.2-1.8,1c-1.9-0.5-3.9-0.5-5.8,0C180,71,179.9,71.1,179.7,71.1z"/>
	</g>
	<g id="XMLID_119_">
		<path class="st4" d="M190,74.9C190,74.9,189.9,74.9,190,74.9l-4.8-0.2c-0.8,0-1.4-0.7-1.3-1.5c0-0.8,0.7-1.4,1.5-1.3l4.7,0.2
			c0.8,0,1.4,0.7,1.3,1.5C191.4,74.3,190.7,74.9,190,74.9z"/>
	</g>
	<g id="XMLID_118_">
		<path class="st4" d="M118.4,78.5c-0.6,0-1.2-0.4-1.4-1c-1-3.2-2.7-6.3-4.9-8.8c-0.5-0.6-0.5-1.5,0.1-2c0.6-0.5,1.5-0.5,2,0.1
			c2.5,2.8,4.4,6.2,5.4,9.8c0.2,0.7-0.2,1.5-0.9,1.8C118.7,78.5,118.5,78.5,118.4,78.5z"/>
	</g>
	<g id="XMLID_117_">
		<path class="st4" d="M113.2,76.9c-0.5,0-0.9-0.2-1.2-0.7c-1.7-2.8-3.5-5.4-6.2-6.2c-0.8-0.2-1.2-1-1-1.8c0.2-0.8,1-1.2,1.8-1
			c3.6,1,5.8,4.2,7.8,7.4c0.4,0.7,0.2,1.5-0.5,1.9C113.7,76.8,113.5,76.9,113.2,76.9z"/>
	</g>
	<g id="XMLID_116_">
		<path class="st4" d="M107.3,75.3c-0.4,0-0.8-0.2-1.1-0.5c-1.8-2-4.3-3.4-6.9-3.9c-0.8-0.1-1.3-0.9-1.1-1.7
			c0.1-0.8,0.9-1.3,1.7-1.1c3.3,0.6,6.3,2.3,8.5,4.8c0.5,0.6,0.5,1.5-0.1,2C108,75.2,107.6,75.3,107.3,75.3z"/>
	</g>
	<g id="XMLID_115_">
		<path class="st4" d="M101.7,76.2c-0.2,0-0.5-0.1-0.7-0.2c-2.3-1.3-4.9-2.1-7.6-2.2c-0.8,0-1.4-0.7-1.4-1.5c0-0.8,0.7-1.4,1.5-1.4
			c3.1,0.1,6.2,1,8.9,2.6c0.7,0.4,0.9,1.3,0.5,1.9C102.7,75.9,102.2,76.2,101.7,76.2z"/>
	</g>
	<g id="XMLID_114_">
		<path class="st4" d="M95.7,78.6c-0.1,0-0.2,0-0.4-0.1c-1.8-0.5-3.7-0.6-5.5-0.2c-0.8,0.1-1.5-0.4-1.7-1.1
			c-0.1-0.8,0.4-1.5,1.1-1.7c2.2-0.4,4.6-0.3,6.8,0.3c0.8,0.2,1.2,1,1,1.7C96.8,78.2,96.3,78.6,95.7,78.6z"/>
	</g>
	<g id="XMLID_113_">
		<path class="st4" d="M86.6,82.7c-0.6,0-1.2-0.4-1.4-1.1c-0.2-0.8,0.3-1.5,1.1-1.7c1.5-0.3,3-0.5,4.6-0.5c0.8,0,1.4,0.6,1.4,1.4
			c0,0.8-0.6,1.4-1.4,1.4c-1.3,0-2.6,0.1-3.9,0.4C86.8,82.7,86.7,82.7,86.6,82.7z"/>
	</g>
	<g id="XMLID_112_">
		<path class="st4" d="M113.1,191.7c-0.7,0-1.3-0.5-1.4-1.3c-0.1-0.8,0.5-1.5,1.3-1.5c1.5-0.1,2.9-1.2,4.2-2.2l0.2-0.1
			c1.5-1.2,3.1-2.5,5.2-3c2.1-0.4,3.9,0.2,5,1.3c0.1-0.2,0.1-0.3,0.2-0.5c0.2-0.4,0.3-0.9,0.6-1.3c1.6-3,5.4-3.9,8.4-3.4
			c1.9,0.3,3.6,0.9,5.2,1.6c0.9,0.3,1.7,0.7,2.6,0.9c4.1,1.3,8.7,1.2,12.7-0.3c0.7-0.3,1.5,0.1,1.8,0.8c0.3,0.7-0.1,1.5-0.8,1.8
			c-4.7,1.7-9.8,1.9-14.6,0.4c-0.9-0.3-1.9-0.7-2.8-1c-1.6-0.6-3.1-1.2-4.6-1.4c-2-0.3-4.6,0.2-5.5,2c-0.2,0.3-0.3,0.6-0.4,1
			c-0.4,1.1-1,2.5-2.5,3.1l-1.5,0.6l-0.4-1.6c-0.3-1-1.8-1.5-2.9-1.2c-1.4,0.3-2.7,1.3-4,2.4l-0.2,0.1c-1.6,1.3-3.4,2.6-5.7,2.9
			C113.2,191.7,113.2,191.7,113.1,191.7z"/>
	</g>
	<g id="XMLID_111_">
		<path class="st4" d="M136.3,201.8c-3.3,0-6.9-0.5-10.5-1.4c-6.9-1.7-11.7-4.8-14.1-9c-0.4-0.7-0.2-1.5,0.5-1.9
			c0.7-0.4,1.5-0.2,1.9,0.5c2,3.5,6.2,6.1,12.3,7.7c6.9,1.7,13.1,1.7,18.4,0c6.1-2,11.1-6.5,12.9-11.8c0.1-0.4,0.3-0.9,0.2-1.2
			c0,0,0-0.1,0-0.1c-0.7,0.1-1.4-0.4-1.5-1.1c-0.2-0.8,0.3-1.5,1.1-1.7c1.4-0.3,2.8,0.7,3.2,2.1c0.3,1,0,2-0.3,2.9
			c-2.1,6.2-7.6,11.3-14.7,13.6C142.8,201.4,139.6,201.8,136.3,201.8z"/>
	</g>
	<g id="XMLID_110_">
		<path class="st4" d="M127.1,193.3c-0.8,0-1.6-0.1-2.3-0.1l-11.9-0.9c-0.8-0.1-1.4-0.7-1.3-1.5c0.1-0.8,0.7-1.4,1.5-1.3l11.9,0.9
			c1.3,0.1,2.7,0.2,4-0.1c0.7-0.2,1.5-0.5,2.2-0.8c0.5-0.2,0.9-0.4,1.4-0.6c2.7-0.9,5.5-1.1,8.2-1.2c1.1-0.1,2.3-0.1,3.3-0.2
			c4.6-0.5,9.2-2,13.1-4.6c0.7-0.4,1.5-0.2,2,0.4c0.4,0.7,0.2,1.5-0.4,2c-4.3,2.8-9.3,4.5-14.4,5c-1.2,0.1-2.4,0.2-3.5,0.2
			c-2.6,0.1-5.1,0.2-7.4,1c-0.4,0.1-0.9,0.3-1.3,0.5c-0.9,0.4-1.7,0.7-2.7,0.9C128.7,193.3,127.9,193.3,127.1,193.3z"/>
	</g>
	<g id="XMLID_109_">
		<path class="st4" d="M141.3,224.9c-1.8,0-3.6-0.1-5.5-0.2c-9.1-0.8-17.8-3.5-26.3-6.1c-11.4-3.5-22.4-7.1-32.7-12.2
			c-11.8-5.9-20.5-12.8-26.7-21.4c-4.7-6.5-8.4-14.6-11.1-24.6c-2.3-8.3-3.7-16.8-4.2-25.3c-0.8-13.6,0.7-27,2.4-39.5
			c0.7-5.2,1.5-10.3,3.3-15.1c2.4-6.6,6.4-12.4,10.3-17.9c6.7-9.6,14.3-20.4,25.1-26.9c6-3.6,13.4-6.1,22.5-7.6
			c12.2-2,24.6-2.1,36.8-0.1c0.2,0,0.4,0.1,0.6,0.2c0.2,0,0.4,0,0.5,0c18.3,3,36.7,10.8,54.9,23.1c6.7,4.6,15.1,10.9,20.8,19.6
			c8.7,13.4,9.7,30.3,9.5,45.1c-0.4,33.4-6.5,50.6-11.1,60.6c-6.8,15-17.1,27.4-29.7,35.9C168.7,220.6,154.9,224.9,141.3,224.9z
			 M117.2,29.3c-6.1,0-12.2,0.5-18.3,1.5c-8.8,1.5-15.9,3.9-21.5,7.3c-10.4,6.2-17.7,16.8-24.3,26.1c-3.8,5.4-7.7,11-10,17.3
			c-1.7,4.6-2.4,9.5-3.1,14.6c-1.7,12.3-3.2,25.6-2.4,39c0.5,8.4,1.9,16.7,4.1,24.7c2.7,9.7,6.2,17.4,10.7,23.7
			c5.9,8.1,14.3,14.8,25.7,20.5c10.1,5,21,8.5,32.3,12c8.3,2.6,16.9,5.2,25.7,6c14.7,1.3,30-2.9,43.1-11.7
			c12.2-8.2,22.2-20.3,28.7-34.8c9.3-20.5,10.6-43.8,10.8-59.5c0.3-25.6-4.4-36.4-9.1-43.5c-5.4-8.2-13.5-14.4-20-18.8
			c-17.8-12.1-35.9-19.7-53.7-22.7c-0.2,0-0.4-0.1-0.6-0.2c-0.2,0-0.3,0-0.5,0C129,29.8,123.1,29.3,117.2,29.3z"/>
	</g>
	<g id="XMLID_108_">
		<path class="st4" d="M226.5,260.2c-0.5,0-1-0.3-1.2-0.7c-4.3-7.6-4.6-13.4-4.5-21.5c0.1-8,0.1-16.2,0.8-24.3
			c1.3-15.3,4.7-30.4,8.1-45.1c3.5-15.5,7.2-31.6,8.2-47.6c0.4-6,0.5-13.1-1.7-19.6c-1.6-4.9-4.5-9.3-7.3-13.6l-11.5-17.6
			c-7.1-10.9-14.4-22.1-24.9-30c-10-7.5-28.1-12.3-39.9-7c-0.7,0.3-1.6,0-1.9-0.7c-0.3-0.7,0-1.6,0.7-1.9c5.9-2.6,13.7-3.2,22-1.5
			c7.6,1.5,15.2,4.7,20.7,8.8c10.9,8.2,18.7,20.2,25.6,30.7l11.5,17.6c2.9,4.4,5.9,9,7.6,14.2c2.4,7,2.3,14.4,1.9,20.7
			c-1,16.3-4.7,32.4-8.3,48.1c-3.3,14.6-6.8,29.6-8,44.7c-0.7,8-0.7,16.1-0.8,24c-0.1,7.8,0.2,13,4.2,20.1c0.4,0.7,0.1,1.5-0.5,1.9
			C227,260.1,226.7,260.2,226.5,260.2z"/>
	</g>
	<g id="XMLID_73_">
		<path class="st4" d="M45.1,250.7c-0.3,0-0.6-0.1-0.9-0.3c-16.5-13.3-21.7-35.9-24.1-51.7c-5.6-36-3.7-73.7,5.5-109
			c6.3-24,14.8-40.9,26.7-53.1c11.3-11.5,26.3-19.2,42.3-21.5c13.9-2,39.7-1.3,48.1,14.3c0.4,0.7,0.1,1.5-0.6,1.9
			c-0.7,0.4-1.5,0.1-1.9-0.6c-4-7.4-12.7-10.7-19.4-12.1c-7.7-1.7-17.1-1.9-25.9-0.7c-15.4,2.2-29.8,9.6-40.7,20.6
			c-11.6,11.8-19.9,28.3-26,51.8c-9.1,34.9-11,72.2-5.5,107.9c2.4,15.3,7.4,37.2,23.1,49.9c0.6,0.5,0.7,1.4,0.2,2
			C45.9,250.6,45.5,250.7,45.1,250.7z"/>
	</g>
	<g id="XMLID_72_">
		<path class="st4" d="M17.9,223.4c-0.7,0-1.2-0.5-1.4-1.1C10,192,7.6,160.9,9.4,130c1.8-31.1,7.7-54.8,18.6-74.4
			c13.6-24.7,36-41.9,59.7-46.1c6.2-1.1,13.1-1.4,21.1-1c8.9,0.5,25.4,1.3,31.6,9.4c2.4,3.1,3,7,2,11.5c-0.2,0.8-0.9,1.2-1.7,1.1
			c-0.8-0.2-1.2-0.9-1.1-1.7c0.8-3.7,0.4-6.7-1.5-9.2c-5.4-7.1-21-7.9-29.5-8.3c-7.7-0.4-14.4-0.1-20.4,1
			c-22.9,4-44.5,20.7-57.7,44.6C19.8,76.2,14,99.5,12.2,130.2c-1.8,30.7,0.6,61.5,7,91.5c0.2,0.8-0.3,1.5-1.1,1.7
			C18.1,223.4,18,223.4,17.9,223.4z"/>
	</g>
	<g id="XMLID_71_">
		<path class="st4" d="M4.3,165.7c-0.5,0-1-0.3-1.3-0.8c-3.2-6.5-3.2-13.9-2.9-21.5c0.6-15.1,1.6-30.5,3.1-45.5
			C4,90.3,4.9,82.9,7,75.7c3.6-11.8,10.6-22.4,16.8-31.8c3.8-5.8,8.2-12.4,13.5-17.9c19.1-19.7,51.9-27.2,75.9-26
			c8,0.4,27.2,2.5,32.2,12.7c2.3,4.8,1.2,10.5-3.4,17.1c-0.4,0.6-1.3,0.8-2,0.4c-0.6-0.4-0.8-1.3-0.4-2c3.9-5.7,5-10.5,3.2-14.3
			c-1.7-3.5-5.9-6.3-12.3-8.3c-6.5-2-13.8-2.6-17.5-2.8C89.7,1.7,57.8,9,39.4,28.1c-5.1,5.3-9.2,11.5-13.2,17.4
			c-6.1,9.2-13,19.6-16.5,31c-2.1,6.9-2.9,14.2-3.7,21.6c-1.5,15-2.5,30.3-3.1,45.4c-0.3,7.3-0.3,14.3,2.6,20.2
			c0.3,0.7,0.1,1.5-0.6,1.9C4.7,165.7,4.5,165.7,4.3,165.7z"/>
	</g>
	<g id="XMLID_70_">
		<path class="st4" d="M239.4,235.1c-0.7,0-1.2-0.5-1.4-1.1c-5.4-26.1-5-48.4,1.4-72.4c0.8-3,1.7-6,2.5-8.9
			c1.4-4.7,2.8-9.5,3.9-14.4c1.6-7.2,2.3-14.5,2.3-21.9c0-9-1.3-15.8-4-21.6c-3-6.2-7.6-11.2-12.6-16.5c-4.1-4.3-8.3-8.8-11.4-14
			c-2.3-3.8-3.9-7.8-5.5-11.8c-1.7-4.1-3.4-8.4-5.8-12.1c-5.2-8.2-13.6-14.2-23.1-16.4c-4.1-0.9-11.4-1.5-18.8-0.2
			c-9.5,1.8-12.7,5.6-13.7,8.5c-0.3,0.7-1.1,1.1-1.8,0.9c-0.7-0.3-1.1-1.1-0.9-1.8c1.8-5.2,7.3-8.8,15.8-10.4
			c6.4-1.2,14.2-1.1,19.9,0.2c10.2,2.3,19.3,8.8,24.9,17.6c2.5,4,4.3,8.4,6,12.6c1.6,3.9,3.2,7.8,5.3,11.4c3,4.9,7.1,9.3,11,13.5
			c4.9,5.2,9.9,10.6,13.1,17.2c2.9,6.1,4.3,13.4,4.3,22.8c0,7.5-0.8,15.1-2.4,22.5c-1.1,4.9-2.5,9.8-3.9,14.6
			c-0.9,2.9-1.7,5.9-2.5,8.8c-6.3,23.6-6.7,45.5-1.4,71.1c0.2,0.8-0.3,1.5-1.1,1.7C239.6,235.1,239.5,235.1,239.4,235.1z"/>
	</g>
	<g id="XMLID_69_">
		<path class="st4" d="M258.6,211.3c-0.4,0-0.7-0.1-1-0.4c-5.9-6.2-6.7-15-7.1-24.3c-0.3-7.5-0.6-15.4,0.1-23.1
			c0.6-7.3,2.2-14.8,3.6-21.9c2.8-13.7,5.5-26.6,2.7-39.6c-1.5-6.8-4.5-13.4-8.8-18.9c-2.8-3.6-6.1-6.8-9.3-9.9
			c-4.7-4.5-9.5-9.2-12.8-15.1c-2.2-3.8-3.6-8-5-12c-1.1-3.3-2.3-6.7-3.8-9.8c-5-10.1-14.6-17.8-25.6-20.6c-6.4-1.6-23.4-5.9-32.2,1
			c-3.9,3.1-5.9,8.1-5.9,15c0,0.8-0.6,1.4-1.4,1.4c-0.8,0-1.4-0.6-1.4-1.4c0-7.8,2.4-13.6,7-17.3c9.9-7.7,27.3-3.4,34.7-1.5
			c11.8,3,22,11.2,27.4,22.1c1.6,3.3,2.8,6.8,4,10.2c1.3,3.9,2.7,7.9,4.7,11.5c3.1,5.5,7.6,9.8,12.3,14.4c3.3,3.2,6.7,6.5,9.6,10.2
			c4.5,5.8,7.8,12.8,9.4,20c3,13.6,0.1,27.4-2.7,40.8c-1.5,7.1-3,14.4-3.6,21.6c-0.7,7.5-0.3,15.2-0.1,22.7
			c0.3,8.7,1.1,16.9,6.3,22.4c0.5,0.6,0.5,1.5-0.1,2C259.3,211.2,259,211.3,258.6,211.3z"/>
	</g>
</g>
</svg>
