<svg id="Layer_1" data-name="Layer 1" xmlns="http://www.w3.org/2000/svg" viewBox="0 0 314.66 386.23"><defs><style>.cls-1{fill:#fff;}.cls-2{fill:#d9d8d6;}.cls-3{fill:#00b7af;}.cls-4{fill:#001e2d;}.cls-5{fill:#ee2346;}</style></defs><title>cara2</title><path id="_Path_" data-name="&lt;Path&gt;" class="cls-1" d="M105.12,4C114.43,6.35,128.07-1,131.51.13s42.16,16.09,53.05,28.38,14.51,15,20.68,18.74,24.62,17.58,26,26.87,32.57,22.82,35.24,45.47,6,24.07,10.55,22,10-7.12,14.37-3.3S319,157.77,314,165.47s-8.21,11.83-9.41,20.33.77,35.22-9.25,35.8-21.79-4.21-20.55,9.37-6.32,57.36-11.54,63.46-14,20-17,24.76-9.49,18.38-18.12,25.75-41.67,34.61-52.28,36.28-73.68,12.44-108.51-4-39.92-33.12-41-44.81-14.61-19.32-11.7-40.85,17.21-78.75,10.53-84.12-23.5-9.67-19-19.14S1.35,172.82.22,167.45,2.36,149,8.28,142.61s-7.94-30-2.14-51.94S18.62,50.61,27.7,41.46,50.64,7.69,59.72,6,92.79.94,105.12,4Z"/><g id="_Group_" data-name="&lt;Group&gt;"><path class="cls-2" d="M70.53,67.2c4.65-3.87,11.24-4.12,17.3-4.06A401.07,401.07,0,0,1,188.74,77.25c1,6-4.39,11.36-10.17,13.17s-12,1.25-18,2.08c-17.15,2.37-31.06,16.3-37.62,32.33-3.88,9.49-6.48,20.89-15.53,25.71-5.54,2.94-12.3,2.6-18,5.15-8.16,3.62-12.82,12.49-14.57,21.25s-1.22,17.8-2.27,26.67c-3.34,28.09-22.45,53.93-19.17,82,2.24,19.15,15,35.87,30.73,47,13.39,9.42,31.18,15.39,46.11,8.65,9.58-4.32,16.28-13.06,24.31-19.84a70.31,70.31,0,0,1,52.27-16c4.93.54,10.25,1.88,13.17,5.89,4.31,5.9,1.23,14.31-3,20.24-9.09,12.64-22.67,21.25-36.4,28.56-8.89,4.73-18.07,9.09-27.86,11.4-16.82,4-34.41,1.69-51.52-.73-11.59-1.64-23.33-3.39-34.06-8.06S46.54,350,42.3,339.12c-1.82-4.68-2.56-9.72-4.21-14.47-2.93-8.44-8.69-15.87-10.38-24.65-1.15-6-.3-12.22.55-18.29q9.63-68.56,19.27-137.12c1.29-9.23,2.62-18.59,6.24-27.18,1.64-3.89,3.75-7.67,4.36-11.84.44-3,.09-6,.15-9a32.82,32.82,0,0,1,5.94-18.1Z"/></g><path id="_Path_2" data-name="&lt;Path&gt;" class="cls-3" d="M184.93,111.38c-4.36-4.79-3.06-8.79,5.08-10.46s4.57.22,14.3-.44,26.58-1.38,25.56,6.39S219,111,206.82,110.23s-10.13,3.47-13.47,3.25A38.3,38.3,0,0,1,184.93,111.38Z"/><path id="_Path_3" data-name="&lt;Path&gt;" class="cls-3" d="M14.78,124.71c2.83,18.3,13.87,33.4,17.77,32.6s9.57-17.89,12.18-30.2S52,109.94,52,98.37s1-28.45,6.45-31.72,20-8.73,28.3-11.34c20.57-6.45,106.76,12.08,126.75,21.94,0,0,4.46-3.15-1.22-6.88S153.75,20.78,137.06,19,90.58,21.45,83,16.76s-21.24-.21-27.34,5.67-37.14,39.32-40.73,63S14.78,124.71,14.78,124.71Z"/><path id="_Path_4" data-name="&lt;Path&gt;" class="cls-3" d="M77.07,86.63s35.51-5,43.68,1.2S136,82.38,131.32,78.9,91.78,59.29,76.09,75.74,77.07,86.63,77.07,86.63Z"/><path id="_Path_5" data-name="&lt;Path&gt;" class="cls-3" d="M63,278.93c5.6-5.14,14.17-2.07,17.94-7.3s17-7.48,23.56-5.84,55.45,13.91,54,25.24-1.22,17.84-9.49,16.74-26.49-7.55-38.91-9.72-22.8-2.29-27.38-.52S47.07,293.52,63,278.93Z"/><path id="_Compound_Path_" data-name="&lt;Compound Path&gt;" class="cls-4" d="M39.6,145.39c0,.26-.09.51-.14.78.43.37.73.65.87.78a2.19,2.19,0,0,1,.45.61Z"/><path id="_Compound_Path_2" data-name="&lt;Compound Path&gt;" class="cls-4" d="M76.26,135c-2.58-.64-5.58-1.88-6.52-4.58-.75-2.16,0-4.55,2.34-7.1,6.52-7.21,8.49-9.39,18.53-9.41,9.45,0,16.93.22,20.11,3.41a5.1,5.1,0,0,1,1.53,3.7c0,6-6.81,12.87-8.54,14.08-2.44,1.72-7.71,3.31-14.49,2.15-2.09-.36-3.86-.64-5.42-.89-1.75-.28-3.13-.5-4.26-.72h0l-.52-.09C78.28,135.44,77.3,135.27,76.26,135ZM105,119.32c-3.73-.93-10.13-.92-14.35-.91-8.06,0-8.87.92-15.2,7.93-1.34,1.48-1.53,2.34-1.44,2.61s1,1.38,5.79,2.18l.62.11h0c1,.21,2.41.42,4.12.69s3.36.54,5.47.9c5.82,1,9.84-.47,11.15-1.39,1.59-1.12,6.6-6.75,6.63-10.44a.65.65,0,0,0-.23-.51A5.66,5.66,0,0,0,105,119.32Z"/><path id="_Compound_Path_3" data-name="&lt;Compound Path&gt;" class="cls-4" d="M210.85,151.72a11.79,11.79,0,0,1-1.78-.62,85,85,0,0,1-11.86-7c-.84-.57-1.56-1.06-2.1-1.39-.3-.2-.65-.4-1-.61-2.28-1.35-5.11-3-5.41-5.94-.28-2.75.39-4.83,2-6.18,2-1.65,4.93-1.89,9.09-.74,1.27.35,2.8.74,4.41,1.15,10.88,2.76,18.73,5,20.69,9.09a4.41,4.41,0,0,1,.05,3.82C222.47,148.76,216.88,153.22,210.85,151.72Zm-12.8-18.34c-3.19-.79-4.21-.21-4.46,0s-.54,1.13-.42,2.3c.07.65,2.45,2.06,3.23,2.52.4.24.78.47,1.12.69h0c.59.37,1.33.87,2.2,1.45A81.08,81.08,0,0,0,210.91,147c4,1.8,8.11-1.53,9.93-5.58v0c-.09-.19-.81-1.42-5.69-3.22-3.63-1.33-8.11-2.47-12.07-3.48-1.64-.41-3.18-.81-4.5-1.17Z"/><path id="_Compound_Path_4" data-name="&lt;Compound Path&gt;" class="cls-5" d="M134.21,244.35c-10.62-2.65-21-7.59-23.88-9.57l-.11-.07c-4.88-3.38-19.72-13.67-13.53-30.29,2.64-7.08,8.11-12.33,16.26-15.6a50.08,50.08,0,0,1,15.73-3.31c2.25-.1,3-2.33,3.67-7,.14-1,.28-1.85.47-2.62.67-2.78,1.47-38.9,1.34-42.05a2.25,2.25,0,0,1,2.14-2.34,2.23,2.23,0,0,1,2.34,2.12c0,.31-.47,39.35-1.47,43.36-.13.55-.25,1.35-.38,2.19-.54,3.69-1.56,10.55-7.92,10.82-3.74.15-22.63,1.66-28,16-4.41,11.83,4,19.59,11.88,25l.11.08c4.52,3.13,28.17,13.15,38.73,9.87,13-4.05,15.57-9.84,16.39-13.84.12-.63.27-1.29.41-2,1.17-5.52,3.13-14.74-.07-17.08a17.63,17.63,0,0,0-4.35-2.23,17.22,17.22,0,0,1-8.83-6.65c-5.55-7.37-8.07-34.74-8.19-37.61-.13-3.37-1.54-15.23-1.8-16.75a1.73,1.73,0,0,1-.09-.56,2.23,2.23,0,0,1,2.16-2.32c1.35,0,2.16.8,2.41,2.5.06.39.14.95.22,1.63.18,1.39.41,3.25.62,5.11.26,2.28.88,7.85,1,10.22.2,5.11,3.12,29.55,7.29,35.08a13,13,0,0,0,6.87,5.17,21.52,21.52,0,0,1,5.37,2.79c5.55,4.05,3.39,14.21,1.82,21.63-.15.68-.29,1.33-.41,1.94-1.64,8-8,13.67-19.46,17.24C147.91,246.81,141,246.05,134.21,244.35Zm12.4-98a2,2,0,0,0,.79.12A2.11,2.11,0,0,1,146.61,146.31ZM145.22,145a2.23,2.23,0,0,0,.49.78A2.25,2.25,0,0,1,145.22,145Z"/><path id="_Compound_Path_5" data-name="&lt;Compound Path&gt;" class="cls-4" d="M115.32,225.25c-3.87-1-8.49-3-9.67-6a11.86,11.86,0,0,1-.64-7.42c1.23-6.07,4.14-7.83,6.37-8.24,4-.73,14.75,1.07,16.68,7.72,1.23,4.25-.69,8.69-2.71,11.19-1.83,2.29-4.12,3.51-6.26,3.37A21.48,21.48,0,0,1,115.32,225.25Zm2.14-16.75a14.35,14.35,0,0,0-5.27-.47c-1.2.22-2.22,1.94-2.78,4.71a7.61,7.61,0,0,0,.41,4.88c.6,1.5,6.3,3.58,9.57,3.79.5,0,1.48-.48,2.46-1.7,1.71-2.13,2.49-5.06,1.89-7.13S120.29,209.21,117.46,208.5Z"/><path id="_Compound_Path_6" data-name="&lt;Compound Path&gt;" class="cls-4" d="M151.91,235.38a19.62,19.62,0,0,1-2.43-.79c-6.46-2.56-6.62-5.54-6.18-8.88,0-.42.11-.82.13-1.22.26-4.11,1.9-9.66,5.72-12.94,5.11-4.4,11.75.43,15.32,3,5,3.66,1.89,11.35.38,15.05-.19.46-.36.87-.49,1.2a7.42,7.42,0,0,1-4.1,4.12A12.89,12.89,0,0,1,151.91,235.38Zm3.23-21a3.23,3.23,0,0,0-3.07.53c-2.76,2.38-4,6.78-4.16,9.82h0c0,.56-.1,1.07-.16,1.53-.27,2-.35,2.64,3.38,4.11,2.78,1.1,5.44,1.26,7.31.43a3.11,3.11,0,0,0,1.71-1.58c.14-.37.33-.83.54-1.35,1.08-2.63,3.33-8.12,1.14-9.71C159.14,216.25,156.92,214.86,155.14,214.42Z"/><path id="_Path_6" data-name="&lt;Path&gt;" class="cls-4" d="M40.78,147.56a2.19,2.19,0,0,0-.45-.61c-.14-.13-.44-.41-.87-.78,0-.27.1-.52.14-.78Z"/><path id="_Compound_Path_7" data-name="&lt;Compound Path&gt;" class="cls-4" d="M101.28,324.88l-.82-.22c-9.65-2.75-19.69-7.77-22.21-10.42h0c-3.45-3.61-4.65-6.62-3.58-8.93,1.44-3.08,5.85-2.8,7.31-2.7,2.94.18,6.53.27,10.34.37,7.38.18,15,.37,18.88,1.34,1.07.26,2.52.59,4.21,1,9.87,2.2,18.24,4.25,20.82,7,.79.84,2.87,3.07,2.05,5.73s-4.33,3.86-6.85,4.42l-2.13.48C121.78,324.63,110.52,327.19,101.28,324.88Zm-22.47-17.6a10.87,10.87,0,0,0,2.69,3.86h0c1.59,1.66,10.46,6.42,20.19,9.2,8.29,2.38,19.32-.14,26.62-1.8l2.15-.49c2.49-.55,3.28-1.14,3.49-1.34a4.59,4.59,0,0,0-1-1.35c-1.84-2-13.53-4.58-18.52-5.69-1.72-.38-3.2-.72-4.32-1-3.39-.85-11.1-1-17.9-1.21-3.85-.1-7.49-.19-10.52-.38A7.57,7.57,0,0,0,78.81,307.28Z"/><path id="_Path_7" data-name="&lt;Path&gt;" class="cls-4" d="M60.66,294.58a2.15,2.15,0,0,1-1.18-.75,2.23,2.23,0,0,1,.1-3c.76-1.41,1.87-8.64,1.84-10.07a2.22,2.22,0,0,1,2.11-2.36,2.25,2.25,0,0,1,2.37,2.12,43.51,43.51,0,0,1-.75,6.45c-1,5.45-1.79,6.54-2.51,7.14A2.25,2.25,0,0,1,60.66,294.58Z"/><path id="_Path_8" data-name="&lt;Path&gt;" class="cls-4" d="M65.49,298.33a2.24,2.24,0,0,1-.79-4c1.41-1.1,3.58-9.72,4.64-18.45a2.25,2.25,0,0,1,4.46.54c-.67,5.53-2.65,18.7-6.42,21.52A2.27,2.27,0,0,1,65.49,298.33Z"/><path id="_Path_9" data-name="&lt;Path&gt;" class="cls-4" d="M73.22,300.26a2.2,2.2,0,0,1-1.36-1,2.25,2.25,0,0,1,.62-3c.9-.92,3.14-6.32,3.91-10.4s.92-12.32.2-14.19a2.25,2.25,0,0,1,4.2-1.61c1.29,3.38.74,12.82,0,16.63a45.94,45.94,0,0,1-2.27,7.53c-1.88,4.72-3.12,5.5-3.59,5.79A2.18,2.18,0,0,1,73.22,300.26Z"/><path id="_Path_10" data-name="&lt;Path&gt;" class="cls-4" d="M83,300.16a2.24,2.24,0,0,1-.16-4.31c1.28-1.24,3-8.74,2.64-13.17a88.47,88.47,0,0,1,1.66-18.87A2.24,2.24,0,1,1,91.48,265,85.46,85.46,0,0,0,90,282.36a37,37,0,0,1-1,10c-1.15,4.88-2.72,7.36-4.95,7.83A2.11,2.11,0,0,1,83,300.16Z"/><path id="_Path_11" data-name="&lt;Path&gt;" class="cls-4" d="M92.69,299.7a2.21,2.21,0,0,1-1.33-.95,2.25,2.25,0,0,1,.65-3.11s2.24-1.63,3.39-15.37a131.43,131.43,0,0,0,.45-16.8,2.24,2.24,0,1,1,4.46-.51,135.87,135.87,0,0,1-.43,17.7c-1.35,16.08-4.3,18-5.41,18.74A2.23,2.23,0,0,1,92.69,299.7Z"/><path id="_Path_12" data-name="&lt;Path&gt;" class="cls-4" d="M101.91,301.11a2.27,2.27,0,0,1-1.49-1.22,2.24,2.24,0,0,1,1.08-3c1.44-.68,3.15-5.72,3.48-13.74.12-3.07-.29-14.72-.53-18.7a2.24,2.24,0,1,1,4.48-.27c.23,3.76.68,15.65.53,19.16-.23,5.62-1.32,15.39-6,17.61A2.24,2.24,0,0,1,101.91,301.11Z"/><path id="_Path_13" data-name="&lt;Path&gt;" class="cls-4" d="M117.54,302.13a2.24,2.24,0,0,1-1.07-.62c-2.45-2.54-3.75-7.41-4.1-15.34-.25-5.81,1-16.27,1.94-19.27a2.25,2.25,0,1,1,4.3,1.31A83.09,83.09,0,0,0,116.86,286c.36,8.19,1.74,11.27,2.84,12.41a2.25,2.25,0,0,1-2.16,3.74Z"/><path id="_Path_14" data-name="&lt;Path&gt;" class="cls-4" d="M124.5,303a2.21,2.21,0,0,1-1-.56c-2.92-2.82-2.95-8.59-3-14.7v-.54a119.67,119.67,0,0,1,1.18-13.66c.16-1.28.29-2.38.33-2.87a2.25,2.25,0,0,1,4.48.33c0,.61-.18,1.65-.36,3.09A120.54,120.54,0,0,0,125,287.13v.54c0,4.21,0,10,1.59,11.48a2.24,2.24,0,0,1-2.1,3.8Z"/><path id="_Path_15" data-name="&lt;Path&gt;" class="cls-4" d="M131.75,303.9a2.21,2.21,0,0,1-.9-.46c-3.48-2.91-3.67-9.52-3.36-16.21a125.38,125.38,0,0,1,1.89-14.11l.06-.33a2.24,2.24,0,1,1,4.42.77l-.06.33A124.21,124.21,0,0,0,132,287.43c-.33,7.09.26,11.32,1.76,12.57a2.24,2.24,0,0,1-2,3.9Z"/><path id="_Path_16" data-name="&lt;Path&gt;" class="cls-4" d="M137.64,303.12a2.28,2.28,0,0,1-1.1-.66c-2-2.17-2.37-5.45-2.31-9.72.06-4.65,3-12.44,4.79-16.31a2.25,2.25,0,0,1,4.1,1.85c-1.75,3.85-4.35,10.89-4.4,14.52s.3,5.72,1.12,6.62a2.24,2.24,0,0,1-.13,3.17A2.28,2.28,0,0,1,137.64,303.12Z"/><path id="_Path_17" data-name="&lt;Path&gt;" class="cls-4" d="M147.32,304.31a2.36,2.36,0,0,1-.74-.34c-3.06-2.13-5.87-6.92-5.06-11.62.89-5.15,5.13-9.32,6.91-10.87a2.24,2.24,0,1,1,2.95,3.38c-1.1,1-4.77,4.42-5.43,8.26-.52,3,1.6,6.06,3.2,7.17a2.25,2.25,0,0,1-1.83,4Z"/><path id="_Path_18" data-name="&lt;Path&gt;" class="cls-4" d="M154.31,303.05a2.23,2.23,0,0,1-1.48-1.21l-.18-.25a8.9,8.9,0,0,1-1.69-7.14,11.9,11.9,0,0,1,3-6.72c.36-.44.69-.85,1-1.3a2.25,2.25,0,0,1,3.75,2.47c-.43.64-.86,1.18-1.25,1.66a7.55,7.55,0,0,0-2.05,4.48,4.63,4.63,0,0,0,.87,3.92,5.48,5.48,0,0,1,.62,1,2.26,2.26,0,0,1-2.59,3.11Z"/><path id="_Path_19" data-name="&lt;Path&gt;" class="cls-4" d="M184.66,111.83A2.24,2.24,0,0,1,183,110.1c0-.22-1.1-5.61,1.22-9.92a31.68,31.68,0,0,1,7.51-8.78,13,13,0,0,1,3.5-2.06,2.25,2.25,0,1,1,1.48,4.24h0a9.61,9.61,0,0,0-2.2,1.34,27,27,0,0,0-6.34,7.39c-1.54,2.86-.77,6.86-.76,6.9a2.25,2.25,0,0,1-1.76,2.64A2.2,2.2,0,0,1,184.66,111.83Z"/><path id="_Path_20" data-name="&lt;Path&gt;" class="cls-4" d="M204.47,111.73a2.26,2.26,0,0,1-1.26-3.52c.24-.32,5.9-7.81,15.28-8.95a2.24,2.24,0,1,1,.54,4.45c-7.48.92-12.16,7.12-12.21,7.18A2.25,2.25,0,0,1,204.47,111.73Z"/><path id="_Path_21" data-name="&lt;Path&gt;" class="cls-4" d="M213.46,111.58a2.25,2.25,0,0,1-.39-4.22c.8-.37,1.55-.73,2.27-1.08,3.16-1.54,5.9-2.87,9.68-2.52a2.25,2.25,0,0,1-.41,4.48c-2.54-.24-4.44.68-7.31,2.08-.74.36-1.52.74-2.37,1.13A2.27,2.27,0,0,1,213.46,111.58Z"/><path id="_Path_22" data-name="&lt;Path&gt;" class="cls-4" d="M220.22,114.83a2.25,2.25,0,0,1-.52-4.16c.27-.14,6.51-3.43,12.83-2.56a2.25,2.25,0,0,1-.62,4.45c-4.06-.56-8.66,1.3-10.09,2.07A2.25,2.25,0,0,1,220.22,114.83Z"/><path id="_Path_23" data-name="&lt;Path&gt;" class="cls-4" d="M227.07,118a2.25,2.25,0,0,1,.15-4.39,27.17,27.17,0,0,1,4.61-.36c3.64,0,6.3.88,7.92,2.52a2.25,2.25,0,0,1-3.2,3.15c-1.37-1.39-5.91-1.36-8.54-.89A2.47,2.47,0,0,1,227.07,118Z"/><path id="_Path_24" data-name="&lt;Path&gt;" class="cls-4" d="M132.4,94.62a2.26,2.26,0,0,1-1.6-1.52c-1.23-4-3.65-11-4.89-12.83-3.93-5.84-4.88-6.73-5-6.81A2.25,2.25,0,0,1,123.84,70c.38.32,1.4,1.18,5.8,7.73,2,3,5.1,12.88,5.45,14a2.24,2.24,0,0,1-1.48,2.81A2.27,2.27,0,0,1,132.4,94.62Z"/><path id="_Path_25" data-name="&lt;Path&gt;" class="cls-4" d="M106.13,92.4a2.27,2.27,0,0,1-1.3-.9C99.09,83.17,94.63,78.61,93.29,78a2.25,2.25,0,0,1,1.79-4.12c1.24.53,3.48,2,8.54,8.4,2.66,3.38,4.82,6.49,4.91,6.62a2.25,2.25,0,0,1-2.4,3.46Z"/><path id="_Path_26" data-name="&lt;Path&gt;" class="cls-4" d="M98.75,92.16a2.24,2.24,0,0,1-1.38-1c-1.66-2.73-6.91-10.21-11.29-12A2.24,2.24,0,0,1,87.81,75c2.85,1.19,6,3.91,9.32,8.09a60.85,60.85,0,0,1,4.08,5.76,2.26,2.26,0,0,1-.76,3.09A2.23,2.23,0,0,1,98.75,92.16Z"/><path id="_Path_27" data-name="&lt;Path&gt;" class="cls-4" d="M91.67,91.22a2.27,2.27,0,0,1-1.23-.8h0c0-.07-5.37-6.82-10.86-8.19l-.16,0a2.24,2.24,0,0,1,1-4.37l.23.05c7,1.75,13.07,9.46,13.33,9.79a2.25,2.25,0,0,1-2.32,3.56Z"/><path id="_Path_28" data-name="&lt;Path&gt;" class="cls-4" d="M83.81,93.27a2.23,2.23,0,0,1-1.31-.91c0-.07-3.46-5-8.41-6.92a2.25,2.25,0,0,1,1.62-4.19c6.3,2.44,10.34,8.34,10.5,8.59a2.23,2.23,0,0,1-.6,3.11A2.2,2.2,0,0,1,83.81,93.27Z"/><path id="_Path_29" data-name="&lt;Path&gt;" class="cls-4" d="M77.92,94a2.21,2.21,0,0,1-1-.55c-.07-.06-3.6-3.38-7.31-3.64a2.25,2.25,0,0,1,.33-4.48c5.36.39,9.89,4.69,10.09,4.88A2.24,2.24,0,0,1,77.92,94Z"/><path id="_Path_30" data-name="&lt;Path&gt;" class="cls-4" d="M202,76.06l-.19,0a2,2,0,0,1-.46-.18Z"/><path id="_Path_31" data-name="&lt;Path&gt;" class="cls-4" d="M134.16,62a2.43,2.43,0,0,1-.6,0h0l-.16,0Z"/><path id="_Compound_Path_8" data-name="&lt;Compound Path&gt;" class="cls-4" d="M305.53,171.59c4.63-7.71-2.47-13.75-13.22-22.9l-.47-.39a12.79,12.79,0,0,0-9.8-3.16c-5.85.54-11.31,4.71-14.67,7.88-3.55-29-15.4-51.66-35.26-67.27a51.08,51.08,0,0,0-4.57-3.2c-2.3-6.46-8.4-17-14.32-20.66-5-3.09-21.29-18.4-24.63-22-3.49-3.73-28-19.76-37.91-23.88-2.36-1-4.41-2-6.4-2.93-6.11-2.93-11.39-5.46-20-4.78-2.83.22-5.63.56-8.34.89-7.21.89-14,1.72-19.29,0C87.24,6,73.06,15.49,68.93,18.48c-6.16,4.46-20.3,19.65-29.65,45.2-9.56,26.15-11.45,31.88-13.46,40.87-2.11,9.39-2.61,17.61,1.8,27.21,1.43,3.13,3.19,6.63,4.89,9.89-2.87-1.28-6.14-1.94-9.12-.64-1.25.54-2.63,1-4,1.48-5,1.74-10.66,3.71-12.21,10.22a24,24,0,0,0,5.09,21.06c2.66,3,3.55,5.16,3.48,6.18,0,.3-.11.38-.17.43-1.9,1.64-4.16,6.56-3.4,10.55a7.08,7.08,0,0,0,4.85,5.49c.91.31,1.93.61,3,.89a55.08,55.08,0,0,0,8.75,1.41,30.85,30.85,0,0,0,4.79.06l0,.28c-.59,6.37-1.06,11.39-1.37,14.19-1.38,12.39-7.93,56-9.84,63.68-.21.84-5.06,20.64,1.17,27.72,3.63,4.12,9.15,21.91,11.8,30.46l.16.52c2.4,7.73,6.86,22.11,36.2,34.52a87.71,87.71,0,0,0,12.75,4.18c25.17,6.29,55.62,4.11,71.48,3l1.19-.09c14.8-1.06,29.8-11.24,41.85-19.42,2.53-1.72,4.92-3.34,7.12-4.75,12.8-8.18,26.36-24.25,27.68-28,.86-2.46,9.69-15,15.48-22,4.87-5.91,9.45-26.46,15.39-54.84q.58-2.85,1.17-5.61c1.77-8.4,2.74-19.12,3.19-30.26,1.18.36,2.65.78,4.3,1.19a51.6,51.6,0,0,0,13.88,1.82c9.72-.47,11.62-18.65,12.64-28.42.05-.53.11-1,.15-1.46.66-5.94,1.48-7.27,3.94-11.21C304.41,173.44,304.94,172.58,305.53,171.59ZM31.7,129.89c-3.89-8.49-3.46-15.61-1.5-24.36S34,91.14,43.5,65.22c9.31-25.44,23.42-39.74,28.07-43.11,5.83-4.21,17.37-10.79,23.67-8.68s13.52,1.19,21.25.24c2.66-.32,5.42-.66,8.16-.87,7.39-.59,11.71,1.48,17.69,4.35,1.94.93,4.14,2,6.61,3C158.94,24.34,182.51,40,185.3,43c3,3.22,19.94,19.25,25.57,22.73,3.34,2.07,7.43,7.78,10.2,13.23A130.51,130.51,0,0,0,203.92,72C202,68.52,193.71,54.68,180,45.88c-1.83-1.17-3.53-2.28-5.13-3.31-11.72-7.6-18.17-11.78-27.33-13.8-10-2.22-21.84-7.9-23.33-10.53a2.25,2.25,0,0,0-3.91,2.22c2.77,4.89,17.17,10.69,26.27,12.69C155,35,160.8,38.79,172.44,46.34l5.15,3.32c9.38,6,16.17,14.85,19.79,20.29-4.58-1.35-9.33-2.6-14.15-3.74-.75-1.94-2.7-5.42-7.71-9.32-6.63-5.15-17.05-12.46-31.09-16.59-14.69-4.31-25.15-9.71-28.66-12.9A49.57,49.57,0,0,1,108.25,18a2.25,2.25,0,1,0-3.85,2.33,54,54,0,0,0,8.35,10.39c4.81,4.37,17,10,30.42,13.88,13.15,3.87,22.72,10.49,29.59,15.83a24.61,24.61,0,0,1,4.51,4.41c-5.17-1.14-10.39-2.17-15.54-3.09h0c-1.18-2.51-4.76-7.54-15.28-12-4.88-2.05-9.78-3.73-14.51-5.37-7.81-2.69-15.19-5.23-19.82-8.66C104.33,30,97.42,22.67,96.74,21a2.25,2.25,0,0,0-4.35,1.13c.85,3.43,10.66,12.49,17,17.22,5.19,3.84,12.89,6.49,21,9.3,4.67,1.61,9.5,3.27,14.23,5.27,5.57,2.34,8.84,4.8,10.72,6.73-7-1.18-13.83-2.18-20.14-3-1.18-1.72-4-5.36-10.83-8-2.85-1.09-5.67-2-8.4-3a87,87,0,0,1-14.81-5.94C93.52,36.49,85.72,30,83.84,26.21a2.25,2.25,0,0,0-4,2c2.62,5.23,11.86,12.39,19.23,16.46,5,2.73,10.1,4.45,15.57,6.28,2.68.89,5.46,1.82,8.21,2.88a22.36,22.36,0,0,1,5.33,2.85c-5.85-.75-11.09-1.36-15.43-1.86L105.9,54h0c-1.62-1.39-7.72-6.34-14.21-8.29-1.79-.54-3.44-1-4.89-1.32-4.22-1.07-7-1.77-9.41-4.31-4.06-4.28-6-6.87-6.31-7.67a2.25,2.25,0,0,0-4.47-.08c-.11,1-.3,2.58,7.52,10.83,3.3,3.49,7,4.41,11.56,5.58,1.48.37,3,.76,4.71,1.27a30.46,30.46,0,0,1,7.2,3.45,69.18,69.18,0,0,0-10.79.81c-1.13-1.24-3.36-2.91-7.65-4.23-6.09-1.86-10.92-3.6-13.07-7.62L63.5,37.58a2.25,2.25,0,0,0-4,2.12l2.59,4.86c2.95,5.52,8.86,7.7,15.72,9.8a21.46,21.46,0,0,1,3,1.13,69.36,69.36,0,0,0-9,2.91h0a20.61,20.61,0,0,0-4.87-2.54c-3.94-1.55-5.91-3.33-6.39-4.37a21.55,21.55,0,0,1-1.25-4.79,2.25,2.25,0,0,0-4.48-.31,21.73,21.73,0,0,0,1.65,7c1.16,2.52,4.29,4.89,8.82,6.68.56.22,1,.43,1.47.62-1.65.83-3,1.6-4,2.23a10,10,0,0,0-2.3,2c-3-.89-5-2.23-5.31-3a17.68,17.68,0,0,1-1.76-5.56,2.25,2.25,0,0,0-4.43-.74c-.33,1.8.86,5.59,2.14,8.25,1.18,2.44,4.35,4,6.78,4.88a21.6,21.6,0,0,0-2.2,7.43,6.14,6.14,0,0,1-2.33-1.87c-2.9-3.71-3.2-6-3.2-6.05a9.3,9.3,0,0,1,.08-1.46,2.24,2.24,0,1,0-4.44-.62,13.14,13.14,0,0,0-.12,2.33c.09,1.63,1.23,4.85,4.15,8.57a10.21,10.21,0,0,0,5.59,3.74,4,4,0,0,0,.58.12c-.11,1.64-.47,4.31-1,7.49a17.24,17.24,0,0,1-5.65-5c-2.63-4.38-2.67-6-2.68-6.56a2.25,2.25,0,1,0-4.49.11c0,1.57.45,4,3.32,8.76,2.12,3.53,6.35,6.18,8.66,7.43-.44,2.35-.94,4.82-1.48,7.26a15.16,15.16,0,0,0-3.24-3.26c-3.58-2.61-6.11-6.1-6.23-7.73-.2-2.7-.33-4.9-.34-4.9a2.24,2.24,0,1,0-4.47.28s.13,2.22.33,4.94c.27,3.75,4.37,8.35,8.07,11a15.21,15.21,0,0,1,4.4,6c-.33,1.33-.67,2.6-1,3.8-.08.27-.16.54-.23.81a13.87,13.87,0,0,0-3.43-4.18A26.91,26.91,0,0,1,38.59,96a2.24,2.24,0,0,0-2.81-1.48,2.27,2.27,0,0,0-1.48,2.82,31,31,0,0,0,9.26,13.26c4.1,3.4,3.69,8.57,3.32,10.65v0c-1,3.13-2,6.23-3,9.3a16.68,16.68,0,0,1-1.56-7.2c-.07-2.62-.15-5.33-3.59-8.47a9.46,9.46,0,0,1-3-6.37,2.23,2.23,0,0,0-2.23-2.24,2.25,2.25,0,0,0-2.26,2.23,14,14,0,0,0,4.5,9.7c2,1.85,2.07,3,2.13,5.28a24.09,24.09,0,0,0,.28,3.44c.57,3.57,2.75,8,3.73,9.89q-.57,1.73-1.11,3.42a45.68,45.68,0,0,0-1.16,5.15l1.18,2.17a2.19,2.19,0,0,0-.45-.61c-.14-.13-.44-.41-.87-.78,0-.27.1-.52.14-.78C37.24,141,34,135,31.7,129.89ZM18.54,192.17a2.57,2.57,0,0,1-1.91-2.09,8.94,8.94,0,0,1,1.92-6.3,5,5,0,0,0,1.72-3.54c.17-2.65-1.38-5.83-4.61-9.46a19.73,19.73,0,0,1-4.07-17c.94-3.91,4.15-5.22,9.32-7,1.41-.49,2.86-1,4.28-1.61C28.78,143.56,34.81,148,37,150l1.49,2.69c-1.57,11.5-3.16,28-4.42,41.54C31.58,194.7,23.85,194,18.54,192.17Zm227.26,108c-4.66,5.65-15,19.73-16.25,23.4-.86,2.41-13.71,17.94-25.86,25.71-2.25,1.44-4.67,3.08-7.22,4.82-11.61,7.87-26.05,17.68-39.65,18.66l-1.19.08c-18.32,1.32-56.46,4.06-82.16-6.81-25.3-10.69-30.64-22-33.66-31.71l-.16-.52c-4.09-13.19-8.79-27.63-12.72-32.1C24,298.31,24.5,287,26.75,278c2.06-8.23,8.69-53,10-64.27.31-2.84.78-7.89,1.37-14.27.11-1.17.23-2.37.34-3.62a1.8,1.8,0,0,0,0-.22c1.26-13.43,3-31.31,4.59-43.07a.06.06,0,0,0,0,0,79.46,79.46,0,0,1,2-10.91c.45-1.41.91-2.83,1.37-4.26a1.87,1.87,0,0,0,.07-.22l.69-2.12c1.19-3.63,2.39-7.31,3.57-11.06h0l.48-1.52v0c1.1-3.53,2.17-7.09,3.18-10.7,1.41-5,3.12-12.65,4.37-19.49,2.19-12,1.63-13.64,1.28-14.4-.31-1.23.78-6,2.91-9.08a.83.83,0,0,0,.08-.12A7,7,0,0,1,65,66.73a63.78,63.78,0,0,1,40.35-8.26c1.9.24,4.22.51,6.88.82,5.7.66,13,1.51,21.14,2.6h0l.8.11h0c20.45,2.76,46.29,7,67.18,13.84h0l.65.22h0a109,109,0,0,1,22.33,9.77h0c.09.07.19.12.28.18a49.9,49.9,0,0,1,4.71,3.27c19.93,15.66,31.38,38.84,34.08,68.9v.12a.28.28,0,0,1,0,.09.36.36,0,0,0,0,.1,479,479,0,0,1,1.22,50.64c-.39,12-1.34,23.59-3.22,32.5-.39,1.84-.78,3.72-1.18,5.62C255.84,268.36,250.35,294.64,245.8,300.15Zm55.88-130.87c-.58,1-1.1,1.81-1.57,2.56-2.54,4.09-3.82,6.14-4.58,13.1,0,.45-.1.95-.15,1.48-.63,6-2.53,24.12-8.4,24.4-6.05.3-14.4-2.1-17.8-3.18a487.61,487.61,0,0,0-1.21-48.8c1.89-2.12,8.18-8.65,14.5-9.23a8.38,8.38,0,0,1,6.46,2.11l.47.39C300,161.16,304.25,165,301.68,169.28Z"/><path id="_Path_32" data-name="&lt;Path&gt;" class="cls-4" d="M51,123.41a2,2,0,0,1-.25.55l.48-1.52C51.11,123,51,123.35,51,123.41Z"/><path id="_Path_33" data-name="&lt;Path&gt;" class="cls-4" d="M190,111.54a2.25,2.25,0,0,1-1.7-2.2c0-.55.15-5.4,3.33-8.27.6-.54,1.43-1.26,2.35-2.06a83.16,83.16,0,0,0,6.3-5.8,2.24,2.24,0,0,1,4.31,1.12c-.16,1.28-.89,2.18-7.66,8.07-.9.78-1.71,1.48-2.3,2-1.47,1.33-1.83,4.1-1.84,5a2.24,2.24,0,0,1-2.26,2.23A3.07,3.07,0,0,1,190,111.54Z"/><path id="_Path_34" data-name="&lt;Path&gt;" class="cls-4" d="M112.49,93.44a2.25,2.25,0,0,1-1.69-2.31c.18-3.16-6.65-10.5-8.9-12.91-.52-.57-1-1-1.23-1.35a2.24,2.24,0,1,1,3.38-3c.26.29.65.72,1.14,1.24,5.39,5.79,10.34,11.77,10.09,16.23a2.24,2.24,0,0,1-2.37,2.11A3,3,0,0,1,112.49,93.44Z"/><path id="_Path_35" data-name="&lt;Path&gt;" class="cls-4" d="M118.7,92.35a2.23,2.23,0,0,1-1.69-2.3c.17-3.17-6.66-10.51-8.9-12.92-.53-.56-1-1-1.24-1.35a2.25,2.25,0,0,1,3.39-3c.26.3.65.72,1.14,1.24,5.39,5.8,10.34,11.77,10.09,16.23a2.25,2.25,0,0,1-2.37,2.12A2,2,0,0,1,118.7,92.35Z"/><path id="_Path_36" data-name="&lt;Path&gt;" class="cls-4" d="M125.32,94.44A2.24,2.24,0,0,1,123.64,92c.19-1.57-.82-5.94-9.73-17.44l-.33-.44a2.24,2.24,0,1,1,3.55-2.74l.34.43C127.65,85,128.41,89.93,128.1,92.53a2.25,2.25,0,0,1-2.5,2Z"/><path id="_Path_37" data-name="&lt;Path&gt;" class="cls-4" d="M196.5,113l-.16,0a2.25,2.25,0,0,1-1.43-2.84c1.59-4.78,3.88-7.42,7.56-10.61,2.82-2.44,5-3.64,6.39-3.56a2.25,2.25,0,0,1,.12,4.48,12.67,12.67,0,0,0-3.57,2.48c-3.21,2.78-5,4.78-6.23,8.62A2.26,2.26,0,0,1,196.5,113Z"/></svg>