<svg id="Layer_1" data-name="Layer 1" xmlns="http://www.w3.org/2000/svg" viewBox="0 0 169.36 164.69"><defs><style>.cls-1{fill:#fff;}.cls-2{fill:#e7525e;}.cls-3{fill:#02ac9f;}.cls-4{fill:#cfcfcd;}.cls-5{fill:#001e2d;}</style></defs><title>Cara</title><path id="_Path_" data-name="&lt;Path&gt;" class="cls-1" d="M.33,93.06a179.34,179.34,0,0,1,12.3-54.39A54.91,54.91,0,0,1,27.81,16.84,60.44,60.44,0,0,1,45.68,5.91C62-.24,73.34-2.27,90.66,3.1c2.4.75,7.3,3.86,9.66,4.71,6.39,2.32,16.09-2.68,22.53-.89,10.37,2.89,19.29,8.16,21.85,18.25.65,2.57,1.94,4.78,2.84,7.27C150,39.31,157,43.36,161.6,49c8.5,10.33,8.6,25.1,6.89,38.37s-8.36,23.43-1.75,35.06c1.79,3.15,2.3,11,.16,13-1.6,1.46-4,.08-5.82,1.3-1.18.79-2,3.26-2.68,4.52-3.08,5.95-4.89,4.77-8,10.73-.75,1.44-.68,9.57-2,10.56-3.11,2.41-6.78,3.32-9.1.14s-3-10.58-3.5-14.48c-1.63-13.16,1.05-32.18,5.75-43-1.34-1.47-10.48,17.23-14.3,21.76-7.67,9.13-20.41,15.19-32.33,15s-23.84-4.56-35.14-8.36c-8.2-2.76-16.45-7.65-21.06-15-4-6.44-4.26-15.22-9.91-20.31.53,15.14,1.8,30.41,9.08,44.87,1.84,3.64,7.71,6.51,7.87,10.59s-6.74,8.72-10.35,6.82c-2.09-1.1-2.88-3.62-4.15-5.61-5.13-8-19.4-9-20.66-18.44-.52-3.9.1-11.59.05-15.53-.08-5.75-3.2-6.31-6.09-11.29C1.49,104.21-.91,99.21.33,93.06"/><path id="_Path_2" data-name="&lt;Path&gt;" class="cls-2" d="M78,117.88c1.51-2.09,3.44-4.41,6-4.34a5.34,5.34,0,0,0,1.13,0,4.41,4.41,0,0,0,1.78-1.11c2.33-1.79,5.58-1.63,8.46-1.11s5.88,1.33,8.7.54c.27.6-.35,1.22-.92,1.58A36.06,36.06,0,0,1,81.21,119a5.56,5.56,0,0,1-3.46-1.15"/><path id="_Path_3" data-name="&lt;Path&gt;" class="cls-2" d="M79.07,120.28c6,.62,12.27.78,17.9-1.41,3.07-1.19,6.07-3.09,9.35-2.88a5.9,5.9,0,0,1-1.81,5.62,12.89,12.89,0,0,1-5.43,2.84,33.42,33.42,0,0,1-9.58,1.42,15.36,15.36,0,0,1-6.09-1,7.52,7.52,0,0,1-4.28-4.25"/><path id="_Path_4" data-name="&lt;Path&gt;" class="cls-3" d="M34.66,52.22c-9.74,18.4-8.45,40.44-6.91,61.2.85,11.34,2,23.54,9.5,32.1,1.69,1.94,3.71,3.72,4.53,6.15s-.32,5.76-2.86,6.09a5.49,5.49,0,0,1-4.05-1.67C30.59,152.41,28,146.83,23.11,144c-2.46-1.42-5.43-2.08-7.4-4.12-4.52-4.67-.93-12.38-1.66-18.84-.77-6.86-6.53-12.08-8.7-18.64-1.68-5.07-1.1-10.58-.5-15.9,1.42-12.59,2.86-25.27,6.64-37.36S21.58,25.45,31.3,17.33C42,8.4,56,4.32,69.93,3.31c9.28-.68,19.24.12,26.77,5.6a11.5,11.5,0,0,0,3.37,2c1.84.54,3.78-.1,5.63-.59a38.18,38.18,0,0,1,20.72.34c6.22,1.88,12.25,5.75,14.78,11.73,1,2.37,1.39,4.93,2.22,7.36,3.69,10.86,15.12,17.32,20.2,27.61,10.28,20.86-9,47.64,1.44,68.4,1,2,2.25,4.61.76,6.3s-4.53.74-6.62,1.78c-3.15,1.57-2.46,6.4-4.57,9.22-1.1,1.46-2.87,2.24-4.27,3.43-4.09,3.48-4.26,9.62-4.12,15-2,.82-4.35-.31-5.6-2a13.25,13.25,0,0,1-1.94-6.08,98.16,98.16,0,0,1,.39-29c1.61-9.84,4.72-19.39,6.58-29.19s2.45-20.16-.92-29.55c-1.33-3.7-3.24-7.17-4.47-10.9-.76-2.31-1.27-4.74-2.48-6.85a20.18,20.18,0,0,0-3.65-4.34,80.85,80.85,0,0,0-59.4-22.22,45.73,45.73,0,0,0-14.57,2.81C48,29,40,40.68,34,52.36"/><path id="_Path_5" data-name="&lt;Path&gt;" class="cls-4" d="M76,24.51c-4.33,3.11-1.59,9.2,1.18,12.57,1.56,1.9,3.94,2.92,6.28,3.67,9,2.89,18.69,3,27.61,6s17.55,10.63,17.09,20c-.26,5.36-3.46,10.21-7.51,13.72-2.45,2.12-5.27,3.89-7.17,6.52s-2.63,6.5-.57,9a23.67,23.67,0,0,0,3.53,2.81c3.23,2.65,4.36,7.28,3.65,11.41s-3,7.82-5.57,11.11a57,57,0,0,1-9.58,9.55c1.16,3,5.53,3,8.57,1.87,11.41-4.42,17.78-16.61,21.16-28.37a111.06,111.06,0,0,0,2.52-50.32A19.68,19.68,0,0,0,135,47.22c-1.57-2.56-4.11-4.33-6.6-6q-5.78-3.89-11.66-7.59C110.46,29.69,104,25.87,97,23.74s-14.25-2.2-21,.77"/><path id="_Path_6" data-name="&lt;Path&gt;" class="cls-4" d="M34.49,55.3c-1-2.61,2.95-4.81,5.43-3.54s3.51,4.22,4.32,6.88l3.58,11.78c1.56,5.11,3.25,10.44,7,14.19,1.78,1.76,4,3.09,5.63,5A12.82,12.82,0,0,1,63.7,97c.14,1.77-.24,3.82-1.77,4.71s-3.35.28-5,.55a6.5,6.5,0,0,0-4.72,4.22,15.36,15.36,0,0,0-.7,6.54c.08,1.35.07,3-1.08,3.7a3.07,3.07,0,0,1-1.8.31c-5.32-.38-9.07-5.42-11.09-10.35C33.14,96,33.36,84.08,33.65,72.55l.46-18.26"/><path id="_Path_7" data-name="&lt;Path&gt;" class="cls-3" d="M51.71,54.33c1.53-1.59,2.85-3.38,4.49-4.85A16.38,16.38,0,0,1,73.85,47c.7.35,1.48,1.21.93,1.78a1.32,1.32,0,0,1-.88.3c-3,.21-6,.11-8.77,1.23S60.25,53.66,57.64,55a13.34,13.34,0,0,1-3.57,1.27A3,3,0,0,1,51.55,56c-.66-.57-.52-2,.35-2"/><path id="_Path_8" data-name="&lt;Path&gt;" class="cls-3" d="M96.55,44.62a54.31,54.31,0,0,1,20.49,0c1.73.34,3.61.87,4.54,2.37.28.45.34,1.21-.17,1.35a1,1,0,0,1-.53,0,42.14,42.14,0,0,0-16.49-1.43c-2.57.28-5.43.73-7.51-.8-.34-.24-.63-.81-.26-1"/><path id="_Path_9" data-name="&lt;Path&gt;" class="cls-2" d="M47.32,79c1.64-1.16,2.53-.86,4.51-1.21,3.54-.61,7.17-1.22,10.7-.54,1.77.34,3.62,1.13,4.46,2.72a4.81,4.81,0,0,1-.3,4.6,9.36,9.36,0,0,1-3.52,3.2,17.89,17.89,0,0,1-13.66,1.59,4.84,4.84,0,0,1-1.71-.78,5,5,0,0,1-1.49-2.61c-.74-2.48-.74-5.07,1-7"/><path id="_Path_10" data-name="&lt;Path&gt;" class="cls-2" d="M107.61,75.73c3.7-1.42,6.41-2.91,10.37-3a15.28,15.28,0,0,1,10.89,4,6.23,6.23,0,0,1,1.8,2.87c.52,2.21-.92,4.53-2.88,5.67a12.9,12.9,0,0,1-6.59,1.33,43.79,43.79,0,0,1-8.08-.76,14,14,0,0,1-5-1.7,6.09,6.09,0,0,1-3-4.18,3.92,3.92,0,0,1,2.41-4.23"/><path id="_Path_11" data-name="&lt;Path&gt;" class="cls-2" d="M83.69,92.45a10.66,10.66,0,0,1-2.9-.35,5.73,5.73,0,0,1-4.14-3.8c-.52-2,.36-3.77,1.21-5.48A14.1,14.1,0,0,0,79,80.15c.56-2.27-.35-4.81-1.08-6.85a.84.84,0,0,1,1.59-.57c.8,2.26,1.8,5.06,1.12,7.83a14.79,14.79,0,0,1-1.23,3c-.74,1.51-1.45,2.93-1.08,4.31a4.08,4.08,0,0,0,3,2.61,13.62,13.62,0,0,0,4.69.18l2.9-.22a15.28,15.28,0,0,0,6-1.27c1.56-.83,3-2.62,2.66-4.43-.24-1.47-1.46-2.58-2.75-3.76-.43-.39-.89-.81-1.3-1.23A13.18,13.18,0,0,1,91.85,64,.84.84,0,0,1,93,63.7a.83.83,0,0,1,.26,1.15,11.61,11.61,0,0,0,1.42,13.73c.38.39.79.77,1.22,1.16,1.45,1.32,2.94,2.68,3.28,4.72.46,2.72-1.51,5.11-3.53,6.19A16.65,16.65,0,0,1,89,92.12l-2.91.21C85.3,92.39,84.51,92.45,83.69,92.45Z"/><path id="_Compound_Path_" data-name="&lt;Compound Path&gt;" class="cls-5" d="M63.75,67.63c-.45,0-.9,0-1.35,0-2.85-.18-4.81-1.08-5.83-2.7a5.45,5.45,0,0,1,1-6.51,9.73,9.73,0,0,1,5.83-2.66,18.05,18.05,0,0,1,6.43.2.79.79,0,0,1,.58.45,11.14,11.14,0,0,1,3.72,2.26,4.52,4.52,0,0,1,1.19,4.69,5.73,5.73,0,0,1-3.48,2.84A22.72,22.72,0,0,1,63.75,67.63ZM66,57.2a16.43,16.43,0,0,0-2.42.18,8.13,8.13,0,0,0-4.85,2.16A3.78,3.78,0,0,0,58,64c.72,1.14,2.23,1.78,4.51,1.92a21.09,21.09,0,0,0,8.69-1.32,4,4,0,0,0,2.52-1.9,2.9,2.9,0,0,0-.83-2.89,10.12,10.12,0,0,0-3.28-1.93.81.81,0,0,1-.39-.36A17.26,17.26,0,0,0,66,57.2Z"/><path id="_Compound_Path_2" data-name="&lt;Compound Path&gt;" class="cls-5" d="M110.39,60.15a20.56,20.56,0,0,1-5.68-.8,5.05,5.05,0,0,1-2.85-1.73,3.75,3.75,0,0,1,.31-4.43,5.44,5.44,0,0,1,3.24-1.79.82.82,0,0,1,.48-.33,16.12,16.12,0,0,1,9.1.48c2,.72,3.21,1.84,3.52,3.26a3.94,3.94,0,0,1-1.64,3.84,7.9,7.9,0,0,1-3.61,1.3A21.19,21.19,0,0,1,110.39,60.15Zm-3.63-7.55a.85.85,0,0,1-.62.39,4.06,4.06,0,0,0-2.67,1.27,2.09,2.09,0,0,0-.24,2.39,3.51,3.51,0,0,0,2,1.08,18.55,18.55,0,0,0,7.84.55,6.26,6.26,0,0,0,2.85-1,2.27,2.27,0,0,0,1-2.15c-.22-1-1.44-1.67-2.43-2A14.41,14.41,0,0,0,106.76,52.6Z"/><path id="_Path_12" data-name="&lt;Path&gt;" class="cls-5" d="M54,68.78A.85.85,0,0,1,53.2,68,.84.84,0,0,1,54,67.1a4.69,4.69,0,0,0,3.47-1.81.84.84,0,1,1,1.33,1,6.38,6.38,0,0,1-4.73,2.46Z"/><path id="_Path_13" data-name="&lt;Path&gt;" class="cls-5" d="M57.12,70.65A.85.85,0,0,1,56.87,69a3.43,3.43,0,0,0,2.28-2.43.84.84,0,0,1,1.64.38,5.11,5.11,0,0,1-3.43,3.66A1,1,0,0,1,57.12,70.65Z"/><path id="_Path_14" data-name="&lt;Path&gt;" class="cls-5" d="M60.26,71.57a.87.87,0,0,1-.63-.28.84.84,0,0,1,.07-1.19A6.19,6.19,0,0,0,61.57,67a.84.84,0,0,1,1.63.39,7.85,7.85,0,0,1-2.38,4A.81.81,0,0,1,60.26,71.57Z"/><path id="_Path_15" data-name="&lt;Path&gt;" class="cls-5" d="M63.87,71.12a.84.84,0,0,1-.53-1.48,3.27,3.27,0,0,0,1.15-2.36.84.84,0,1,1,1.68.06,5,5,0,0,1-1.76,3.59A.83.83,0,0,1,63.87,71.12Z"/><path id="_Path_16" data-name="&lt;Path&gt;" class="cls-5" d="M67.37,70.26a.92.92,0,0,1-.28-.05.84.84,0,0,1-.52-1.07,4.56,4.56,0,0,0,.21-2,.84.84,0,0,1,1.67-.2,6.31,6.31,0,0,1-.29,2.76A.84.84,0,0,1,67.37,70.26Z"/><path id="_Path_17" data-name="&lt;Path&gt;" class="cls-5" d="M121.74,60.86h-.08a9,9,0,0,1-5.45-2.57.84.84,0,0,1,1.19-1.19,7.36,7.36,0,0,0,4.42,2.09.84.84,0,0,1-.08,1.68Z"/><path id="_Path_18" data-name="&lt;Path&gt;" class="cls-5" d="M118.23,63l-.17,0a6.15,6.15,0,0,1-4.41-3.78.84.84,0,0,1,1.58-.59,4.4,4.4,0,0,0,3.17,2.72.85.85,0,0,1,.66,1A.86.86,0,0,1,118.23,63Z"/><path id="_Path_19" data-name="&lt;Path&gt;" class="cls-5" d="M113.62,64a.85.85,0,0,1-.45-.14,6.94,6.94,0,0,1-2.93-4.13.84.84,0,0,1,1.63-.4,5.25,5.25,0,0,0,2.21,3.12.84.84,0,0,1-.46,1.55Z"/><path id="_Path_20" data-name="&lt;Path&gt;" class="cls-5" d="M109.72,63.64a.84.84,0,0,1-.43-.11,5.87,5.87,0,0,1-2.83-4.22.84.84,0,0,1,.71-1,.85.85,0,0,1,1,.72,4.25,4.25,0,0,0,2,3,.84.84,0,0,1-.42,1.56Z"/><path id="_Path_21" data-name="&lt;Path&gt;" class="cls-5" d="M102.54,48.83a.84.84,0,0,1-.84-.83,8.48,8.48,0,0,1,3-6.52.85.85,0,0,1,1.19.11.83.83,0,0,1-.11,1.18A6.84,6.84,0,0,0,103.38,48a.84.84,0,0,1-.83.85Z"/><path id="_Path_22" data-name="&lt;Path&gt;" class="cls-5" d="M105.24,47a.81.81,0,0,1-.47-.14.84.84,0,0,1-.23-1.17,11.45,11.45,0,0,1,4.34-3.83.84.84,0,1,1,.76,1.49,9.93,9.93,0,0,0-3.71,3.28A.82.82,0,0,1,105.24,47Z"/><path id="_Path_23" data-name="&lt;Path&gt;" class="cls-5" d="M109.28,46.17a.84.84,0,0,1-.59-1.44,10.36,10.36,0,0,1,4.58-2.58.82.82,0,0,1,1,.59.84.84,0,0,1-.59,1,8.79,8.79,0,0,0-3.84,2.16A.82.82,0,0,1,109.28,46.17Z"/><path id="_Path_24" data-name="&lt;Path&gt;" class="cls-5" d="M113.42,46a.82.82,0,0,1-.67-.34.84.84,0,0,1,.17-1.18,7.51,7.51,0,0,1,4.91-1.41.85.85,0,0,1,.78.9.84.84,0,0,1-.9.77,5.75,5.75,0,0,0-3.79,1.09A.78.78,0,0,1,113.42,46Z"/><path id="_Path_25" data-name="&lt;Path&gt;" class="cls-5" d="M116.81,47a.84.84,0,0,1-.25-1.64,7.75,7.75,0,0,1,4.4,0,.84.84,0,0,1-.47,1.61,6.1,6.1,0,0,0-3.44,0A.67.67,0,0,1,116.81,47Z"/><path id="_Path_26" data-name="&lt;Path&gt;" class="cls-5" d="M122.91,49.29h0l-2.8-.14a.84.84,0,0,1-.79-.89.83.83,0,0,1,.88-.79l2.8.14a.84.84,0,0,1,0,1.68Z"/><path id="_Path_27" data-name="&lt;Path&gt;" class="cls-5" d="M75.56,51.47a.83.83,0,0,1-.8-.6,14.41,14.41,0,0,0-2.89-5.22.84.84,0,1,1,1.26-1.1,16,16,0,0,1,3.24,5.84.84.84,0,0,1-.56,1A.69.69,0,0,1,75.56,51.47Z"/><path id="_Path_28" data-name="&lt;Path&gt;" class="cls-5" d="M72.5,50.5a.82.82,0,0,1-.71-.4c-1-1.68-2.1-3.22-3.66-3.68a.83.83,0,0,1-.57-1,.84.84,0,0,1,1-.57c2.13.62,3.45,2.52,4.62,4.41a.85.85,0,0,1-.28,1.16A.88.88,0,0,1,72.5,50.5Z"/><path id="_Path_29" data-name="&lt;Path&gt;" class="cls-5" d="M69,49.57a.87.87,0,0,1-.63-.28A7.38,7.38,0,0,0,64.26,47a.83.83,0,0,1-.67-1,.84.84,0,0,1,1-.67,9.09,9.09,0,0,1,5,2.85.84.84,0,0,1-.06,1.18A.81.81,0,0,1,69,49.57Z"/><path id="_Path_30" data-name="&lt;Path&gt;" class="cls-5" d="M65.67,50.08a.94.94,0,0,1-.42-.11,9.68,9.68,0,0,0-4.51-1.29.84.84,0,0,1-.81-.87A.83.83,0,0,1,60.8,47a11.35,11.35,0,0,1,5.29,1.51.85.85,0,0,1,.31,1.15A.84.84,0,0,1,65.67,50.08Z"/><path id="_Path_31" data-name="&lt;Path&gt;" class="cls-5" d="M62.08,51.5a.91.91,0,0,1-.23,0,7.28,7.28,0,0,0-3.25-.13.84.84,0,0,1-1-.67.85.85,0,0,1,.67-1,9.09,9.09,0,0,1,4,.16.84.84,0,0,1-.22,1.65Z"/><path id="_Path_32" data-name="&lt;Path&gt;" class="cls-5" d="M56.72,54a.84.84,0,0,1-.18-1.66,11.74,11.74,0,0,1,2.7-.28.83.83,0,0,1,.83.85.84.84,0,0,1-.84.83h0a10,10,0,0,0-2.31.24Z"/><path id="_Path_33" data-name="&lt;Path&gt;" class="cls-5" d="M77.29,118.64a.84.84,0,0,1-.08-1.68,5.08,5.08,0,0,0,2.49-1.33l.1-.08a7.61,7.61,0,0,1,3.1-1.77,3.26,3.26,0,0,1,3,.79c0-.1.09-.21.13-.32s.21-.51.34-.77c1-1.78,3.22-2.31,5-2a14.79,14.79,0,0,1,3.09.94c.53.2,1,.4,1.53.56a11.72,11.72,0,0,0,7.56-.2.84.84,0,1,1,.59,1.57,13.42,13.42,0,0,1-8.65.23c-.56-.18-1.11-.39-1.64-.59a12.79,12.79,0,0,0-2.73-.85c-1.18-.17-2.7.12-3.28,1.18-.09.17-.17.38-.26.6a2.91,2.91,0,0,1-1.48,1.85l-.89.36-.24-.93c-.15-.59-1-.88-1.73-.74a6.15,6.15,0,0,0-2.4,1.44l-.1.08a6.56,6.56,0,0,1-3.38,1.7Z"/><path id="_Path_34" data-name="&lt;Path&gt;" class="cls-5" d="M91,124.66a25.84,25.84,0,0,1-6.26-.82c-4.1-1-6.92-2.83-8.36-5.34a.84.84,0,0,1,.3-1.15.84.84,0,0,1,1.15.31c1.21,2.1,3.68,3.64,7.32,4.55a19.94,19.94,0,0,0,10.93,0,11.72,11.72,0,0,0,7.65-7,1.49,1.49,0,0,0,.13-.74l0-.05a.84.84,0,0,1-.25-1.65,1.67,1.67,0,0,1,1.9,1.27,3,3,0,0,1-.16,1.71,13.29,13.29,0,0,1-8.73,8A18.48,18.48,0,0,1,91,124.66Z"/><path id="_Path_35" data-name="&lt;Path&gt;" class="cls-5" d="M85.55,119.61c-.48,0-.93,0-1.37-.06L77.11,119a.84.84,0,1,1,.12-1.68l7.08.52a8.37,8.37,0,0,0,2.35,0,8.87,8.87,0,0,0,1.33-.47c.27-.11.56-.23.86-.33a16.45,16.45,0,0,1,4.84-.71c.66,0,1.34-.06,2-.12a17.82,17.82,0,0,0,7.78-2.71.84.84,0,0,1,.9,1.42,19.49,19.49,0,0,1-8.52,3c-.69.07-1.39.1-2.07.13a15.43,15.43,0,0,0-4.37.61l-.77.3a9.84,9.84,0,0,1-1.61.56A6.72,6.72,0,0,1,85.55,119.61Z"/><path id="_Compound_Path_3" data-name="&lt;Compound Path&gt;" class="cls-5" d="M94,138.37c-1.08,0-2.16-.05-3.24-.14-5.38-.46-10.57-2.06-15.59-3.61a126.1,126.1,0,0,1-19.41-7.23c-7-3.48-12.18-7.62-15.85-12.67a44.57,44.57,0,0,1-6.61-14.6,72.92,72.92,0,0,1-2.48-15,120.53,120.53,0,0,1,1.45-23.45,43.61,43.61,0,0,1,1.94-9C35.61,48.75,38,45.33,40.31,42c4-5.68,8.46-12.11,14.92-16a38,38,0,0,1,13.36-4.53,67.13,67.13,0,0,1,21.82-.07.73.73,0,0,1,.35.15.86.86,0,0,1,.32,0c10.84,1.78,21.8,6.39,32.56,13.72,4,2.71,9,6.48,12.32,11.61,5.17,7.93,5.76,18,5.66,26.78-.24,19.81-3.87,30-6.57,36A51,51,0,0,1,117.4,131,42.14,42.14,0,0,1,94,138.37ZM79.71,22.27a64.83,64.83,0,0,0-10.84.91,36.31,36.31,0,0,0-12.78,4.31c-6.15,3.69-10.53,10-14.4,15.5-2.25,3.21-4.57,6.54-5.91,10.24a42.89,42.89,0,0,0-1.86,8.64A119,119,0,0,0,32.49,85a70.77,70.77,0,0,0,2.42,14.68,43,43,0,0,0,6.35,14.06c3.51,4.83,8.49,8.8,15.23,12.16A127.31,127.31,0,0,0,75.65,133c4.94,1.52,10,3.09,15.24,3.54a40,40,0,0,0,25.57-6.94A49.22,49.22,0,0,0,133.52,109c5.52-12.16,6.3-26,6.42-35.31.18-15.21-2.62-21.6-5.38-25.84-3.19-4.89-8-8.52-11.86-11.14C112.14,29.51,101.41,25,90.81,23.25a.81.81,0,0,0-.67-.14A65.3,65.3,0,0,0,79.71,22.27Z"/><path id="_Path_36" data-name="&lt;Path&gt;" class="cls-5" d="M144.56,159.28a.84.84,0,0,1-.73-.42c-2.56-4.51-2.73-8-2.7-12.74s.07-9.6.47-14.4c.75-9,2.8-18,4.79-26.75,2.11-9.21,4.29-18.73,4.89-28.26.23-3.59.28-7.78-1-11.66a37.06,37.06,0,0,0-4.34-8l-6.8-10.47c-4.19-6.47-8.53-13.15-14.78-17.82-6-4.43-16.69-7.29-23.67-4.17A.84.84,0,1,1,100,23c3.48-1.56,8.12-1.88,13.09-.89a31.26,31.26,0,0,1,12.26,5.25c6.5,4.84,11.12,12,15.19,18.24l6.8,10.48a38.12,38.12,0,0,1,4.52,8.43c1.41,4.15,1.35,8.54,1.12,12.29-.61,9.67-2.81,19.26-4.93,28.54-2,8.64-4,17.58-4.76,26.51-.39,4.74-.42,9.58-.46,14.27s.12,7.74,2.48,11.9a.84.84,0,0,1-.32,1.15A.86.86,0,0,1,144.56,159.28Z"/><path id="_Path_37" data-name="&lt;Path&gt;" class="cls-5" d="M36.91,153.68a.84.84,0,0,1-.52-.18c-9.79-7.9-12.86-21.28-14.32-30.67a160.42,160.42,0,0,1,3.28-64.7c3.73-14.26,8.77-24.27,15.86-31.51A44.31,44.31,0,0,1,66.34,13.88c8.25-1.19,23.56-.75,28.56,8.47a.84.84,0,0,1-1.48.8c-2.37-4.39-7.56-6.34-11.49-7.2a44.58,44.58,0,0,0-15.35-.41A42.55,42.55,0,0,0,42.41,27.8c-6.88,7-11.78,16.79-15.43,30.76a158.64,158.64,0,0,0-3.25,64c1.42,9.11,4.38,22.09,13.71,29.62a.84.84,0,0,1,.13,1.18A.83.83,0,0,1,36.91,153.68Z"/><path id="_Path_38" data-name="&lt;Path&gt;" class="cls-5" d="M20.74,137.45a.83.83,0,0,1-.82-.66A203.94,203.94,0,0,1,15.71,82c1.07-18.47,4.58-32.51,11-44.17C34.83,23.21,48.08,13,62.19,10.51a55.64,55.64,0,0,1,12.5-.61c5.27.27,15.09.77,18.74,5.58a8,8,0,0,1,1.19,6.85A.84.84,0,1,1,93,22a6.28,6.28,0,0,0-.89-5.46c-3.18-4.19-12.49-4.67-17.49-4.92a54.09,54.09,0,0,0-12.13.59C48.87,14.56,36.06,24.46,28.21,38.66,21.89,50.1,18.45,63.91,17.38,82.12a202.56,202.56,0,0,0,4.18,54.31.84.84,0,0,1-.64,1Z"/><path id="_Path_39" data-name="&lt;Path&gt;" class="cls-5" d="M12.69,103.22a.84.84,0,0,1-.75-.47C10,98.91,10,94.52,10.21,90c.35-9,1-18.07,1.86-27A68.48,68.48,0,0,1,14.3,49.81c2.12-7,6.3-13.32,10-18.87a74.34,74.34,0,0,1,8-10.6C43.63,8.66,63.11,4.19,77.38,4.94c4.76.25,16.16,1.49,19.12,7.52,1.38,2.83.71,6.24-2,10.16a.84.84,0,1,1-1.38-1c2.34-3.37,3-6.22,1.87-8.46-1-2.07-3.48-3.72-7.33-4.9A45.42,45.42,0,0,0,77.29,6.62C63.4,5.88,44.47,10.2,33.52,21.51a71.22,71.22,0,0,0-7.84,10.36C22.06,37.33,18,43.51,15.91,50.29a67.6,67.6,0,0,0-2.17,12.82c-.88,8.92-1.5,18-1.85,26.93-.17,4.31-.18,8.48,1.56,12a.84.84,0,0,1-.76,1.21Z"/><path id="_Path_40" data-name="&lt;Path&gt;" class="cls-5" d="M152.24,144.39a.83.83,0,0,1-.82-.67c-3.21-15.48-3-28.74.83-43,.47-1.77,1-3.56,1.51-5.28.82-2.78,1.67-5.66,2.3-8.53a60.83,60.83,0,0,0,1.38-13c0-5.32-.77-9.38-2.39-12.8-1.75-3.69-4.53-6.65-7.47-9.78A50.89,50.89,0,0,1,140.82,43a50.44,50.44,0,0,1-3.27-7,46.13,46.13,0,0,0-3.43-7.2,22.26,22.26,0,0,0-13.74-9.74,29.8,29.8,0,0,0-11.14-.1c-5.61,1-7.52,3.33-8.13,5.06a.84.84,0,0,1-1.07.52.85.85,0,0,1-.51-1.08c1.08-3.08,4.34-5.21,9.41-6.15a31.39,31.39,0,0,1,11.81.12,23.93,23.93,0,0,1,14.79,10.47,46.78,46.78,0,0,1,3.56,7.47,48,48,0,0,0,3.17,6.77,49.6,49.6,0,0,0,6.54,8c2.9,3.09,5.89,6.28,7.76,10.21,1.73,3.65,2.54,7.94,2.55,13.52a62.27,62.27,0,0,1-1.42,13.34c-.64,2.93-1.5,5.83-2.33,8.64-.5,1.72-1,3.49-1.49,5.24-3.72,14-4,27-.81,42.23a.84.84,0,0,1-.66,1A.47.47,0,0,1,152.24,144.39Z"/><path id="_Path_41" data-name="&lt;Path&gt;" class="cls-5" d="M163.65,130.3A.8.8,0,0,1,163,130c-3.49-3.67-4-8.91-4.19-14.4a107.71,107.71,0,0,1,0-13.68,111,111,0,0,1,2.16-13c1.68-8.13,3.26-15.8,1.58-23.51a28.23,28.23,0,0,0-5.24-11.19,58.15,58.15,0,0,0-5.54-5.89c-2.78-2.7-5.66-5.48-7.62-9a41.79,41.79,0,0,1-2.95-7.12A49.23,49.23,0,0,0,139,26.45a23.56,23.56,0,0,0-15.19-12.21c-3.8-1-13.89-3.49-19.13.61-2.34,1.82-3.52,4.82-3.52,8.92a.84.84,0,0,1-1.68,0c0-4.64,1.4-8.09,4.16-10.25,5.9-4.59,16.19-2,20.58-.91A25.25,25.25,0,0,1,140.5,25.7a47.22,47.22,0,0,1,2.37,6,40.4,40.4,0,0,0,2.82,6.83c1.85,3.26,4.51,5.84,7.33,8.57a59.59,59.59,0,0,1,5.7,6.06,30,30,0,0,1,5.55,11.88c1.76,8,.06,16.26-1.58,24.2a114.06,114.06,0,0,0-2.13,12.81,106.39,106.39,0,0,0,0,13.48c.2,5.16.64,10.06,3.73,13.31a.85.85,0,0,1-.61,1.42Z"/></svg>