<svg id="Layer_1" data-name="Layer 1" xmlns="http://www.w3.org/2000/svg" viewBox="0 0 36.94 39.01"><defs><style>.cls-1{fill:#e23d4d;}</style></defs><title>download</title><g id="_Group_" data-name="&lt;Group&gt;"><path class="cls-1" d="M8.46,39a6.42,6.42,0,0,1-2.55-.42c-.23-.09-.44-.21-.66-.32a3.21,3.21,0,0,0-.83-.36,4.28,4.28,0,0,0-.82,0A2.55,2.55,0,0,1,1.14,37a2.57,2.57,0,0,1-.36-1.33C.11,25.34-.13,14.85.07,4.48l.1-1.61a2,2,0,0,1,1-2.06A4,4,0,0,1,3,.38,171.18,171.18,0,0,1,25,.32a4.39,4.39,0,0,1,2.91,1,4.34,4.34,0,0,1,1,2.62,162.78,162.78,0,0,1,1.36,16.8l-1.72.05A162.09,162.09,0,0,0,27.19,4.16a2.94,2.94,0,0,0-.54-1.63,3,3,0,0,0-1.81-.48A169.58,169.58,0,0,0,3.1,2.1a2.54,2.54,0,0,0-1,.21.39.39,0,0,0-.19.23l0,.16v.15L1.79,4.56c-.19,10.27.05,20.72.71,31a1.61,1.61,0,0,0,.08.49c.09.13.57.11,1,.1a6.05,6.05,0,0,1,1.19.05,4.27,4.27,0,0,1,1.34.54c.17.09.34.18.51.25a6.29,6.29,0,0,0,2.57.27L16.82,37l11.23-.37a1,1,0,0,0,.25,0l.6,1.63a2.53,2.53,0,0,1-.79.12l-11.2.37L9.19,39Z"/></g><g id="_Group_2" data-name="&lt;Group&gt;"><path class="cls-1" d="M8.34,7a8.13,8.13,0,0,1-1.29-.08c-.22,0-.45-.08-.67-.13l-.29-.06A8.39,8.39,0,0,0,4,6.52.86.86,0,1,1,3.89,4.8,9.87,9.87,0,0,1,6.43,5l.32.07.56.11a10,10,0,0,0,1.25,0l8.86,0A6.44,6.44,0,0,0,19,5,7.12,7.12,0,0,0,20,4.66a9.72,9.72,0,0,1,1.08-.43,8.73,8.73,0,0,1,4.68.26.86.86,0,1,1-.42,1.67,7.35,7.35,0,0,0-3.76-.28,6.49,6.49,0,0,0-.86.35,7.69,7.69,0,0,1-1.2.47,8,8,0,0,1-2.08.21L8.58,7Z"/></g><g id="_Group_3" data-name="&lt;Group&gt;"><path class="cls-1" d="M15.33,11a39.36,39.36,0,0,1-4.08-.28,23.36,23.36,0,0,0-6.12-.12.87.87,0,1,1-.27-1.71A25.32,25.32,0,0,1,11.43,9c2.61.28,5.07.53,7.39-.2l.3-.1a6.9,6.9,0,0,1,1.25-.32,6,6,0,0,1,1.35,0l3.1.27a.86.86,0,0,1-.15,1.72l-3.09-.27a5.76,5.76,0,0,0-1,0,5,5,0,0,0-.91.25l-.33.11A13.43,13.43,0,0,1,15.33,11Z"/></g><g id="_Group_4" data-name="&lt;Group&gt;"><path class="cls-1" d="M18.12,15.32a6.69,6.69,0,0,1-2.21-.5l-.75-.26a13.1,13.1,0,0,0-4.85-.09,16.1,16.1,0,0,1-4.9,0,.87.87,0,1,1,.34-1.7,14.64,14.64,0,0,0,4.38,0,14.22,14.22,0,0,1,5.51.16c.28.08.57.18.85.28a4.6,4.6,0,0,0,1.68.4,4.86,4.86,0,0,0,1.22-.26A6.41,6.41,0,0,1,21.1,13a6.82,6.82,0,0,1,1.06.1,3,3,0,0,0,1,.05,4,4,0,0,0,.85-.34,2.74,2.74,0,0,1,2.6-.28.86.86,0,1,1-.82,1.52c-.17-.09-.53.07-1,.31a5.79,5.79,0,0,1-1.27.49,4.58,4.58,0,0,1-1.62,0,4.49,4.49,0,0,0-.78-.08,4.67,4.67,0,0,0-1.24.26,7,7,0,0,1-1.67.33Z"/></g><g id="_Group_5" data-name="&lt;Group&gt;"><path class="cls-1" d="M18,20.53a3.47,3.47,0,0,1-1.93-.84,6.61,6.61,0,0,0-.59-.39,4.5,4.5,0,0,0-2-.3H6.27a.86.86,0,1,1,0-1.72l7.19,0a5.85,5.85,0,0,1,2.85.51,7,7,0,0,1,.78.51c.36.25.8.57,1,.49a1.36,1.36,0,0,0,.27-.22l.08-.07A7,7,0,0,1,25.09,17a.86.86,0,1,1-.51,1.65,5.24,5.24,0,0,0-5,1.09l-.06.06a2.76,2.76,0,0,1-.74.53A1.85,1.85,0,0,1,18,20.53Z"/></g><g id="_Group_6" data-name="&lt;Group&gt;"><path class="cls-1" d="M17.28,23.9H17c-4,0-8-.09-12-.21A.87.87,0,1,1,5,22c4,.12,8,.19,12,.21a5.13,5.13,0,0,0,2.66-.42.86.86,0,0,1,.87,1.49A6.31,6.31,0,0,1,17.28,23.9Z"/></g><g id="_Group_7" data-name="&lt;Group&gt;"><path class="cls-1" d="M6.67,28.38a2.25,2.25,0,0,1-1.32-.59l-.3-.21a.86.86,0,0,1-1-.55.87.87,0,0,1,.53-1.11,1.89,1.89,0,0,1,1.81.5l.23.18.09-.08a4.38,4.38,0,0,1,3.21-.66,6.85,6.85,0,0,0,1.36,0,6,6,0,0,0,.61-.13l.61-.13a9.06,9.06,0,0,1,2.38,0l3.29.23a.87.87,0,0,1-.12,1.73l-3.29-.24a8,8,0,0,0-2,0l-.5.11a7.2,7.2,0,0,1-.78.16,8.81,8.81,0,0,1-1.7,0,3,3,0,0,0-2,.27l-.06.06a2,2,0,0,1-.58.36A1.31,1.31,0,0,1,6.67,28.38Z"/></g><g id="_Group_8" data-name="&lt;Group&gt;"><path class="cls-1" d="M8.58,32.25A2.2,2.2,0,0,1,8,32.18a3.05,3.05,0,0,1-.5-.2l-.14-.06a4,4,0,0,0-1.76-.14A.86.86,0,0,1,4.7,31a.85.85,0,0,1,.8-.92,5.38,5.38,0,0,1,2.56.27l.19.09a2.18,2.18,0,0,0,.23.09,1.77,1.77,0,0,0,.86-.19l.21-.07a14.64,14.64,0,0,1,5-.57h2a.87.87,0,1,1,0,1.73H14.52a12.89,12.89,0,0,0-4.4.47l-.18.06A3.78,3.78,0,0,1,8.58,32.25Z"/></g><g id="_Group_9" data-name="&lt;Group&gt;"><path class="cls-1" d="M29.29,39a.89.89,0,0,1-.62-.25l-8.25-8.38a1.38,1.38,0,0,1,.71-2.33,21.28,21.28,0,0,1,3-.37V21.8a.88.88,0,0,1,0-.17l.12-.61a.87.87,0,0,1,.75-.68c1.43-.17,2.89-.32,4.32-.45l2.15-.17a.85.85,0,0,1,.92.82,59.59,59.59,0,0,1,0,6.41l3.72.1a.89.89,0,0,1,.73.44.85.85,0,0,1,0,.86c-2.11,3.53-4.41,7-6.83,10.31a.88.88,0,0,1-.63.35ZM22.1,29.63l7.08,7.19c1.89-2.62,3.69-5.33,5.38-8.09l-3.12-.08a.87.87,0,0,1-.61-.28.9.9,0,0,1-.23-.64,61.43,61.43,0,0,0,.12-6.22l-1.24.1c-1.2.11-2.42.23-3.63.37l0,6.55a.86.86,0,0,1-.86.86A18.42,18.42,0,0,0,22.1,29.63Z"/></g></svg>