<svg id="Layer_1" data-name="Layer 1" xmlns="http://www.w3.org/2000/svg" viewBox="0 0 1366 768"><defs><style>.cls-1{fill:#00bfb3;}.cls-2{opacity:0.2;}.cls-3{fill:#fff;}</style></defs><title>Fondos</title><path class="cls-1" d="M1366.11,0V673.29c-40.45-113.87-74.5-171.14-184-224.57-170.07-83-366.3-17.59-445.82,18.71-198.83,90.78-211.43,144.81-374.7,174.86C255.75,661.77,110.85,651.34.08,583.1L0,0Z"/><g class="cls-2"><path class="cls-3" d="M1138.19,169.74c-20.06-32.15-52.27-54.68-86.18-60.2-11.38-1.85-24-2.1-39.64-.74-28.6,2.5-52.51,8.73-73.12,19.1a129.45,129.45,0,0,0-55.1,52.73,17.08,17.08,0,0,0-.53,15l-.15,1.08c-5.86,37.27-10.52,66.73,2.47,104,1.85,5.33,8.39,14.68,16.72,26.31,2.25,3.15,4.19,5.83,5.21,7.38,5.68,8.7,16.11,13.2,25.33,17.18,3.46,1.51,6.7,2.93,9.44,4.41,27.46,15.06,57.26,22.71,85.59,22.71,22.49,0,44.06-4.81,62.72-14.59,32.86-17.16,57.57-49.61,66.06-86.82C1165.24,241.28,1158.36,202.1,1138.19,169.74Zm-241.39,29,.49-3.27L898,193l-1.73-2.28a4.55,4.55,0,0,1-.65-2.19,3,3,0,0,1,.37-1.45A115.73,115.73,0,0,1,945.3,140c19.06-9.59,41.37-15.39,68.24-17.71,4-.34,7.65-.58,11.17-.71l-.52,28.39a25.32,25.32,0,0,0-20.12,43.81,26.43,26.43,0,0,0,13.54,7,40.37,40.37,0,0,1-7.68,30.11,85.69,85.69,0,0,1-10.52,10.77c-2.53,2.35-5.18,4.75-7.68,7.41l-4,4.16,3.55,4.6c4,5.15,7.86,10.77,9.47,16.87,1.48,5.74.52,11.39-2.5,14.78-2.69,3-7.93,3.8-10.43,1.61a16.52,16.52,0,0,1-1.63-1.82,28.77,28.77,0,0,0-3.34-3.46c-5.46-4.63-13.79-5.74-21.75-2.93-4.93,1.73-9,4.51-12.86,7.16-.81.55-1.61,1.08-2.38,1.63A102.1,102.1,0,0,1,907,307.06a6.91,6.91,0,0,0-1.58.49c-3.2-4.72-6.07-9.19-6.78-11.29C886.8,262.17,891,235.58,896.8,198.77Zm187.92,153.4c-38.26,20-90.21,16.9-135.6-8a114.5,114.5,0,0,0-10.58-5c-7.81-3.39-15.92-6.88-19.38-12.19-1.14-1.72-3-4.41-5.3-7.56a115.6,115.6,0,0,0,39.46-16.66c.83-.55,1.69-1.11,2.53-1.69,3.33-2.29,6.48-4.45,9.72-5.59s6.78-1,8.57.53a17.77,17.77,0,0,1,1.73,1.88,28.06,28.06,0,0,0,3,3.18c8,7.09,21.72,5.83,29.38-2.72,6.1-6.79,8.17-16.94,5.52-27.12a53.22,53.22,0,0,0-8.3-16.94c1-.92,2-1.85,3-2.8a99.14,99.14,0,0,0,12.1-12.5,52.21,52.21,0,0,0,3.92-5.95l48.37,33,4-4.2c6-6.38,12-9.93,17.9-10.61,5.27-.62,12,2.13,13.51,7.16,1.64,5.3-2.34,11.63-4.13,14.1-1,1.39-3.37,4.69-2.35,8.95a10.72,10.72,0,0,0,4.54,6.13l25.36,18.18A116.23,116.23,0,0,1,1084.72,352.17Zm59.14-77.87a117.33,117.33,0,0,1-6.17,19.22l-21.16-15.18c5.24-8.15,6.88-16.54,4.66-23.82-3.34-10.92-15.37-18.08-28-16.63-7.62.89-15,4.47-22,10.74l-41.53-28.39a53.49,53.49,0,0,0-.09-27.8l-1.49-5.36-5.58.46a11.85,11.85,0,0,1-8.51-21.23,12.38,12.38,0,0,1,9.56-2.87c2.59.43,8.73,1.42,12.28-3.79a11.5,11.5,0,0,0,1.73-6.33l.58-31.68a109.53,109.53,0,0,1,11.67,1.2c30.11,4.94,58.86,25.14,76.88,54C1145.07,206.23,1151.3,241.75,1143.86,274.3Z"/></g></svg>