<svg id="Layer_1" data-name="Layer 1" xmlns="http://www.w3.org/2000/svg" viewBox="0 0 1366 768"><defs><style>.cls-1{fill:#00bfb3;}.cls-2{fill:#fff;}.cls-3{fill:#e23d4d;}.cls-4{fill:#dbd9d6;}.cls-5{fill:#001e2d;}.cls-6{fill:#072b31;}</style></defs><title>CNDH</title><path class="cls-1" d="M1366,0V533.77q-6.9,1.69-14.17,3.57c-84.09,21.67-188.65-98.76-318-22.64-134.15,78.92-150.66,155.89-216,212A379.38,379.38,0,0,1,759.73,768H0V0Z"/><path id="_Path_" data-name="&lt;Path&gt;" class="cls-2" d="M737.76,260.56c3.67-22,22.83-49.82,48.53-59.32s177.73-53,244.25-11.66,67.15,77,66.83,88.87-.87,18.92,5.94,25.2,10.13,23.56,0,35.87,5.62,38.1-8.64,44.63-17.22,4-19.59,20.71-7.13,63-13.07,77.28-33.85,95-48.1,110.46-34.8,39.2-85.69,41.57-91.72-31.63-100.71-70.45-12-61.39-13.19-84,3-39.24-8.27-39.52-27.22-8.2-27.31-26.4S748.65,385,753,368.12s-7.72-36.94-8.51-42.72S733.41,286.62,737.76,260.56Z"/><g id="_Group_" data-name="&lt;Group&gt;"><path class="cls-1" d="M764.59,356c4.65-.29,8.5-4,10.44-8.24s2.39-9,3-13.58c4.15-30.26,20.6-61.54,49.41-71.67,40.78-14.33,87.36,18.57,127.82,3.36,12.46-4.69,23.17-13.67,36.1-16.84,19.57-4.8,39.62,4.59,57,14.76,10.65,6.23,21.45,13.22,27.88,23.75,2.43,4,6,9.17,10.37,7.42,3.06-1.24,3.74-5.21,3.76-8.51.22-39.92-30.71-75-67.44-90.62s-78.14-15.41-117.91-12q-20.44,1.74-40.78,4.42c-27,3.5-54.47,8.31-78,22s-42.51,38-42.74,65.21c-.07,9.1,1.91,18.08,3.88,27l6.65,30c1.71,7.73,2.73,22.16,10.5,23.64"/></g><g id="_Group_2" data-name="&lt;Group&gt;"><path class="cls-1" d="M807.35,332.6a62.28,62.28,0,0,1,77.79-13.16c3.45,2,7.08,5,6.9,8.93s-4.28,6.7-8.19,6.9-7.65-1.47-11.25-3q-10.22-4.39-20.82-7.79c-4.36-1.4-8.9-2.69-13.46-2.24-7.89.77-14.32,6.5-19.72,12.29a18.06,18.06,0,0,1-5,4.29c-2,1-4.59,1.07-6.26-.39s-1.63-4.66.38-5.6"/></g><g id="_Group_3" data-name="&lt;Group&gt;"><path class="cls-3" d="M893.18,556.17c5.28,2.32,9.84,6,15.32,7.84,14.53,4.78,30.89,5.76,44.85-.51a20.12,20.12,0,0,0,7.58-5.28,9.58,9.58,0,0,0,2.09-8.69c-1.76-5.58-8.94-7-14.79-6.85-5.11.17-10.25.86-15.31.12-6.45-1-12.42-4.21-18.91-4.87a48,48,0,0,0-11,.58c-6.55.84-13.08,1.81-19.64,2.54C879.77,541.45,883.44,551.88,893.18,556.17Z"/></g><g id="_Group_4" data-name="&lt;Group&gt;"><path class="cls-3" d="M877.19,530.37c12.8-5.06,27.77-3.94,40.86.33a50.39,50.39,0,0,0,6,1.8,33.28,33.28,0,0,0,6,.43l24,.25c2.86,0,6,0,8.12-2,1.91-1.75,2.4-4.63,2-7.19-1.34-8-9.66-12.55-17.29-15.16-13.3-4.54-27.72-6.56-41.51-3.86S871,524.14,871,527.4,873.62,531.78,877.19,530.37Z"/></g><g id="_Group_5" data-name="&lt;Group&gt;"><path class="cls-4" d="M910.17,610.15a74.76,74.76,0,0,1-2.94-16.86,16.35,16.35,0,0,1,.9-7.62c3.34-7.47,13.79-7,22-6.93,29,.4,56.92-21,64.09-49.08,1.12-4.4,1.78-9.07.61-13.46-2.29-8.6-10.93-14.17-14-22.52-2.9-7.84-.32-16.78,4.19-23.83s10.79-12.74,16.22-19.09c7.36-8.62,13.29-18.74,15.48-29.86s.31-23.32-6.54-32.35c-10.69-14.08-31-18.19-41.58-32.35-5.18-6.93-7.59-15.75-13.35-22.21-4.94-5.54-11.88-8.82-18.62-11.95-24.29-11.29-49.61-22.82-76.4-22.56-5.48,0-11,.6-16.39-.51s-10.7-4.28-12.65-9.4c-3.32-8.78,5.24-18.27,14.47-20s18.5,1.74,27.53,4.29a150.25,150.25,0,0,0,85.62-1.34c15-4.72,29.58-11.89,45.25-12,19-.11,36.35,10.15,52.56,20.09,4.65,2.85,9.55,6,11.77,11,2.32,5.18,2.14,12.64,7.48,14.59,2.08.76,4.43.32,6.58.87,7.1,1.82,7.28,11.76,5.86,19l-7.77,39.56c-.48,2.44-1.35,5.32-3.74,6s-4.74-1.42-7.23-1.88c-3.45-.62-6.77,2.17-8,5.44s-1,6.9-.77,10.4c3.29,56.85-18.6,111.79-40.1,164.52-4.43,10.88-8.91,21.85-15.46,31.61-18.87,28.14-55.34,43.28-88.59,36.78-4.08-.8-9.2-3.94-7.51-7.73"/></g><g id="_Group_6" data-name="&lt;Group&gt;"><path class="cls-4" d="M777.82,380.85c-5.67-2-4.53-11.39.68-14.43s11.77-1.77,17.65-.41c7.56,1.75,15.89,4,20.06,10.57,3.49,5.48,3.09,12.53,5.22,18.67,5.75,16.6,28,22.6,34.47,38.92,3.42,8.57,1.74,18.26-.36,27.25-.9,3.85-2.1,8-5.38,10.25s-7.68,1.76-11-.17-5.84-5.12-7.92-8.39a69.1,69.1,0,0,1-10-26.38c-.76-4.84-1.62-10.67-6.11-12.65-1.61-.72-3.43-.76-5.16-1.13-9.2-2-13.54-12.31-16.71-21.18s-8.38-19-17.76-19.9"/></g><g id="_Group_7" data-name="&lt;Group&gt;"><path class="cls-1" d="M991.52,321.88c-3.39,2.79-9,1.69-11.65-1.79s-2.58-8.59-.44-12.42c4.37-7.79,14.74-9.52,23.67-9.51,11.51,0,23.25,1.56,33.59,6.61,6.08,3,11.87,7.49,14.06,13.89.54,1.56.72,3.57-.58,4.59-1.82,1.4-4.26-.46-6-1.94-4.23-3.55-9.73-5.26-15.2-6.1a59.28,59.28,0,0,0-38.4,7.22"/></g><path id="_Path_2" data-name="&lt;Path&gt;" class="cls-5" d="M1071.2,373.45c-.2,2.13-.41,4.25-.63,6.39a13.45,13.45,0,0,1-4.76-3.25l4.33-4.06A7.14,7.14,0,0,0,1071.2,373.45Z"/><path id="_Path_3" data-name="&lt;Path&gt;" class="cls-5" d="M818.35,429.18a15.72,15.72,0,0,1-2.48,1.65c-.49-2-1-4-1.55-6l.27-.21a3,3,0,1,1,3.76,4.6Z"/><path id="_Path_4" data-name="&lt;Path&gt;" class="cls-3" d="M949.12,455a53.51,53.51,0,0,1-8.77-.94c-1.78-.29-3.47-.57-5.16-.73a75.57,75.57,0,0,0-13.56.33,93.07,93.07,0,0,1-12.88.45,33.24,33.24,0,0,1-14.23-4c-4.87-2.76-8.19-6.68-9.59-11.34-1.86-6.18-.13-12.2,1.54-18,.39-1.37.76-2.67,1.09-4,4.37-17.41-.37-36.08-4.55-52.55a3,3,0,0,1,5.76-1.46c4.35,17.15,9.28,36.59,4.55,55.45-.35,1.4-.75,2.8-1.14,4.16-1.5,5.23-2.92,10.17-1.57,14.67,2.14,7.09,10.82,10.7,18.47,11.13a86.53,86.53,0,0,0,12.06-.44,81.59,81.59,0,0,1,14.61-.32c1.89.18,3.76.48,5.56.78A38.09,38.09,0,0,0,951,449a17.83,17.83,0,0,0,15-12.1c2.78-8.8-1.56-18.38-5.76-27.65-.33-.74-.67-1.48-1-2.21-6.68-14.9-6.81-26.95-.38-34.84a3,3,0,1,1,4.6,3.75c-3.43,4.21-6,12.6,1.2,28.66l1,2.19c4.45,9.8,9.48,20.92,6,31.89a23.93,23.93,0,0,1-20.08,16.22C950.72,455,949.92,455,949.12,455Z"/><path id="_Compound_Path_" data-name="&lt;Compound Path&gt;" class="cls-6" d="M1018.19,361.57a24.83,24.83,0,0,1-7.65-1.16c-2.67-.53-13.74-3.07-16.19-8.94a6.79,6.79,0,0,1,.83-6.64h0c7.22-10.83,21.15-15.9,34.64-12.63a15.49,15.49,0,0,1,8,4.19c3.71,4,4,10.79.73,15.84-3.2,4.9-8.55,7.2-12.47,8.26A30.2,30.2,0,0,1,1018.19,361.57Zm-18.07-13.45c-.45.68-.35.93-.29,1.07.68,1.62,5.67,4.19,12,5.43l.36.09a21.41,21.41,0,0,0,12.3.05c2.93-.79,6.88-2.44,9.06-5.78,1.59-2.43,2-6.3-.1-8.54a9.93,9.93,0,0,0-5-2.47c-11.09-2.69-22.47,1.39-28.31,10.15Z"/><path id="_Compound_Path_2" data-name="&lt;Compound Path&gt;" class="cls-6" d="M1096,304.75a30.14,30.14,0,0,0-3.87-2.78c1.45-15.76-1.76-32.23-9.28-47.76A111.12,111.12,0,0,0,1051,215.13c-23.88-18.55-56.28-29.33-93.67-31.18-33.22-1.64-66.43,3.52-98.54,8.51-18.48,2.87-37.58,5.84-55,14.28A99,99,0,0,0,751,275.32c-5.67,28.67,2.6,60,21.61,82.15a17.2,17.2,0,0,0-8.45,14.22c-.22,8.34,5.6,15.16,11.33,20.74l.36.35a35.92,35.92,0,0,1,5.14,5.76c2.08,3.19,3,7.07,4,11.17a48.68,48.68,0,0,0,3.51,10.87A22.69,22.69,0,0,0,801.14,432a18.79,18.79,0,0,0,6,1,18.33,18.33,0,0,0,8.71-2.15c4.17,17.57,5.84,35.95,7.48,53.92.38,4.17.78,8.49,1.2,12.72,3.16,32,8.82,65.16,28.65,90.93,16.17,21,41.35,35,67.33,37.31,2.68.25,5.37.37,8.05.37a92,92,0,0,0,64.35-26.17c14.71-14.61,23.69-33.63,32.34-53.47,10.39-23.85,22.11-52.16,30.15-81.22,7.74-28,12.19-56.65,15.15-85.38a15.43,15.43,0,0,0,5.82,1.12h.24a14.45,14.45,0,0,0,10.69-4.69c4.11-4.65,4.58-10.91,5-16.44.38-5.1.9-10.5,2.67-15.45a69.13,69.13,0,0,1,3.23-7.19c2.36-4.77,4.8-9.71,5.06-15.38A21.45,21.45,0,0,0,1096,304.75ZM756.78,276.47a93,93,0,0,1,49.65-64.39c16.57-8.05,35.24-10.94,53.28-13.75,31.82-4.94,64.71-10.06,97.34-8.45,25.22,1.25,61.37,7.46,90.32,29.94a105.34,105.34,0,0,1,30.11,37c6.68,13.8,9.73,28.37,8.87,42.35-3.49-1.28-7.28-1.91-10.6-.93a28.65,28.65,0,0,0-.76-4,3,3,0,0,0,.34-.57l2.8-6.45a19,19,0,0,0,1.33-3.74,18.51,18.51,0,0,0,.24-5.05c-.13-2.92-.33-5.86-.57-8.74a3,3,0,0,0-5.92.49c.24,2.81.43,5.68.56,8.53a14.11,14.11,0,0,1-.12,3.52,14.85,14.85,0,0,1-1,2.62l-.92,2.1a32.57,32.57,0,0,0-4.31-5.32,1.55,1.55,0,0,0,.07-.31l1.17-6.8c1-5.7,2.11-12.16.87-18.51a42.73,42.73,0,0,0-2.33-7.5,114.31,114.31,0,0,0-5.54-12,3,3,0,1,0-5.24,2.8,108.26,108.26,0,0,1,5.25,11.37,37,37,0,0,1,2,6.46c1,5.29,0,10.92-.89,16.37l-.61,3.58c-1.71-1.32-3.45-2.54-5.15-3.69l-1.11-.74a99.46,99.46,0,0,0-.56-20.74c-1.27-8-4.08-14.8-8.36-20.06-1.28-1.58-2.7-3-4.07-4.43-2.61-2.67-5.08-5.19-6.28-8.25a3,3,0,0,0-5.53,2.17c1.64,4.18,4.65,7.26,7.57,10.23,1.33,1.36,2.59,2.65,3.7,4,3.61,4.44,6,10.25,7.11,17.25a84.08,84.08,0,0,1,.65,16.15c-3.38-2-7.11-4.13-11.09-6.08a59.77,59.77,0,0,0-17.63-41.2c-.78-.78-1.59-1.53-2.37-2.26-2.72-2.55-5.29-5-6.73-7.93a3,3,0,0,0-5.35,2.61c1.93,4,5,6.85,8,9.65.79.74,1.53,1.43,2.26,2.15a53.88,53.88,0,0,1,15.73,34.2,102.16,102.16,0,0,0-13-4.58,2.37,2.37,0,0,0-.18-.73l0-.06c-2.25-5.83-4.56-11.86-7.13-17.7-3.1-7-6.82-14.24-13.09-19.16a54.49,54.49,0,0,0-8.67-5.24c-4.39-2.31-8.54-4.48-11-8.12a3,3,0,0,0-4.94,3.29c3.26,4.91,8.29,7.54,13.16,10.09a49.68,49.68,0,0,1,7.75,4.65c5.24,4.11,8.54,10.54,11.32,16.88,2.09,4.76,4,9.69,5.91,14.53a65.12,65.12,0,0,0-16.07-1c-5.08-11.21-10.91-23.76-21.53-32.15-1.72-1.36-3.52-2.56-5.26-3.73-1.92-1.29-3.73-2.5-5.4-3.88-2.41-2-5.42-5.14-6.1-8.94a3,3,0,1,0-5.84,1c.79,4.5,3.53,8.71,8.17,12.51,1.9,1.56,3.91,2.91,5.86,4.22,1.72,1.15,3.35,2.25,4.89,3.46,9,7.11,14.41,18.12,19,28.27a48.82,48.82,0,0,0-13.15,4.43,88.93,88.93,0,0,0-25-34.13c-1.31-1.1-2.66-2.16-3.95-3.19a82.35,82.35,0,0,1-7.26-6.18c-3.67-3.66-5.88-7.38-6.58-11.08a3,3,0,0,0-5.83,1.11c.92,4.89,3.69,9.66,8.22,14.18a89.94,89.94,0,0,0,7.76,6.63c1.27,1,2.58,2,3.82,3.08a83.12,83.12,0,0,1,23.63,32.59c-2,1.33-4,2.76-5.85,4.15a82.56,82.56,0,0,1-8.19,5.59c-.65.37-1.3.72-2,1.05a88.73,88.73,0,0,0-34.16-46.81c-.91-.62-1.83-1.22-2.74-1.83a49,49,0,0,1-7.92-6c-3.09-3.1-4.68-6.71-4.37-9.9a3,3,0,1,0-5.91-.59c-.48,5,1.73,10.31,6.07,14.68a54.35,54.35,0,0,0,8.86,6.77c.88.58,1.77,1.16,2.64,1.76a82.63,82.63,0,0,1,32,44.22A51.94,51.94,0,0,1,939,276.8a50.94,50.94,0,0,0-15.82-26.24,99.33,99.33,0,0,0-13.4-9.36c-5.31-3.29-10.33-6.39-14.48-10.54a37.69,37.69,0,0,1-10.93-25.36,3,3,0,0,0-5.94.17,43.68,43.68,0,0,0,12.67,29.39c4.64,4.65,10.19,8.07,15.56,11.39A93.67,93.67,0,0,1,919.28,255a45,45,0,0,1,13.68,22,87.66,87.66,0,0,1-12.44-.91c-1.22-7-6-12.27-9.83-15.49a81,81,0,0,0-11-7.31c-1.25-.74-2.55-1.51-3.8-2.27-8.26-5.09-14.49-10.5-19.06-16.53-5.31-7-8.28-15.08-8.35-22.68a3,3,0,0,0-5.94.05c.09,8.88,3.48,18.18,9.56,26.21,5,6.64,11.78,12.53,20.68,18,1.3.79,2.62,1.57,3.9,2.33a76.18,76.18,0,0,1,10.21,6.75c2.65,2.22,5.84,5.6,7.25,9.86-3.64-.71-7.09-1.54-10.23-2.37-3.44-.9-7-1.89-10.37-2.85s-6.76-1.91-10.18-2.81a33.49,33.49,0,0,0-9.92-14.58,61.91,61.91,0,0,0-5.9-4.34c-1.75-1.18-3.4-2.3-4.93-3.57-9-7.39-13-19.15-15.53-28.57a3,3,0,1,0-5.73,1.53c2.53,9.48,7.09,23.06,17.48,31.63,1.75,1.44,3.6,2.69,5.39,3.9a56,56,0,0,1,5.35,3.93,27.9,27.9,0,0,1,6.57,8.29,103.74,103.74,0,0,0-24.74-3c-2.2-4.82-5.69-8.7-9.06-12.45a55,55,0,0,1-7.17-9.13,26,26,0,0,1-3.32-15.38,3,3,0,1,0-5.91-.57A32,32,0,0,0,830,243.66a61.34,61.34,0,0,0,7.9,10.13,57.46,57.46,0,0,1,7,8.86,65.36,65.36,0,0,0-14,3.11,50.7,50.7,0,0,0-3.72-3.63A42.15,42.15,0,0,1,824,259c-5.75-6.38-7.18-15.53-8.35-26a3,3,0,0,0-5.9.67c1,8.84,2.35,20.95,9.84,29.26a48.78,48.78,0,0,0,3.66,3.56c.59.54,1.17,1.06,1.72,1.58A67,67,0,0,0,817.5,272l-3.4-3a42.18,42.18,0,0,1-6.1-6.15c-4.87-6.53-5.35-15.89-5.75-23.42a3,3,0,0,0-5.93.31c.43,8.33,1,18.69,6.91,26.66a47,47,0,0,0,6.95,7.06l2.22,1.95a66.11,66.11,0,0,0-8.15,7.07,60.77,60.77,0,0,1-13.64-34.83,3,3,0,0,0-5.93.36,66.8,66.8,0,0,0,15.56,39c-.84,1-1.64,2.06-2.41,3.14-1.11,1.55-2.21,3.17-3.29,4.88a57.56,57.56,0,0,1-13.9-32.3,3,3,0,0,0-5.91.56,63.53,63.53,0,0,0,16.63,37.09c-1.49,2.67-2.9,5.46-4.17,8.34-2.69-1.87-4.84-4.75-6.82-7.6-3.74-5.36-7.31-11.19-8.15-17.42a3,3,0,0,0-5.88.79c1,7.49,5,14,9.16,20,2.44,3.5,5.35,7.36,9.41,9.8a77.43,77.43,0,0,0-3.47,12.2,26.12,26.12,0,0,1-5.81-5.52,40.63,40.63,0,0,1-4.27-8.27l-4-9.51a3,3,0,1,0-5.47,2.33l4,9.5a45.74,45.74,0,0,0,5,9.48,35.52,35.52,0,0,0,9.67,8.54,45.82,45.82,0,0,0,.91,14.17l.06.21.07.2c1,2.59,2.14,5.29,3.32,8.07a17.07,17.07,0,0,0-6.29-.27,2.39,2.39,0,0,0-.38-.52A93,93,0,0,1,756.78,276.47ZM803,426.38a16.76,16.76,0,0,1-9.29-8.47,43.77,43.77,0,0,1-3-9.57c-1.05-4.42-2.14-9-4.78-13a40.34,40.34,0,0,0-6-6.77l-.36-.36c-5.05-4.91-9.69-10.29-9.54-16.33a11,11,0,0,1,16.73-9,2.88,2.88,0,0,0,1.39.44c3.09,6.93,6.44,14.14,9.74,21.22,3.49,7.5,6.79,14.58,9.61,21a140.6,140.6,0,0,1,6.8,19.36A12.44,12.44,0,0,1,803,426.38Zm246.65,37.25c-7.94,28.71-19.55,56.77-29.87,80.44-8.41,19.29-17.11,37.76-31.07,51.62C971.29,613,946,622,921.06,619.8c-24.36-2.19-48-15.27-63.15-35C839,560.19,833.53,528,830.46,496.89c-.42-4.21-.81-8.52-1.19-12.68-2.5-27.35-5.08-55.64-16.32-81.18-2.84-6.45-6.15-13.56-9.66-21.09-5.81-12.48-11.82-25.39-16.12-36.28-3.9-17.05,5.89-38.69,15.49-52.07a61.61,61.61,0,0,1,43.61-25.1c15.26-1.46,30.71,2.89,45.66,7.11,3.43,1,7,2,10.47,2.88,16.17,4.24,39.89,8.6,59.09-2.36a89.12,89.12,0,0,0,8.79-6,82.63,82.63,0,0,1,8.17-5.57c10.46-6,23.07-7.28,37.48-3.86,11.89,2.83,25,8.92,37.83,17.63,5.77,3.91,12.16,8.64,14.78,15.26,2,5.21,1.67,11.42,1.33,16.92C1066.73,361.31,1063.48,413.82,1049.69,463.63Zm47.66-142.09c-.21,4.42-2.27,8.6-4.46,13a72.93,72.93,0,0,0-3.49,7.83c-2,5.64-2.59,11.49-3,17-.36,4.83-.73,9.8-3.52,13a8.57,8.57,0,0,1-6.33,2.69,8.93,8.93,0,0,1-5.34-1.58c2-21,3.32-41.89,4.59-62.56.13-2,.26-4.15.28-6.3,3.81-2.85,12.25,1.38,16,4.65A15.62,15.62,0,0,1,1097.35,321.54Z"/><path id="_Compound_Path_3" data-name="&lt;Compound Path&gt;" class="cls-6" d="M848.05,375.32c-8.61,0-14.72-2.19-18.17-6.52h0c-4.47-5.62-2-14.14,2.53-19.29,4-4.47,10.14-7.18,17-7.44,5.24-.21,10.77.89,17.4,3.46a21,21,0,0,1,6.94,3.94,13.6,13.6,0,0,1,.75,18.67c-3.47,3.79-8.49,5-12.51,5.57a65.56,65.56,0,0,1-12.32,1.59C849.11,375.32,848.57,375.32,848.05,375.32ZM850.61,348l-1,0c-5.23.2-9.88,2.19-12.77,5.44s-4.66,8.72-2.32,11.66h0c3,3.8,9.8,4.42,14.94,4.26a61.1,61.1,0,0,0,11.23-1.45l.28-.05c4.56-.67,7.37-1.82,9.13-3.73a7.73,7.73,0,0,0-.42-10.31,15.65,15.65,0,0,0-5-2.76C859.23,349,854.74,348,850.61,348Z"/><path id="_Compound_Path_4" data-name="&lt;Compound Path&gt;" class="cls-6" d="M971.22,520.17c-2.3-3.71-5.93-6.14-8.82-7.84a86.8,86.8,0,0,0-17.75-7.61c-16.81-5.33-32.06-6.32-45.33-3-16.19,4.12-29.33,15.5-34.28,29.69-.22.64-.8,2.32,1.89,6.37l.22.31a91.68,91.68,0,0,0,12.05,11.33c2.14,1.77,4.37,3.6,6.72,5.77a55.44,55.44,0,0,0,37.22,14.43,52.36,52.36,0,0,0,5.87-.33A55.36,55.36,0,0,0,967.92,546C974.29,536.78,975.53,527.12,971.22,520.17Zm-70.43-12.65c12.17-3.1,26.33-2.13,42.07,2.86a81.15,81.15,0,0,1,16.54,7.08c2.3,1.35,5.15,3.24,6.77,5.84,3.07,4.94,1.37,11.59-1.62,16.92-11.13-6.46-25-5.55-37.26-4.73l-3.63.23a9.4,9.4,0,0,1-3.56-.2,10.25,10.25,0,0,1-2.15-1.27,21.82,21.82,0,0,0-2-1.28c-5.27-2.94-11.2-1.69-16.42-.58-1,.23-2,.44-3,.62a40.23,40.23,0,0,1-24.36-3.23C877.29,519.15,887.93,510.79,900.79,507.52Zm27.57,55.91a49.37,49.37,0,0,1-38.42-12.57c-2.47-2.28-4.75-4.16-7-6a100.48,100.48,0,0,1-8.79-7.86,46.27,46.27,0,0,0,23.4,1.84c1.06-.2,2.15-.43,3.19-.65,4.62-1,9-1.91,12.3-.05a15.56,15.56,0,0,1,1.46,1,14.49,14.49,0,0,0,3.58,2,14.68,14.68,0,0,0,5.89.53l3.67-.23c11.83-.79,24-1.6,33.51,3.72A49.4,49.4,0,0,1,928.36,563.43Z"/><path id="_Path_5" data-name="&lt;Path&gt;" class="cls-6" d="M985.11,330.46a4.22,4.22,0,0,1-.49,0,3,3,0,0,1-2.45-3.41,35.44,35.44,0,0,1,12.58-21.58,3,3,0,0,1,3.72,4.63A29.43,29.43,0,0,0,988,328,3,3,0,0,1,985.11,330.46Z"/><path id="_Path_6" data-name="&lt;Path&gt;" class="cls-6" d="M995.41,325.83a3,3,0,0,1-1.3-.3,3,3,0,0,1-1.37-4,47.66,47.66,0,0,1,12.56-15.9,3,3,0,0,1,3.77,4.59,41.8,41.8,0,0,0-11,13.91A3,3,0,0,1,995.41,325.83Z"/><path id="_Path_7" data-name="&lt;Path&gt;" class="cls-6" d="M1008.52,320.59a3,3,0,0,1-2.52-4.54,28.41,28.41,0,0,1,10.63-10,3,3,0,0,1,2.81,5.23,22.39,22.39,0,0,0-8.39,7.89A3,3,0,0,1,1008.52,320.59Z"/><path id="_Path_8" data-name="&lt;Path&gt;" class="cls-6" d="M1019.7,320.5a2.94,2.94,0,0,1-1.85-.65,3,3,0,0,1-.46-4.18,38.33,38.33,0,0,1,11.15-9.44,3,3,0,1,1,2.9,5.18,32.35,32.35,0,0,0-9.41,8A3,3,0,0,1,1019.7,320.5Z"/><path id="_Path_9" data-name="&lt;Path&gt;" class="cls-6" d="M1030.45,321.68a3,3,0,0,1-1.78-5.35l9.52-7.1a3,3,0,1,1,3.55,4.76l-9.52,7.1A2.92,2.92,0,0,1,1030.45,321.68Z"/><path id="_Path_10" data-name="&lt;Path&gt;" class="cls-6" d="M1040.11,323.65a3,3,0,0,1-2.06-5.11,18,18,0,0,1,8.4-4.56,3,3,0,0,1,1.35,5.79,12.13,12.13,0,0,0-5.64,3.05A2.91,2.91,0,0,1,1040.11,323.65Z"/><path id="_Path_11" data-name="&lt;Path&gt;" class="cls-6" d="M1046.66,328.37a2.93,2.93,0,0,1-1.26-.28,3,3,0,0,1-1.43-3.95,7.35,7.35,0,0,1,6.88-4.17,3,3,0,1,1-.24,5.93,1.44,1.44,0,0,0-1.26.76A3,3,0,0,1,1046.66,328.37Z"/><path id="_Path_12" data-name="&lt;Path&gt;" class="cls-6" d="M880.23,331.06a3,3,0,0,1-2.92-2.45,53.22,53.22,0,0,0-6.63-17.77,3,3,0,1,1,5.12-3,59.14,59.14,0,0,1,7.36,19.75,3,3,0,0,1-2.4,3.45A3.15,3.15,0,0,1,880.23,331.06Z"/><path id="_Path_13" data-name="&lt;Path&gt;" class="cls-6" d="M871.05,327.05a3,3,0,0,1-2.9-2.34,22.11,22.11,0,0,0-8-12.69,3,3,0,1,1,3.62-4.7A28.06,28.06,0,0,1,874,323.46a3,3,0,0,1-2.28,3.53A3.34,3.34,0,0,1,871.05,327.05Z"/><path id="_Path_14" data-name="&lt;Path&gt;" class="cls-6" d="M861.94,326.19a3,3,0,0,1-2.55-1.44,28.17,28.17,0,0,0-13.27-11.48,3,3,0,0,1,2.28-5.48,34.18,34.18,0,0,1,16.09,13.91,3,3,0,0,1-1,4.07A3,3,0,0,1,861.94,326.19Z"/><path id="_Path_15" data-name="&lt;Path&gt;" class="cls-6" d="M851.3,325.19a2.92,2.92,0,0,1-1.62-.48,50.84,50.84,0,0,0-17.49-7.12,3,3,0,0,1,1.17-5.82,56.82,56.82,0,0,1,19.55,8,3,3,0,0,1-1.61,5.46Z"/><path id="_Path_16" data-name="&lt;Path&gt;" class="cls-6" d="M838.26,327.47a3,3,0,0,1-1.36-.33,36.88,36.88,0,0,0-14.42-4,3,3,0,0,1,.39-5.93,43,43,0,0,1,16.75,4.65,3,3,0,0,1-1.36,5.61Z"/><path id="_Path_17" data-name="&lt;Path&gt;" class="cls-6" d="M827.5,331.09a2.91,2.91,0,0,1-.87-.13,39.45,39.45,0,0,0-10.56-1.72,3,3,0,1,1,.15-5.93,45.52,45.52,0,0,1,12.15,2,3,3,0,0,1-.87,5.81Z"/><path id="_Path_18" data-name="&lt;Path&gt;" class="cls-6" d="M811.39,336a3,3,0,0,1-1.18-5.69,11.36,11.36,0,0,1,8.9-.06,3,3,0,1,1-2.3,5.47,5.56,5.56,0,0,0-4.24,0A2.88,2.88,0,0,1,811.39,336Z"/><path id="_Compound_Path_5" data-name="&lt;Compound Path&gt;" class="cls-5" d="M1070.14,372.53l-4.33,4.06a13.45,13.45,0,0,0,4.76,3.25c.22-2.14.43-4.26.63-6.39A7.14,7.14,0,0,1,1070.14,372.53ZM818.77,425a3,3,0,0,0-4.18-.42l-.27.21c.55,2,1.06,4,1.55,6a15.72,15.72,0,0,0,2.48-1.65A3,3,0,0,0,818.77,425Z"/></svg>