<svg id="Layer_1" data-name="Layer 1" xmlns="http://www.w3.org/2000/svg" viewBox="0 0 583.79 365.84"><defs><style>.cls-1{fill:#fff;}.cls-2{fill:#e23d4d;}</style></defs><title>globo-01</title><path class="cls-1" d="M493.16,32.05s-248-46-388.3-25.33C32.93,17.34,1.7,36.85,1.42,175.83c-.33,163.61,39,179.6,128.91,183.47,159.91,6.88,351.85,16.8,376.4-45.94s17.94-186.57,17.94-186.57,29.17-7.69,53.73-32.31c0,0-38.38,13.49-58.33,8.18C520.07,102.66,515.69,39.41,493.16,32.05Z" transform="translate(0)"/><path class="cls-2" d="M299.31,365.84c-50.52,0-104.94-2.35-157.1-4.61l-11.94-.52c-48.49-2.08-78.69-7.85-99.33-32.33C9.09,302.48-.16,256.85,0,175.83.14,107.63,7.88,66.45,25.12,42.32,42,18.7,67.05,10.87,104.65,5.32,243.53-15.19,490.94,30.2,493.42,30.66l.18,0c21.83,7.13,27.11,62.26,27.81,70.83,19.56,4.46,56.14-8.26,56.52-8.39l5.86-2.06-4.39,4.4a136.09,136.09,0,0,1-53.26,32.36c.28,5.91,1.44,34.43.19,68.76-1.29,35.51-5.52,84.68-18.28,117.27C491.66,355.76,403.84,365.84,299.31,365.84ZM190.24,2.83c-30.6,0-59.72,1.53-85.17,5.29C68.22,13.56,43.7,21.17,27.42,44,10.55,67.59,3,108.26,2.84,175.84,2.68,255.06,12,301.54,33.11,326.56c20,23.67,49.59,29.27,97.28,31.32l11.94.52c80.5,3.48,163.74,7.08,232.11,2.27,77.67-5.47,120.52-21.11,131-47.83,12.61-32.22,16.79-81.06,18.08-116.35,1.39-38.29-.22-69.32-.24-69.63l-.06-1.15,1.11-.29A132.08,132.08,0,0,0,572.9,97.75c-11.68,3.57-37.61,10.43-53.19,6.28l-1-.26-.07-1a235.23,235.23,0,0,0-5-32.36c-5-21.29-12.2-34.07-20.87-37C487.93,32.53,324.81,2.83,190.24,2.83Z" transform="translate(0)"/></svg>