<svg id="Layer_1" data-name="Layer 1" xmlns="http://www.w3.org/2000/svg" viewBox="0 0 140.93 61.98"><defs><style>.cls-1{fill:#fff;}.cls-2{fill:#e23d4d;}</style></defs><title>Globo1</title><path class="cls-1" d="M28.66,39.1l-14.14-.37a15,15,0,0,1-6.94-1.8A10.46,10.46,0,0,1,1.93,28.4c-.77-9-5.45-21.15,16.64-24.57s113.17-5.06,119,3.09.3,27-6.72,27.84-88.16,4.71-88.16,4.71S33.24,55.23,26.14,59C26.14,59,35.47,46.28,28.66,39.1Z"/><path class="cls-2" d="M22.76,62l2.58-3.52c.08-.12,8.5-11.82,2.87-18.38L14.5,39.72a16,16,0,0,1-7.4-1.93A11.4,11.4,0,0,1,.94,28.48C.85,27.42.71,26.32.55,25.16-.57,16.63-2,6,18.42,2.85,39.08-.36,131.93-2.68,138.34,6.35c3.92,5.52,2.95,15.43,0,22-2,4.47-4.64,7.12-7.47,7.44-6.76.79-80.09,4.33-87.69,4.69-1.65,2.69-10,15.91-16.62,19.49ZM77.8,2C54,2,29.57,3.13,18.73,4.81.25,7.67,1.4,16.43,2.52,24.9c.15,1.19.3,2.31.4,3.42a9.38,9.38,0,0,0,5.15,7.74,14,14,0,0,0,6.48,1.68l14.55.38.28.3c4.7,4.95,2.51,12.08.24,16.68,5.95-5.77,12.11-16,12.18-16.14l.28-.46.53,0c.81,0,81.17-3.89,88.08-4.7,2-.23,4.24-2.58,5.89-6.28,2.67-6,3.64-15.07.14-20C134,3.59,106.28,2,77.8,2Z"/></svg>