<svg id="Layer_1" data-name="Layer 1" xmlns="http://www.w3.org/2000/svg" viewBox="0 0 277.08 74.25"><defs><style>.cls-1{fill:#fff;}.cls-2{fill:#e23d4d;}</style></defs><title>Globo4</title><path class="cls-1" d="M234.33,48.33s-181,1-205,0-25-8-28-22c-1.22-5.69,1-10.39,4.13-14a24.44,24.44,0,0,1,18-8.21C59,3.32,214.76-.08,244.33,1.33c31.5,1.5,31.5,14.5,31.5,14.5s4.5,30.5-25.5,32.5c0,0,0,11,10,23C260.33,71.33,238.83,60.83,234.33,48.33Z"/><path class="cls-2" d="M264.06,74.25l-4.16-2c-.88-.43-21.19-10.47-26.25-22.9-12.25.07-181.36,1-204.36,0C5,48.31,3.43,40.87.54,27.38l-.18-.85c-1.11-5.21.35-10.2,4.35-14.81A25.47,25.47,0,0,1,23.38,3.16c1.88,0,188.4-4.38,221-2.82,31.14,1.48,32.4,14.14,32.44,15.4s1.81,14.5-6,24.13c-4.4,5.46-10.95,8.61-19.48,9.37.26,2.83,1.72,11.85,9.72,21.45ZM235,47.33l.24.66c3.14,8.72,15.12,16.59,21.48,20.26-7.32-10.59-7.41-19.51-7.41-19.92V47.4l.93-.06c8.43-.57,14.84-3.5,19-8.71,7.43-9.2,5.56-22.53,5.54-22.66v-.14c0-.11-.1-3-3.78-6.1-3.5-3-11-6.66-26.77-7.41C211.75.77,25.31,5.1,23.43,5.15A23.48,23.48,0,0,0,6.21,13c-3.57,4.12-4.89,8.53-3.91,13.1l.18.85C5.33,40.3,6.63,46.39,29.37,47.34c23.71,1,203.15,0,205,0Z"/></svg>