<svg id="Layer_1" data-name="Layer 1" xmlns="http://www.w3.org/2000/svg" viewBox="0 0 419.34 181.5"><defs><style>.cls-1{fill:#fff;}.cls-2{fill:#e23d4d;}</style></defs><title>globo-02</title><path class="cls-1" d="M38.2,124.8c0,19.65-9.56,52.05,56.76,54.4s295.7,1.32,308.05-19.95,21.62-115.17,8.7-132.52S79.39-10.34,60.32,10.17,38.2,103.62,38.2,103.62,20.09,117.84.29,122C.29,122,38.2,119.41,38.2,124.8Z" transform="translate(0 0)"/><path class="cls-2" d="M160.3,181.5c-28.25,0-51.6-.39-65.39-.88-25-.89-41.43-6-50.32-15.71-9.17-10-8.54-23-8-33.47.12-2.32.22-4.51.23-6.56-1.53-2-18.11-2.72-36.4-1.47L0,120.61C17.41,117,33.75,105.19,36.82,102.9c.37-7.86,4-73.85,22.46-93.69C72.86-5.4,211.55,1.38,239.22,2.88c78.56,4.28,166.4,13.3,173.63,23,8.9,12,6.38,53.36,5.4,65.76-2,25.48-7.14,56.49-14,68.33-5.63,9.68-51,16.25-135,19.53C231.22,181,192.56,181.5,160.3,181.5ZM18.4,119.93c8.82,0,17.87.59,20.29,2.86a2.7,2.7,0,0,1,.93,2c0,2.14-.11,4.39-.23,6.77C38.88,142,38.31,153.89,46.67,163S70.84,176.93,95,177.78c29.49,1.05,102.84,1.67,174.16-1.11,108.69-4.25,129.74-13.18,132.62-18.13,5.66-9.76,11.27-37.36,13.63-67.13,2.54-31.95.68-56.41-4.85-63.83S329.79,10.65,239.06,5.71C140.76.36,69.35,2.54,61.36,11.14,42.86,31,39.65,103,39.62,103.68l0,.66-.51.4A116.8,116.8,0,0,1,11.81,120C13.92,120,16.15,119.93,18.4,119.93Z" transform="translate(0 0)"/></svg>