<svg id="Layer_1" data-name="Layer 1" xmlns="http://www.w3.org/2000/svg" viewBox="0 0 349.98 78.33"><defs><style>.cls-1{fill:#fff;}.cls-2{fill:#ee2346;}</style></defs><title>Globo5</title><path class="cls-1" d="M28.08,77.38c-1.28,2.08,17.3-10,19.6-20,0,0,252.54,5,280.21,0s30.74-48.68-4.21-51.18c-16.77-1.19-119.17-3.74-193-5S2.71-1.25,1.56,25s-5.77,30,28.83,31.2C30.39,56.16,37.31,62.41,28.08,77.38Z"/><path class="cls-2" d="M28.12,78.33a.78.78,0,0,1-.67-.34.84.84,0,0,1,0-1l.6.37-.6-.37c8-13.06,3.59-19.06,2.6-20.15C14.8,56.3,6.35,55.26,2.66,51.18-.56,47.61-.2,42.07.4,32.9c.15-2.37.32-5,.45-8C2-1.65,54.86-.75,128,.49l2.73,0c72.6,1.23,175.92,3.78,193,5,8,.57,14.71,3.39,19.35,8.14a24.82,24.82,0,0,1,6.86,16.07c.64,12-6.68,25.62-21.92,28.37-26.8,4.83-266.45.28-279.79,0-2.61,9.11-17.68,19.75-19.89,20.18Zm0-1,.6.38h0Zm58.11-76C36.31,1.41,3.15,5,2.27,25c-.13,2.94-.31,5.63-.46,8-.57,8.8-.92,14.12,1.9,17.24,3.37,3.72,11.64,4.68,26.7,5.23h.26l.19.17c.29.26,6.75,6.34-1.21,20.47C34,73.46,45.26,64.77,47,57.25l.13-.56h.58c2.52,0,252.78,4.94,280.07,0,14.43-2.61,21.37-15.51,20.75-26.9-.54-10.24-7.37-21.63-24.9-22.88C306.56,5.72,203.28,3.18,130.7,2L128,1.9C113.11,1.65,99.08,1.41,86.19,1.41Z"/></svg>