<svg id="Layer_1" data-name="Layer 1" xmlns="http://www.w3.org/2000/svg" viewBox="0 0 61.53 94.18"><defs><style>.cls-1{fill:#e23d4d;}</style></defs><title>cndhlogorojo</title><path class="cls-1" d="M4.53,79.15a6.1,6.1,0,0,0,.39,2.27,5,5,0,0,0,1,1.67,4.38,4.38,0,0,0,1.48,1,4.54,4.54,0,0,0,1.74.35,3.4,3.4,0,0,0,1.29-.24,5.1,5.1,0,0,0,1.13-.65,6.67,6.67,0,0,0,1-1,12.58,12.58,0,0,0,.88-1.13l1.35,1a8.26,8.26,0,0,1-1.05,1.36A7.78,7.78,0,0,1,12.36,85a6.84,6.84,0,0,1-1.68.8,6.08,6.08,0,0,1-1.92.3,9.57,9.57,0,0,1-3.14-.5,7.31,7.31,0,0,1-2.47-1.41A6.35,6.35,0,0,1,1.52,82a6.74,6.74,0,0,1-.58-2.84,7.12,7.12,0,0,1,.25-1.92,6,6,0,0,1,.72-1.68,6.36,6.36,0,0,1,1.14-1.4,7.12,7.12,0,0,1,1.52-1.06,8.37,8.37,0,0,1,1.86-.67,9.3,9.3,0,0,1,2.14-.23,7.69,7.69,0,0,1,2.1.26,6.69,6.69,0,0,1,1.72.75,6.35,6.35,0,0,1,1.38,1.14,8,8,0,0,1,1.07,1.45l-1.37,1a11,11,0,0,0-.9-1.12,7,7,0,0,0-1.05-.93,5.22,5.22,0,0,0-1.16-.63,3.67,3.67,0,0,0-1.28-.23,4.46,4.46,0,0,0-1.74.34,4.16,4.16,0,0,0-1.45,1,4.79,4.79,0,0,0-1,1.66,6.66,6.66,0,0,0-.37,2.29Zm13.15-6.64h2.07L27.28,81V72.51h2V86h-1.4l-8.18-9.33V85.8H17.68V72.51Zm15.06,0h4.8a12.53,12.53,0,0,1,3.39.44,7.92,7.92,0,0,1,2.66,1.27,5.64,5.64,0,0,1,1.74,2A5.89,5.89,0,0,1,46,79a6.64,6.64,0,0,1-.52,2.63,6.05,6.05,0,0,1-1.53,2.15,7.55,7.55,0,0,1-2.48,1.45A10.08,10.08,0,0,1,38,85.8h-5.3V72.51ZM36,84.44H37.7a4.52,4.52,0,0,0,1.8-.36,4.3,4.3,0,0,0,1.48-1,4.93,4.93,0,0,0,1-1.69,6.53,6.53,0,0,0,.37-2.3A6.07,6.07,0,0,0,42,77a5.19,5.19,0,0,0-1-1.65,4.41,4.41,0,0,0-1.47-1.09,4.47,4.47,0,0,0-1.87-.39H36V84.44Zm16.09-5V85.8H48.83V72.52h3.24v5.82h5.31V72.52h3.21V85.8H57.38V79.48Z" transform="translate(0)"/><path class="cls-1" d="M31.34,14.85l3.73,9L32,14.62,38.84,21,33,13.72,41.85,17l-8.49-4.11,9-.71-9-.73,8.57-4.19L33,10.6l5.89-6.7L32,9.72l3.07-9L31.34,9.45,30.66,0,30,9.45,26.41.69l3,9L22.55,3.9l5.79,6.71L19.57,7.35,28,11.46l-8.82.71,8.84.71L19.26,17l9-3.24L22.55,21l6.87-6.36-3,9.16L30,14.89l.64,9.48.69-9.52Zm-.67-.8a1.88,1.88,0,1,1,1.86-1.87,1.87,1.87,0,0,1-1.86,1.87Z" transform="translate(0)"/><path class="cls-1" d="M57.17,43.19l.36-.93c.08-.24.3-.73.35-.87s.29-.59.41-.84.39-.69.5-.86.29-.41.42-.63.41-.75.52-1,.33-.75.4-1,.31-1,.36-1.22.19-.81.23-1.07.11-1.08.12-1.33v-.77c0-.18-.05-1.08-.06-1.24s-.06-.46-.08-.59-.13-.45-.22-.45,0,.07-.11.51a7,7,0,0,1-.25.93c-.07.2-.34,1-.43,1.18l-.36.84c-.1.24-.29.67-.37.85s-.28.6-.37.84a10.48,10.48,0,0,0-.39,1c-.12.44-.21.82-.28,1.1s-.17.77-.21,1a4.11,4.11,0,0,1-.14.66s0-.11-.07-.36-.11-.55-.15-.76-.19-.75-.27-1a10.1,10.1,0,0,0-.46-1.17c-.14-.28-.45-.81-.57-1s-.42-.74-.52-.95a6.21,6.21,0,0,1-.35-.91c0-.18,0-.34,0-.39S55,33,55,33a1.66,1.66,0,0,0-.28.69,7.41,7.41,0,0,0-.07,1.62,11.89,11.89,0,0,0,.2,1.41A10.73,10.73,0,0,0,55.2,38c.1.26.39,1,.5,1.29s.49,1,.62,1.31a11.15,11.15,0,0,1,.44,1.11,12.24,12.24,0,0,1,.41,1.47Zm.6-6.77s.17-.77.2-1,.09-.73.13-.92.13-.62.18-.75.22-.62.3-.78a5.89,5.89,0,0,0,.26-.61c0-.2.2-.75.26-1a9.66,9.66,0,0,0,.24-1.17c0-.28,0-1.28,0-1.47s-.11-1.2-.13-1.39S59,26.21,58.94,26s-.26-1.06-.32-1.2a4.09,4.09,0,0,0-.23-.5,1.3,1.3,0,0,0-.38-.43s0,.18,0,.24,0,.64,0,.84,0,.88,0,1.15a5.48,5.48,0,0,1-.06.87c0,.19-.16.57-.2.72a4.64,4.64,0,0,0-.15.66c0,.21-.1.79-.12,1s-.09.88-.1,1.13-.06.81-.06,1,0,.88,0,1a4.83,4.83,0,0,1,0,.55A1.56,1.56,0,0,1,57,32.7c-.06-.2-.21-.65-.28-.83s-.28-.72-.39-.94a10.14,10.14,0,0,0-.65-1.1,7.33,7.33,0,0,0-.77-.85,5.3,5.3,0,0,1-.59-.56c-.13-.14-.56-.7-.64-.81l-.41-.54c-.08-.1-.23-.26-.26-.25s-.13.23-.14.6a4.25,4.25,0,0,0,.1,1,10.06,10.06,0,0,0,.45,1.38c.11.24.41.9.57,1.2a8.48,8.48,0,0,0,.84,1.29c.3.36.66.78.85,1l.72.78a6.76,6.76,0,0,1,.54.72c.13.21.3.54.4.75s.4.91.4.91Zm-1-6.24s0-1,0-1.17,0-1,.08-1.31.17-1,.21-1.23.12-1.06.12-1.4a7,7,0,0,0-.17-1.3c-.07-.33-.26-1-.36-1.33s-.36-1-.45-1.3-.44-1.08-.52-1.28-.46-.92-.6-1.16a5.26,5.26,0,0,0-.52-.74,1.8,1.8,0,0,0-.5-.41c-.09,0,.06.24.17.61s.23.72.28.89.22.73.26.89.2.73.23.94.13.62.17.93.1.8.12,1.22,0,1,0,1.28.11.91.14,1.11.1.56.15.83a5.75,5.75,0,0,1,.13.86s-.08-.06-.2-.2-.39-.54-.59-.77l-.89-1c-.21-.23-.59-.64-.76-.78s-.91-.72-1.05-.85-.71-.56-.93-.75-.84-.7-1-.88-.72-.67-.84-.8-.63-.71-.71-.83-.22-.37-.27-.43-.06,0-.06.13,0,.62.07.81a7.32,7.32,0,0,0,.34,1,12.8,12.8,0,0,0,.71,1.29c.18.26.69.9.91,1.14a10.21,10.21,0,0,0,.9.86c.22.17.77.52,1,.71l1.27.87c.22.17.85.64,1,.8a11.06,11.06,0,0,1,.9.79,6.31,6.31,0,0,1,.64.73,3.56,3.56,0,0,1,.59,1.22Zm-2.19-6a8.18,8.18,0,0,0-2-5.24,15.07,15.07,0,0,0-1.7-1.69,10.42,10.42,0,0,0-3.33-2c.21.41,1.24,2.36,1.39,2.6.53.87.93,1.8,1.47,2.67,1.14,1.82,2.9,2.85,4.31,4.4a4.86,4.86,0,0,1-.1-.74c0-.23,0,.26,0,0ZM4.39,43.11s.09-.53.17-.82a9.7,9.7,0,0,1,.31-.95c.07-.18.25-.65.39-.94l.46-1c.1-.21.33-.75.44-1s.33-.89.4-1.12A12.64,12.64,0,0,0,6.83,36a11,11,0,0,0,.1-1.13,11.08,11.08,0,0,0-.08-1.14c0-.17-.14-.7-.37-.85,0,0,0,0,0,0s-.08.38-.12.5a9.53,9.53,0,0,1-.42.93c-.07.14-.16.31-.28.51s-.32.54-.43.74-.36.72-.5,1a5.22,5.22,0,0,0-.32.94c-.06.25-.19.73-.25,1.09s-.16.85-.17.86,0,0-.06-.22-.1-.56-.14-.79-.16-.71-.2-1-.21-.9-.27-1.06S3,35.71,3,35.49s-.4-.91-.49-1.09-.38-.81-.46-1-.25-.57-.34-.82-.26-.7-.33-.92a7.58,7.58,0,0,1-.22-.93c0-.13,0-.23,0-.23s-.09,0-.15.15a3.58,3.58,0,0,0-.16.71c0,.22-.05,1-.06,1.29s0,1,0,1.32.12,1.11.18,1.39.23.94.29,1.12.3.83.37,1,.43.91.56,1.13.44.65.55.81a6.3,6.3,0,0,1,.49.78c.13.27.39.74.47,1s.28.67.33.81.37,1,.43,1.13ZM3.8,36.29s.28-.75.39-.95a10,10,0,0,1,.61-1c.19-.23.63-.78.81-1s.49-.51.63-.7.64-.81.79-1a8.23,8.23,0,0,0,.54-1c.11-.22.43-.88.55-1.18a10.62,10.62,0,0,0,.41-1.25,5,5,0,0,0,.12-1.11c0-.27-.09-.52-.15-.45s-.3.33-.45.52-.61.76-.75.93-.67.73-.86.91a8.61,8.61,0,0,0-.76.89,6.33,6.33,0,0,0-.61,1.11c-.18.47-.29.73-.36.95s-.15.44-.2.61a2.35,2.35,0,0,1-.12.39s0-.07,0-.23,0-.91,0-1.24-.07-1.07-.08-1.35S4.17,29,4.13,28.79,4,27.88,3.9,27.62a4.07,4.07,0,0,1-.24-1.05c0-.38,0-1-.06-1.28s0-1.55,0-1.56-.19.15-.29.32a4.46,4.46,0,0,0-.44,1,8.2,8.2,0,0,0-.3,1.22c-.08.37-.17,1.07-.2,1.35s-.09,1.26-.11,1.52a7.8,7.8,0,0,0,.09,1.53c.1.44.25.94.31,1.15s.32.86.42,1.13a8.73,8.73,0,0,1,.34,1.11c.05.24.13.72.15.94a6.07,6.07,0,0,0,.27,1.3Zm1-6.25a4,4,0,0,1,.44-.94A8.61,8.61,0,0,1,6.11,28c.21-.19.48-.45.72-.63l.86-.65.93-.67c.26-.18.78-.51,1.06-.71a8.58,8.58,0,0,0,1.07-.86,13.91,13.91,0,0,0,1-1.14c.18-.25.63-.91.79-1.21A8.74,8.74,0,0,0,13,21.08a5.18,5.18,0,0,0,.14-1.1c0-.23,0-.31-.07-.23a7.15,7.15,0,0,1-.43.64,9.72,9.72,0,0,1-.67.77c-.15.16-.59.59-.75.73l-.65.53-.9.75-1.09.91c-.19.16-.8.77-1,1s-.72.78-.89,1-.49.59-.57.7-.2.3-.22.29a1.28,1.28,0,0,1,0-.45c0-.17.15-.74.19-.94s.13-.91.17-1.27,0-.91,0-1.21.06-1,.08-1.19.17-1.07.21-1.28.17-.79.27-1.09.26-.88.35-1.18.31-.94.32-1-.07,0-.12,0a3.64,3.64,0,0,0-.54.56c-.21.29-.54.88-.72,1.2a14,14,0,0,0-.6,1.36c-.15.36-.36,1-.47,1.3s-.4,1.28-.45,1.52-.15.83-.22,1.34a6.63,6.63,0,0,0,.06,1.3c0,.24.16,1,.2,1.18s.14.85.15,1a7.05,7.05,0,0,1,0,.92c0,.14,0,.86,0,.86Zm3.43-6.53a13.25,13.25,0,0,0,3-3.4c.44-.76,1.6-4.09,2.4-5.07-2.17.42-3.93,2.54-5.19,4.2a6.87,6.87,0,0,0-1.33,2.93,15.37,15.37,0,0,0-.21,2.2s1.07-.66,1.3-.86Zm22.35,42a9.5,9.5,0,0,1,.93-.29c.56-.15,1.11-.3,1.6-.39s1.33-.2,1.8-.25,1.55-.06,1.94,0,1.29,0,1.91.1,1.3.17,1.72.21.89.08,1.48.07,1.45,0,1.78-.09a6.28,6.28,0,0,0,1-.21c.53-.15.85-.28.87-.27s0,.09,0,.2a2.15,2.15,0,0,1-.63.63,5.12,5.12,0,0,1-.95.49c-.49.21-1.2.48-1.49.56a16.33,16.33,0,0,1-1.63.37c-.64.09-1.19.16-1.59.19l-1.72.07c-.22,0-1.18,0-1.57-.11s-1-.17-1.35-.21-.78-.07-1-.07-.19,0-.21,0,.15.08.23.13a5,5,0,0,1,.86.48,1.63,1.63,0,0,1,.71.79s-.75.27-.82.28a.4.4,0,0,1-.35-.07,3,3,0,0,0-.52-.57A3.79,3.79,0,0,0,32.7,67a8.67,8.67,0,0,0-1.31-.41,3.38,3.38,0,0,0-.82-.13,9.63,9.63,0,0,0-1.16.25,7.77,7.77,0,0,0-1.31.52,3.28,3.28,0,0,0-1.07.93,2.75,2.75,0,0,1-.67,0,.78.78,0,0,1-.38-.24,3.66,3.66,0,0,1,.28-.37,4.56,4.56,0,0,1,1.54-1,4.44,4.44,0,0,0-.78,0c-.37,0-1,.1-1.37.18a13.58,13.58,0,0,1-1.86.22c-.54,0-2-.09-2.43-.16s-1.32-.23-1.62-.31-1.47-.41-1.8-.56A13.34,13.34,0,0,1,16.38,65a2.93,2.93,0,0,1-.91-1c0-.1.5.27,1.51.46a14.47,14.47,0,0,0,2.25.21c.27,0,1.37,0,1.73,0s1.64-.13,1.92-.18a10.36,10.36,0,0,1,1.28-.12,15.52,15.52,0,0,1,1.63.16c.34,0,1.24.19,1.56.25s1.45.26,2,.38,1.25.33,1.25.33Zm-8.46-2a7.33,7.33,0,0,1-.77-.75,12,12,0,0,1-.82-1.07c-.14-.22-.52-.76-.67-1s-.61-.84-.78-1.07a4.54,4.54,0,0,0-.88-.81,2.37,2.37,0,0,1-.36-.3c-.08-.06-.37-.33-.45-.37s-.56-.41-.71-.49-.6-.26-.82-.34a3.81,3.81,0,0,0-.8-.16c-.06,0,.12.3.18.39s.46.61.6.77a6.11,6.11,0,0,1,.48.74,4.51,4.51,0,0,0,.37.72c.18.21.43.48.59.63l.82.79c.16.14.9.75,1,.82s.14.11.09.12a3.67,3.67,0,0,1-.45-.13l-1.12-.36c-.25-.07-1.41-.4-1.71-.46S14.84,61,14.6,61s-1.29-.16-1.53-.19-1.28-.23-1.54-.3-.93-.33-1-.38L10.16,60s0,.16,0,.28a1.7,1.7,0,0,0,.51.76,6.16,6.16,0,0,0,.79.58,6.73,6.73,0,0,0,.8.45,9.26,9.26,0,0,0,1,.42l1.2.41c.31.1,1,.24,1.37.3a9,9,0,0,0,1.15,0l1.36,0,1.19,0a10.85,10.85,0,0,1,1.4.08c.26.05,1.16.29,1.16.29Zm-6-3s-.45-.57-.66-.88-.49-.81-.62-1a9.06,9.06,0,0,1-.44-1,3.7,3.7,0,0,1-.14-.55,3.06,3.06,0,0,0-.24-.66,3.15,3.15,0,0,0-.26-.52c-.11-.19-.38-.69-.49-.87s-.51-.77-.6-.88-.73-.9-.91-1.07a3.51,3.51,0,0,0-.86-.66c-.27-.09-.42-.13-.43-.08a5.7,5.7,0,0,0,.11.61c0,.09.12.49.17.65s.28.86.38,1.08a7.77,7.77,0,0,0,.35.76c.11.18.46.86.57,1s.4.55.53.72.35.39.4.45.06.12,0,.09-.52-.29-.66-.38l-.86-.6c-.14-.1-.72-.48-.89-.58a2,2,0,0,0-.49-.23l-.72-.2c-.09,0-.65-.22-.89-.31l-1.38-.58c-.18-.09-1.06-.53-1.21-.63s-.6-.38-.71-.47-.27-.23-.31-.25,0,.25,0,.41a3,3,0,0,0,.27.64,6.68,6.68,0,0,0,.85,1c.24.21,1.08.87,1.3,1s.95.59,1.19.72.89.54,1.08.67a3,3,0,0,0,.76.3l1.06.34,1.36.36a8,8,0,0,1,1.44.45c.4.22.62.33.94.54a8.49,8.49,0,0,0,1,.57Zm-5.78-5a3.63,3.63,0,0,0-.18-1,4.71,4.71,0,0,1-.3-1.16c0-.24.08-.66.09-1a9.67,9.67,0,0,0-.11-1.2c0-.25-.19-.84-.26-1.07s-.26-.77-.36-1-.22-.44-.29-.64-.18-.56-.24-.7a4.7,4.7,0,0,0-.5-.86c-.18-.19-.31-.32-.5-.34s-.15.07-.14.29.08.72.11,1,.08,1,.09,1.2.12.95.17,1.23.18.88.22,1.06l.2.69c0,.12.1.39.06.39s-.12-.14-.31-.32-.52-.63-.79-.87-.71-.76-1-1l-.77-.68A6,6,0,0,0,4.72,49a2.64,2.64,0,0,1-.54-.32,10.23,10.23,0,0,1-1-.83c-.2-.23-.56-.65-.77-.92s-.57-.81-.69-1-.32-.51-.42-.72a2.25,2.25,0,0,0-.2-.43s-.06,0-.08.14a2,2,0,0,0-.05.87,5,5,0,0,0,.4,1.31c.15.32.55,1.1.66,1.28s.61.88.77,1.09.74.93.92,1.14.9.88,1.09,1.06.58.47.81.64a4.59,4.59,0,0,0,.92.44,5.3,5.3,0,0,1,.7.29,6.27,6.27,0,0,1,.84.44c.22.17.47.36.71.56l.63.6c.17.18.59.58.88.95ZM6.65,49.91a4.12,4.12,0,0,1-.08-.68,6.48,6.48,0,0,1,.07-1.06c0-.23.11-.73.15-.92l.21-1c.06-.28.12-.68.19-1.07a12.76,12.76,0,0,0,.08-1.55c0-.23-.08-.95-.11-1.2a10,10,0,0,0-.23-1.14c-.07-.26-.39-1-.47-1.19a2.19,2.19,0,0,0-.3-.45s0,0,0,.14-.09.55-.13.74-.18.7-.23.95-.2.77-.25,1.09-.11.87-.13,1.23.08,1.08.09,1.28.07.58.07.75,0,.49,0,.49-.12-.2-.19-.38A6.86,6.86,0,0,0,5,45.15l-.44-.83-.53-1c-.13-.23-.5-.83-.61-1s-.64-.82-.78-1L2,40.61c-.12-.14-.45-.61-.56-.77a3.2,3.2,0,0,1-.27-.56c-.06-.15-.26-.67-.31-.82s-.22-.61-.3-.79-.25-.47-.25-.49,0,0-.07.09A6.32,6.32,0,0,0,0,38.2a6.46,6.46,0,0,0,.15,1.64c.14.55.33,1.19.4,1.37s.39.93.5,1.14.6,1.1.75,1.35.63.91.79,1.12a8.82,8.82,0,0,0,.77.84c.17.18.57.42.72.55a3.63,3.63,0,0,1,.54.56c.14.21.61.88.71,1.07s.44.76.6,1a6,6,0,0,0,.71,1ZM54.92,50s.37-.45.45-.58.3-.52.39-.69.26-.51.41-.76.47-.73.55-.84a3.6,3.6,0,0,1,.5-.63c.17-.14.46-.37.59-.45a4.3,4.3,0,0,0,.39-.32,7.94,7.94,0,0,0,.63-.67c.12-.15.48-.64.59-.81s.5-.72.64-1,.51-.94.6-1.16.33-.83.4-1,.24-.79.29-1,.13-.75.17-1a6.67,6.67,0,0,0-.07-1.3c-.05-.2-.12-.41-.15-.39a2.42,2.42,0,0,0-.27.54c-.06.16-.28.6-.33.76s-.28.66-.42,1a4.22,4.22,0,0,1-.52.82c-.06.07-.45.52-.58.69s-.44.52-.58.7-.44.58-.57.77-.38.63-.52.87-.45.77-.54,1l-.53,1c-.06.12-.25.55-.31.66a1.77,1.77,0,0,1-.14.3,3.56,3.56,0,0,1,0-.61c0-.33.09-.87.11-1.11a13,13,0,0,0,0-1.51c0-.29-.11-.62-.14-.83s-.16-.72-.2-.87-.19-.74-.23-1-.07-.69-.08-.72-.13.16-.24.35a5.91,5.91,0,0,0-.47.91,6,6,0,0,0-.3,1.22c0,.25-.11.91-.12,1.23s0,1,0,1.32a13.49,13.49,0,0,0,.22,1.43c.06.25.22,1.22.28,1.46s.09.51.13.72a6.24,6.24,0,0,1,0,.81c0,.15-.08.79-.08.79Zm-3.68,5.67s.33-.42.62-.73.77-.75,1-.94a8.19,8.19,0,0,1,.87-.63c.12-.07.6-.34.78-.41.39-.15.71-.21.94-.32a3.64,3.64,0,0,0,.59-.33,10,10,0,0,0,.89-.74c.17-.17.78-.78.9-.93s.45-.51.63-.73.49-.63.6-.79.32-.49.44-.69.32-.54.44-.78.32-.71.38-.87a4.55,4.55,0,0,0,.24-1.09,3.82,3.82,0,0,0-.06-.7c0-.07-.06-.14-.08-.14a2.65,2.65,0,0,0-.16.35c-.07.14-.27.5-.4.71s-.36.57-.45.7-.43.57-.54.71-.54.65-.69.79-.67.6-.77.67A4.83,4.83,0,0,1,57,49a4.67,4.67,0,0,0-.58.38,8.62,8.62,0,0,0-.74.61c-.13.1-.53.5-.66.63l-.81.81-.49.49c-.12.11-.46.49-.5.54s-.06,0,0-.28.15-.53.19-.68.14-.54.19-.73.17-.84.2-1.07.1-.88.09-1.08,0-.84,0-1.07.16-.92.13-.94a.45.45,0,0,0-.32.1,2.72,2.72,0,0,0-.54.58,5.08,5.08,0,0,0-.42.87c-.11.32-.25.66-.33.85s-.3.79-.37.95a7.88,7.88,0,0,0-.25.9c0,.2-.13.75-.15,1s0,.73,0,1.06a4.32,4.32,0,0,1,0,1.06,7.28,7.28,0,0,1-.24.82,2.48,2.48,0,0,0-.11.86Zm-5.82,5s.76-.43,1-.6.84-.5,1-.6a3.68,3.68,0,0,1,.83-.29l1.31-.32c.44-.11,1.15-.29,1.48-.4A7.07,7.07,0,0,0,52,58c.14-.07.45-.31.66-.43l.71-.41c.2-.12.71-.43,1-.65a9.76,9.76,0,0,0,.88-.71,8.79,8.79,0,0,0,1-1.08,4.18,4.18,0,0,0,.29-.6c.08-.18.14-.56.09-.55s-.3.25-.58.41a9.24,9.24,0,0,1-.86.48c-.19.08-1,.51-1.2.58s-.69.3-1.06.46-.51.23-.67.3a7.8,7.8,0,0,1-.81.23,4,4,0,0,0-.93.45c-.32.2-.73.5-.87.6l-.91.58c-.09,0-.18.1-.16,0a2.41,2.41,0,0,1,.27-.33c.15-.18.42-.56.56-.77s.39-.66.5-.88.37-.76.51-1.09a12.25,12.25,0,0,0,.42-1.25c.08-.26.22-.92.22-1s-.34.06-.51.16a5.06,5.06,0,0,0-.65.46,3.93,3.93,0,0,0-.4.43c-.12.12-.56.65-.64.76s-.35.52-.49.71a10.08,10.08,0,0,0-.62,1c-.12.22-.35.69-.44.92s-.23,1-.3,1.15-.32.64-.45.85a6.64,6.64,0,0,1-.47.76c-.11.16-.7,1-.71,1Zm-6,3a2.89,2.89,0,0,1,.83-.22,6.23,6.23,0,0,1,1.35-.15c.38,0,1.53.06,1.88.08a16.61,16.61,0,0,0,1.86,0,15.17,15.17,0,0,0,1.6-.29c.33-.09,1.26-.4,1.56-.53s1.17-.53,1.43-.68a4.51,4.51,0,0,0,1.36-1.16c.21-.41.16-.54.16-.54a5.48,5.48,0,0,1-.61.27,8,8,0,0,1-1,.34c-.39.09-1.18.25-1.51.28l-1.44.17c-.28,0-1,.13-1.39.19a9.12,9.12,0,0,0-1.38.37c-.36.13-1.54.5-1.72.53s.18-.18.3-.26.62-.52.82-.71.54-.54.83-.86a5,5,0,0,0,.7-.94,5.23,5.23,0,0,1,.5-.83c.19-.23.63-.74.75-.9a1.23,1.23,0,0,0,.23-.47,2.13,2.13,0,0,0-.64.11,6.69,6.69,0,0,0-.88.36,5.1,5.1,0,0,0-.62.39,4.17,4.17,0,0,0-.56.47,4.37,4.37,0,0,1-.47.35,3.52,3.52,0,0,0-.52.39,4.87,4.87,0,0,0-.66.74c-.17.23-.35.52-.54.77s-.42.62-.57.86-.46.66-.63.87a5.34,5.34,0,0,1-1,1Z" transform="translate(0)"/><path class="cls-1" d="M33.09,42.52c0-.36.77,0,.93-.22s-.14-.1-.22-.35c-.18-.53,3.4-1.51,3.78-1.56,1-.14,1.57-2.36,2.38-2.93s.84-.11,1.08-1.13a9,9,0,0,1,1.3-2.24c.8-1.33.24-3.42,2.07-4.21s1.37,1.49,1.13,2.44c-.18.73.07,1.58-.21,2.26a22.44,22.44,0,0,0-.95,2.47,10.33,10.33,0,0,1-2.19,3.58c-.44.56-.67,1.13-1.12,1.69a2,2,0,0,0-.42,1.08,6.56,6.56,0,0,1-.45,1.86c-.52,1-1.6,1.64-2.33,2.5A24.11,24.11,0,0,0,35.12,51a12.46,12.46,0,0,0-.92,1.57,6.16,6.16,0,0,0-.46,2.16c-.05.64,0,1.36,0,2s0,1.23,0,1.94a20.14,20.14,0,0,0,.76,4.58,9.77,9.77,0,0,0-1.81.4c-1,.36-2.3.72-2.3.72s-1.84-.43-3.41-.72c-1.12-.21-2.72-.33-2.72-.33s.16-1.12.23-1.8.22-1.46.26-2.29c.16-3.22.58-4.64-.06-9.08-.24-1.68.69-4.16,1.1-5.28a13.31,13.31,0,0,0,1-4.12,14.65,14.65,0,0,0-.39-2.37c-.07-1,.38-1.85.24-2.92-.4-3.13,2.48-2.15,3.34-.08.62,1.51,0,3,.57,4.38.33.79.88,2.46,1.81,3.15.42.31.64.17.67-.36Zm1.45-2.75c.17-.41.28-.84.48-1.24s-.09-.8-.15-1.3a13.31,13.31,0,0,1-.08-2.82c.08-1-.95-1.7-1-2.71,0-.75.53-2.83,1.68-1.93.28.22.33.65.5,1a13.54,13.54,0,0,0,.79,1.32,5.51,5.51,0,0,1,.7,2.56c.14.92.76,2.16.73,2.77a3.86,3.86,0,0,1-.42,1.85,2.41,2.41,0,0,1-1.21.68,3.05,3.05,0,0,0-1.47.56,8.59,8.59,0,0,1-2.73,1.09c-.33,0-1,0-.38-.4.34-.22.18-1.18.31-1.57s.34-.72,0-1.19a9.28,9.28,0,0,1-.62-1.55c-.45-1.07-1.2-1.37-.85-2.69s1.43-.51,1.77.36c.19.47.41.44.75.77a3.36,3.36,0,0,1,.63,1.4c.17.49.67,1,.75,1.5s-.32,1.06-.22,1.58Zm5.83-3.41c.18-.91,1-1.54,1.32-2.38a7.17,7.17,0,0,0,.41-3.24c0-.79.46-1.87.22-2.62s-1.36-.1-1.68.12a2.7,2.7,0,0,0-1.14,1.55c-.26,1.07.06,2-.4,3.05a7.35,7.35,0,0,0-.45,2.89,5.35,5.35,0,0,0,0,1.26c0,.46-.08.55,0,1,.09.65.6-.6.69-.7.36-.42,1-.52,1.08-1Z" transform="translate(0)"/><path class="cls-1" d="M2.29,89.8H3.35l1.18,3.35h0L5.69,89.8h1v4.28H6v-3.3H6l-1.19,3.3H4.2L3,90.78H3v3.3H2.29V89.8Zm12.52,0h3.08v.65H15.56v1.12h2.16v.61H15.56v1.25h2.37v.65H14.81V89.8Zm1.75-1.27h.8l-.85.86H16l.54-.86ZM25.4,89.8h.89l1,1.51,1-1.51h.84L27.7,91.86l1.51,2.22H28.3l-1.06-1.64-1.09,1.64H25.3l1.51-2.22L25.4,89.8Zm11.44,4.28h.74V89.8h-.74v4.28Zm11.73-2.92a1.4,1.4,0,0,0-.13-.34,1.09,1.09,0,0,0-.21-.27,1,1,0,0,0-.31-.17,1.07,1.07,0,0,0-.41-.07,1.2,1.2,0,0,0-.59.14,1.12,1.12,0,0,0-.41.37,1.75,1.75,0,0,0-.23.52,2.61,2.61,0,0,0,0,1.2,1.64,1.64,0,0,0,.23.52,1.12,1.12,0,0,0,.41.37,1.2,1.2,0,0,0,.59.14,1,1,0,0,0,.44-.09.78.78,0,0,0,.33-.24,1.38,1.38,0,0,0,.22-.35,2,2,0,0,0,.1-.44h.73a2,2,0,0,1-.17.7,1.64,1.64,0,0,1-.38.55,1.8,1.8,0,0,1-.56.36,2,2,0,0,1-.71.12,2,2,0,0,1-.86-.18,1.69,1.69,0,0,1-.64-.48,2,2,0,0,1-.41-.71,2.74,2.74,0,0,1,0-1.73,2,2,0,0,1,.41-.71,1.83,1.83,0,0,1,.64-.49,2,2,0,0,1,.86-.18,2.41,2.41,0,0,1,.67.1,1.65,1.65,0,0,1,.56.29,1.36,1.36,0,0,1,.4.46,1.5,1.5,0,0,1,.18.61ZM59,89.7a2,2,0,0,1,.86.18,1.92,1.92,0,0,1,.64.49,2,2,0,0,1,.4.71,2.57,2.57,0,0,1,0,1.73,2,2,0,0,1-.4.71,1.77,1.77,0,0,1-.64.48,2,2,0,0,1-.86.18,2,2,0,0,1-.86-.18,1.72,1.72,0,0,1-.65-.48,2.15,2.15,0,0,1-.4-.71,2.74,2.74,0,0,1,0-1.73,2.15,2.15,0,0,1,.4-.71,1.86,1.86,0,0,1,.65-.49A2,2,0,0,1,59,89.7Zm0,.61a1.2,1.2,0,0,0-.59.14,1.22,1.22,0,0,0-.41.37,1.75,1.75,0,0,0-.23.52,2.46,2.46,0,0,0-.07.6,2.4,2.4,0,0,0,.07.6,1.64,1.64,0,0,0,.23.52,1.12,1.12,0,0,0,.41.37,1.2,1.2,0,0,0,.59.14,1.25,1.25,0,0,0,.59-.14,1.09,1.09,0,0,0,.4-.37,1.64,1.64,0,0,0,.23-.52,2.41,2.41,0,0,0,.08-.6,2.47,2.47,0,0,0-.08-.6,1.75,1.75,0,0,0-.23-.52,1.18,1.18,0,0,0-.4-.37,1.25,1.25,0,0,0-.59-.14Z" transform="translate(0)"/></svg>