<svg id="Layer_1" data-name="Layer 1" xmlns="http://www.w3.org/2000/svg" viewBox="0 0 50.34 50.34"><defs><style>.cls-1{fill:#fff;}.cls-2{fill:#00bfb3;}</style></defs><title>Logo</title><circle class="cls-1" cx="25.17" cy="25.17" r="25.17"/><path class="cls-2" d="M25.42,34h0a.65.65,0,0,1-.66-.65l.1-12.75c0-.87-.13-1.36-.43-1.5a1.59,1.59,0,0,0-.68-.08l-7.93.09c-.18,0-1.12,0-1.47-.62a.84.84,0,0,1,0-.88c.22-.41.24-.45,7.84-2,4.41-.91,9.91-2,13.49-3A.65.65,0,1,1,36,13.88c-3.63,1-9.13,2.09-13.55,3l-4.31.9s0,0,0,0l5.61-.06A2.63,2.63,0,0,1,25,18c1.17.58,1.16,2.1,1.15,2.67l-.09,12.76A.65.65,0,0,1,25.42,34Z"/><path class="cls-2" d="M25.46,37.57A16.79,16.79,0,0,1,21.13,37a.65.65,0,1,1,.34-1.26,16.53,16.53,0,0,0,8.06,0,.66.66,0,0,1,.8.46.65.65,0,0,1-.45.8A16.93,16.93,0,0,1,25.46,37.57Z"/><path class="cls-2" d="M25.59,40.52a22.34,22.34,0,0,1-7-1.11A.65.65,0,0,1,19,38.17a21.14,21.14,0,0,0,13,0,.65.65,0,1,1,.4,1.24A22.25,22.25,0,0,1,25.59,40.52Z"/><path class="cls-2" d="M25,3A22,22,0,1,1,3,25,22,22,0,0,1,25,3m0-1.22A23.25,23.25,0,0,0,8.55,41.44,23.25,23.25,0,1,0,41.44,8.56,23.1,23.1,0,0,0,25,1.75Z"/><path class="cls-2" d="M35.38,32.32c-4.24,0-5.78-3.92-6-6a.61.61,0,1,1,1.21-.13h0c0,.2.58,4.9,4.78,4.9h0c4.47,0,4.83-4.33,4.84-4.51a.61.61,0,1,1,1.22.08S41,32.31,35.4,32.32Z"/><path class="cls-2" d="M14.45,32.34a5.22,5.22,0,0,1-3.54-1.22,6.31,6.31,0,0,1-1.93-4,.61.61,0,0,1,.57-.65.6.6,0,0,1,.65.57,5.17,5.17,0,0,0,1.52,3.16,4.29,4.29,0,0,0,3.21.9c4.49-.33,4.82-4.08,4.83-4.24A.61.61,0,0,1,21,27a6,6,0,0,1-6,5.37A5.62,5.62,0,0,1,14.45,32.34Z"/></svg>