<svg id="Layer_1" data-name="Layer 1" xmlns="http://www.w3.org/2000/svg" viewBox="0 0 47.26 47.26"><defs><style>.cls-1{fill:#00b7b0;}.cls-2{fill:#fff;}</style></defs><title>Queja</title><path class="cls-1" d="M23.63,0A23.63,23.63,0,1,1,0,23.63,23.63,23.63,0,0,1,23.63,0"/><path class="cls-2" d="M23.31,44.77a5.42,5.42,0,0,1-1.11-.09h0C12.6,42.82,4.89,35.33,3.46,26.46A21.68,21.68,0,0,1,9.13,8.23a14.59,14.59,0,0,1,4.33-3.17,18.84,18.84,0,0,1,8.16-1.3c3.35.05,8.3.38,12.61,2.66a18.77,18.77,0,0,1,9.4,12.52,20.17,20.17,0,0,1-3.06,15.35c-1.35,2-5,6.79-9.35,9l-.09,0-.1,0A34.57,34.57,0,0,1,23.31,44.77Zm-.68-2.31c1.47.29,5.43-.6,7.66-1.25,4-2,7.44-6.78,8.41-8.2a17.87,17.87,0,0,0,2.72-13.59,16.51,16.51,0,0,0-8.25-11c-3-1.56-6.64-2.32-11.59-2.4A17,17,0,0,0,14.4,7.11a12.64,12.64,0,0,0-3.65,2.7,19.32,19.32,0,0,0-5,16.29C7,34.05,13.94,40.78,22.63,42.46Z"/><path class="cls-2" d="M14.26,27.4a4.39,4.39,0,0,1-1.19-.17,4.33,4.33,0,0,1-3-3.77,3.24,3.24,0,0,1,1-2.7,1.42,1.42,0,0,1,.11-.33,3.5,3.5,0,0,1,1.61-1.49,4.43,4.43,0,0,1,3.38-.23,3.84,3.84,0,0,1,2.45,2.56,4.73,4.73,0,0,1,0,2.13,5.39,5.39,0,0,1-1,2.38A4.32,4.32,0,0,1,14.26,27.4ZM13,21.76a1.12,1.12,0,0,1-.4.69,1,1,0,0,0-.26.85,2,2,0,0,0,1.4,1.76,2.07,2.07,0,0,0,2.14-.67,3.28,3.28,0,0,0,.56-1.4,2.5,2.5,0,0,0,0-1.12,1.59,1.59,0,0,0-1-1,2.22,2.22,0,0,0-1.65.14,1.3,1.3,0,0,0-.59.49A1,1,0,0,1,13,21.76Z"/><path class="cls-2" d="M24,18.52c-.42,0-.82,0-1.19,0a4,4,0,0,1-1.57-.33,3.5,3.5,0,0,1-1.72-2.48,8.59,8.59,0,0,1-.26-2.08,1.11,1.11,0,0,1,.12-.52A3.38,3.38,0,0,1,22,10.22a6.94,6.94,0,0,1,3.33.27,4.36,4.36,0,0,1,2.13,1.09,4.39,4.39,0,0,1,.77,1.18,4.84,4.84,0,0,1,.62,1.9,3.72,3.72,0,0,1-2.52,3.48A6.6,6.6,0,0,1,24,18.52Zm-2.48-4.81a7.47,7.47,0,0,0,.19,1.42c.13.53.32.89.53,1a2.21,2.21,0,0,0,.7.1A6.82,6.82,0,0,0,25.56,16c.55-.21,1.09-.73,1.07-1.25a3.1,3.1,0,0,0-.38-1,2.47,2.47,0,0,0-.37-.62,2.68,2.68,0,0,0-1.1-.48,5.1,5.1,0,0,0-2.25-.24c-.49.11-.92.49-.93.83A1.16,1.16,0,0,1,21.48,13.71Z"/><path class="cls-2" d="M32.94,27.78h-.15A4.58,4.58,0,0,1,29,25.32a5.09,5.09,0,0,1-.18-4.05,1.12,1.12,0,0,1,.48-.95A5.29,5.29,0,0,1,34.85,20a4.39,4.39,0,0,1,1.88,5.41A4.2,4.2,0,0,1,32.94,27.78ZM31,22a2.75,2.75,0,0,0,0,2.33,2.29,2.29,0,0,0,1.88,1.24,1.92,1.92,0,0,0,1.78-1.07,2.11,2.11,0,0,0-.94-2.53A3,3,0,0,0,31,22Z"/><path class="cls-2" d="M22.75,37.34l-.53,0a4.67,4.67,0,0,1-3-1.62,4.31,4.31,0,0,1-.91-2,1.14,1.14,0,0,1-.38-.87,4.31,4.31,0,0,1,7.74-2.52,5.43,5.43,0,0,1,1,2.59,4.54,4.54,0,0,1,0,1.62A3.91,3.91,0,0,1,22.75,37.34ZM20.41,32a1.11,1.11,0,0,1,.09.7,2,2,0,0,0,.44,1.56,2.38,2.38,0,0,0,1.54.81A1.79,1.79,0,0,0,24.41,34a2.33,2.33,0,0,0,0-.79,3.08,3.08,0,0,0-.56-1.53A2.14,2.14,0,0,0,21.58,31,2.09,2.09,0,0,0,20.41,32Z"/></svg>