<svg id="Layer_1" data-name="Layer 1" xmlns="http://www.w3.org/2000/svg" viewBox="0 0 13.22 9.5"><defs><style>.cls-1{fill:#fff;}</style></defs><title>pa&amp;apos;atrás</title><path class="cls-1" d="M5.64,9.5a1,1,0,0,1-.8-.41A19.7,19.7,0,0,0,.48,5.74,1,1,0,0,1,0,5a1,1,0,0,1,.25-.82C.8,3.63,3.58.62,4.94.07a1,1,0,0,1,.75,1.84A17,17,0,0,0,2.54,4.69a16.83,16.83,0,0,1,3.9,3.24,1,1,0,0,1-.22,1.38A1,1,0,0,1,5.64,9.5Z"/><path class="cls-1" d="M1.44,5.88a1,1,0,0,1-.16-2,34.05,34.05,0,0,1,4.31-.24c2.3,0,5.16-.1,6.16-.66a1,1,0,0,1,1,1.74c-1.43.79-4.3.85-7.08.9a32.49,32.49,0,0,0-4,.22Z"/></svg>