<svg id="Layer_1" data-name="Layer 1" xmlns="http://www.w3.org/2000/svg" viewBox="0 0 60.42 60.42"><defs><style>.cls-1{fill:#e23d4d;}.cls-2{fill:#fff;}</style></defs><title>upload</title><circle class="cls-1" cx="30.21" cy="30.21" r="30.21"/><g id="_Group_" data-name="&lt;Group&gt;"><path class="cls-2" d="M21.43,48.61a6,6,0,0,1-2.4-.4,4.92,4.92,0,0,1-.61-.3,3.24,3.24,0,0,0-.79-.34,4.8,4.8,0,0,0-.77,0,2.4,2.4,0,0,1-2.31-.83,2.43,2.43,0,0,1-.34-1.25c-.63-9.72-.85-19.58-.67-29.31l.1-1.52a1.87,1.87,0,0,1,1-1.93,3.79,3.79,0,0,1,1.69-.41,163.22,163.22,0,0,1,20.63-.05,4.14,4.14,0,0,1,2.74.92,4.09,4.09,0,0,1,1,2.47,154.19,154.19,0,0,1,1.29,15.78l-1.63.05A150.88,150.88,0,0,0,39,15.87a2.67,2.67,0,0,0-.5-1.53,2.75,2.75,0,0,0-1.7-.46,159.92,159.92,0,0,0-20.42,0,2.51,2.51,0,0,0-1,.19.37.37,0,0,0-.17.22l0,.15,0,.14-.11,1.61c-.18,9.65,0,19.46.67,29.13a1.5,1.5,0,0,0,.07.47c.09.12.54.1.91.09a5.28,5.28,0,0,1,1.11,0,4.36,4.36,0,0,1,1.26.5q.24.14.48.24a6.05,6.05,0,0,0,2.41.26l7.21-.23,10.56-.34.23,0,.56,1.52a2.24,2.24,0,0,1-.74.12l-10.52.35-7.25.22Z" transform="translate(0 0)"/></g><g id="_Group_2" data-name="&lt;Group&gt;"><path class="cls-2" d="M21.31,18.48a7,7,0,0,1-1.2-.07c-.22,0-.43-.07-.64-.12l-.27-.06a8.31,8.31,0,0,0-2-.15.81.81,0,0,1-.08-1.62,9.6,9.6,0,0,1,2.39.18l.3.07.53.1a8.85,8.85,0,0,0,1.17.05l8.32,0a5.75,5.75,0,0,0,1.53-.13,6.29,6.29,0,0,0,.89-.35,7,7,0,0,1,1-.41,8.24,8.24,0,0,1,4.41.24.81.81,0,1,1-.4,1.58,6.8,6.8,0,0,0-3.53-.27,6.58,6.58,0,0,0-.81.33,7.18,7.18,0,0,1-1.13.44,7,7,0,0,1-1.95.19l-8.31,0Z" transform="translate(0 0)"/></g><g id="_Group_3" data-name="&lt;Group&gt;"><path class="cls-2" d="M27.88,22.25A37.51,37.51,0,0,1,24.05,22a21.83,21.83,0,0,0-5.75-.11.81.81,0,0,1-.93-.68.8.8,0,0,1,.68-.92,23.16,23.16,0,0,1,6.17.1c2.45.25,4.76.5,6.94-.19l.28-.1a7.39,7.39,0,0,1,1.17-.3,5.5,5.5,0,0,1,1.29,0l2.9.26a.81.81,0,1,1-.14,1.61l-2.91-.26a6,6,0,0,0-.94,0,5.44,5.44,0,0,0-.85.23l-.31.1A12.14,12.14,0,0,1,27.88,22.25Z" transform="translate(0 0)"/></g><g id="_Group_4" data-name="&lt;Group&gt;"><path class="cls-2" d="M30.51,26.35a6.22,6.22,0,0,1-2.08-.47c-.24-.09-.47-.17-.71-.24a12.13,12.13,0,0,0-4.55-.09,15.16,15.16,0,0,1-4.61,0A.81.81,0,0,1,18.88,24a13.9,13.9,0,0,0,4.12,0,13.26,13.26,0,0,1,5.17.14q.41.12.81.27a4.2,4.2,0,0,0,1.57.37,4.3,4.3,0,0,0,1.15-.24,6.06,6.06,0,0,1,1.6-.31,9.52,9.52,0,0,1,1,.09,2.69,2.69,0,0,0,1,0,3.5,3.5,0,0,0,.8-.32,2.59,2.59,0,0,1,2.44-.26.81.81,0,1,1-.77,1.43c-.16-.09-.5.06-1,.29a5.08,5.08,0,0,1-1.19.46,4.25,4.25,0,0,1-1.52,0,4.06,4.06,0,0,0-.73-.08,4.47,4.47,0,0,0-1.17.25,6.24,6.24,0,0,1-1.57.31Z" transform="translate(0 0)"/></g><g id="_Group_5" data-name="&lt;Group&gt;"><path class="cls-2" d="M30.4,31.24a3.28,3.28,0,0,1-1.81-.78,6,6,0,0,0-.56-.37,4.09,4.09,0,0,0-1.9-.28H19.37a.81.81,0,1,1,0-1.62l6.75,0a5.47,5.47,0,0,1,2.68.48,6.13,6.13,0,0,1,.73.48c.34.24.76.54.93.46a1.21,1.21,0,0,0,.26-.2l.07-.07A6.6,6.6,0,0,1,37.06,28a.82.82,0,0,1,.53,1,.8.8,0,0,1-1,.53,5,5,0,0,0-4.69,1l-.06.06a2.69,2.69,0,0,1-.7.5A1.76,1.76,0,0,1,30.4,31.24Z" transform="translate(0 0)"/></g><g id="_Group_6" data-name="&lt;Group&gt;"><path class="cls-2" d="M29.71,34.41h-.29c-3.75,0-7.55-.09-11.28-.19a.82.82,0,0,1-.79-.84.81.81,0,0,1,.83-.79c3.73.11,7.51.18,11.25.2a4.86,4.86,0,0,0,2.5-.4.81.81,0,0,1,.82,1.4A6,6,0,0,1,29.71,34.41Z" transform="translate(0 0)"/></g><g id="_Group_7" data-name="&lt;Group&gt;"><path class="cls-2" d="M19.75,38.62a2.1,2.1,0,0,1-1.25-.55c-.08-.06-.2-.16-.27-.2a.81.81,0,0,1-.93-.52.82.82,0,0,1,.49-1,1.8,1.8,0,0,1,1.7.47l.22.17.08-.07a4.08,4.08,0,0,1,3-.62,7.8,7.8,0,0,0,1.28,0c.19,0,.38-.08.57-.13l.57-.12a8.89,8.89,0,0,1,2.24,0l3.09.22a.81.81,0,0,1-.11,1.62l-3.09-.22a7.07,7.07,0,0,0-1.84,0,3.56,3.56,0,0,0-.47.1,6.47,6.47,0,0,1-.74.15,7.8,7.8,0,0,1-1.6,0,2.77,2.77,0,0,0-1.89.26l-.06,0a1.8,1.8,0,0,1-.55.34A1.29,1.29,0,0,1,19.75,38.62Z" transform="translate(0 0)"/></g><g id="_Group_8" data-name="&lt;Group&gt;"><path class="cls-2" d="M21.54,42.26a1.91,1.91,0,0,1-.52-.07,2.82,2.82,0,0,1-.48-.19l-.13,0a3.52,3.52,0,0,0-1.65-.13.82.82,0,0,1-.87-.76.81.81,0,0,1,.76-.86,5.09,5.09,0,0,1,2.4.25l.18.09a1.45,1.45,0,0,0,.22.09,1.69,1.69,0,0,0,.81-.19l.19-.06a13.87,13.87,0,0,1,4.68-.54H29a.82.82,0,0,1,0,1.63H27.12a12.07,12.07,0,0,0-4.13.44l-.17.06A3.82,3.82,0,0,1,21.54,42.26Z" transform="translate(0 0)"/></g><g id="_Group_9" data-name="&lt;Group&gt;"><path class="cls-2" d="M37.36,48.18a.82.82,0,0,1-.54-.2.84.84,0,0,1-.28-.57c-.09-2-.08-4.2,0-6.23l-3.49-.09a.82.82,0,0,1-.69-.42.81.81,0,0,1,0-.81c2.08-3.46,4.64-7.34,6.86-10.38a.83.83,0,0,1,.59-.33.81.81,0,0,1,.64.24l.64.65a47.12,47.12,0,0,1,3.41,4A45.87,45.87,0,0,0,47.81,38a1.3,1.3,0,0,1-.67,2.19,18.8,18.8,0,0,1-2.8.35V46a.49.49,0,0,1,0,.12l-.12.77a.8.8,0,0,1-.7.69c-1.35.16-2.72.3-4.06.42l-2,.16ZM34.52,39.5l2.93.08a.82.82,0,0,1,.79.87c-.14,1.93-.17,4-.11,6l1.16-.1c1.13-.1,2.27-.21,3.4-.34l0-.1V39.7a.81.81,0,0,1,.81-.81,19.06,19.06,0,0,0,2.71-.23c-1.06-1.13-2-2.38-3-3.59A45.66,45.66,0,0,0,40,31.21C38.21,33.72,36.24,36.7,34.52,39.5Z" transform="translate(0 0)"/></g></svg>