<svg id="Layer_1" data-name="Layer 1" xmlns="http://www.w3.org/2000/svg" viewBox="0 0 13.11 12.69"><defs><style>.cls-1{fill:#fff;}</style></defs><title>volveraherramientas</title><path class="cls-1" d="M6.8,12.69a5.39,5.39,0,0,1-.8-.06A7.66,7.66,0,0,1,1.4,9.54a.86.86,0,0,1,.23-1.18.87.87,0,0,1,1.19.23A5.93,5.93,0,0,0,6.27,11,4.28,4.28,0,0,0,9.61,9.86a4.34,4.34,0,0,0,1.45-5.22A4.4,4.4,0,0,0,6.81,1.72,4.07,4.07,0,0,0,3,5.05a.85.85,0,0,1-1.64.16L.05,1.58A.84.84,0,0,1,.57.5.84.84,0,0,1,1.65,1l.54,1.54A5.9,5.9,0,0,1,6.64,0a6.07,6.07,0,0,1,6,4,6,6,0,0,1-2,7.19A6.2,6.2,0,0,1,6.8,12.69Z"/><path class="cls-1" d="M2.11,5.78A.84.84,0,0,1,1.27,5,.83.83,0,0,1,2,4.09l3.56-.43a.85.85,0,0,1,.2,1.69l-3.56.42Z"/></svg>