<?xml version="1.0" encoding="utf-8"?>
<!-- Generator: Adobe Illustrator 22.0.1, SVG Export Plug-In . SVG Version: 6.00 Build 0)  -->
<svg version="1.1" id="Layer_1" xmlns="http://www.w3.org/2000/svg" xmlns:xlink="http://www.w3.org/1999/xlink" x="0px" y="0px"
	 viewBox="0 0 144.9 144.9" style="enable-background:new 0 0 144.9 144.9;" xml:space="preserve">
<style type="text/css">
	.st0{fill:#FFFFFF;}
	.st1{fill:#00BFB3;}
	.st2{fill:#E23D4D;}
</style>
<g>
	<circle class="st0" cx="72.4" cy="72.4" r="72.4"/>
	<g>
		<path class="st2" d="M72.4,8.5c35,0,63.4,28.4,63.4,63.4c0,35-28.4,63.4-63.4,63.4S9,107,9,71.9C9,36.9,37.4,8.5,72.4,8.5 M72.4,5
			c-17.9,0-34.7,7-47.3,19.6S5.5,54.1,5.5,71.9s7,34.7,19.6,47.3s29.4,19.6,47.3,19.6s34.7-7,47.3-19.6s19.6-29.4,19.6-47.3
			s-7-34.7-19.6-47.3S90.3,5,72.4,5L72.4,5z"/>
		<g id="hRclsA.tif_1_">
			<g>
				<g>
					<path class="st2" d="M94,113c-1.4,0.5-2.9,1-4.3,1.4c-5.4,1.5-11,2.3-16.7,2.2c-7.5,0-14.8-1.3-21.8-3.8
						c-1.1-0.4-1.7-1.3-1.5-2.1c0.2-0.9,1.1-1.7,2.3-1.6c0.3,0,0.7,0.1,1,0.2c5.9,2,11.9,3.3,18.1,3.5c7.5,0.3,14.7-0.8,21.8-3.3
						c1.1-0.4,2.2,0,2.5,0.9C95.7,111.4,95.1,112.6,94,113z"/>
					<path class="st2" d="M86.9,106.5c-1.8,0.5-3.7,1-5.6,1.2c-2.2,0.3-4.4,0.5-6.7,0.7c-0.9,0.1-1.8,0.1-2.7,0.1
						c-3.9-0.2-7.7-0.6-11.4-1.6c-0.3-0.1-0.6-0.2-0.8-0.2c-1.2-0.4-1.8-1.3-1.5-2.4c0.3-1.1,1.4-1.8,2.5-1.5
						c1.5,0.3,2.9,0.7,4.4,0.9c4,0.7,8,0.9,12,0.4c2.9-0.3,5.7-0.9,8.6-1.4c1.1-0.2,2.2,0.3,2.5,1.2C88.7,105,88.1,106.2,86.9,106.5
						z"/>
					<path class="st2" d="M121.4,73.4c-0.4,2.3-1.1,4.5-2.1,6.6c-2,4.1-4.8,7.4-8.7,9.7c-2.4,1.4-5.7,2.4-9.3,2.4
						c-2.9,0-6.1-1.4-8.8-3.9c-4.1-3.8-7-8.4-8.2-13.9c-0.2-0.8-0.2-1.5-0.3-2.3c-0.1-1.3,0.8-2.3,1.8-2.4c1.1-0.1,1.7,0.6,1.9,2
						c0.9,5.7,3.5,10.5,8,14.2c3.4,2.8,7.3,3.1,11.4,1.6c4.6-1.7,7.4-5.2,9.2-9.5c0.6-1.5,1-3.1,1.4-4.6c0.1-0.4,0.2-0.8,0.4-1.2
						c0.5-0.8,1.4-1.1,2.1-0.8C121.1,71.6,121.6,72.4,121.4,73.4z"/>
					<path class="st2" d="M60.2,73.6c-0.2,1.9-0.4,3.8-0.8,5.7c-0.6,2.7-1.5,5.2-3.1,7.4c-1.9,2.7-4.6,4.2-7.8,4.7
						c-1.1,0.2-2.3,0.2-2.9,0.3c-4.3-0.1-8.1-0.7-11.6-2.2c-5.8-2.4-9-6.9-10.2-12.9c-0.1-0.6-0.2-1.3-0.3-1.9
						c-0.1-1.2,0.7-2.2,1.8-2.3c1-0.1,1.8,0.6,2,1.9c0.3,2,0.8,3.9,1.8,5.7c1.5,3,3.9,5,7,6.2c3.7,1.5,7.5,2.1,11.5,1.4
						c3.5-0.6,5.9-2.6,7.4-5.7c1.2-2.5,1.7-5.1,1.8-7.8c0-0.3,0-0.7,0.1-1c0.3-1,1.1-1.6,2-1.4C59.6,71.9,60.3,72.6,60.2,73.6z"/>
				</g>
			</g>
		</g>
		<path class="st2" d="M106.2,49c-2.7,1.3-5.5,1.3-8.3,0.7c-3.5-0.7-6.8-2.2-10.1-3.5c-3.2-1.3-6.5-2.6-9.8-3.6
			c-4.2-1.3-8.4-1.2-12.6,0c-4,1.2-8,2.4-12,3.6c-0.5,0.1-0.9,0.3-1.4,0.4c0,0.1,0,0.1,0,0.2c1.9-0.3,3.7-0.5,5.6-0.8
			c3.1-0.4,6.2-0.8,9.3-1.2c3.8-0.4,6.2,1.7,6.3,5.8c0.1,2.2-0.2,4.5-0.2,6.7c0,1.8,0,3.6,0.2,5.4c0.5,5.8,1.2,11.6,1.7,17.4
			c0.4,5,0.5,9.9,0.2,14.9c-0.1,1.7-2.1,2.7-3.5,1.7c-0.6-0.4-0.8-1-0.7-1.7c0-3.4,0.1-6.9,0-10.3c-0.1-2.8-0.4-5.6-0.6-8.3
			c-0.5-6-1.4-12-1.4-18.1c0-1.8,0.1-3.6,0.2-5.4c0-0.6,0-1.3,0-1.9c0-2.1-0.8-2.8-2.8-2.4c-3.9,0.6-7.8,1.2-11.6,1.8
			c-4,0.6-8,0.8-12.1,0.4c-1.7-0.2-3.2-0.8-4.3-2.1c-0.4-0.4-0.7-0.9-0.8-1.4c-0.5-1.4,0.2-2.5,1.7-2.7c1.6-0.2,3.3-0.4,4.9-0.6
			c4-0.4,7.9-1.4,11.8-2.5c3.6-1,7.1-2.1,10.7-3c4.2-1.1,8.5-0.7,12.6,0.7c4.1,1.4,8.2,3.1,12.2,4.6c3,1.1,6,2.2,9.3,2.1
			c1.7,0,3.2-0.4,4.7-1c1.2-0.5,2.1,0,2.4,1.2C107.9,47.3,107.4,48.5,106.2,49z"/>
	</g>
</g>
</svg>
